<svg id="Layer_2" data-name="Layer 2" xmlns="http://www.w3.org/2000/svg" viewBox="0 0 212 677.95"><defs><style>.cls-1{fill:#ec008c}.cls-15,.cls-32,.cls-39,.cls-67,.cls-9{fill:#fff}.cls-32,.cls-39,.cls-42,.cls-67,.cls-72,.cls-8,.cls-9{font-family:"Veneerregular"}.cls-15,.cls-9{font-size:12.43px}.cls-7{letter-spacing:0}.cls-8{font-size:22.79px}.cls-19,.cls-42,.cls-8{fill:#74cee2}.cls-12{letter-spacing:0}.cls-13{letter-spacing:-.04em}.cls-72{fill:#0079c1}.cls-24{letter-spacing:0}.cls-27,.cls-28{letter-spacing:-.04em}.cls-29{letter-spacing:-.05em}.cls-30{letter-spacing:-.01em}.cls-32{font-size:20.45px}.cls-33{letter-spacing:-.04em}.cls-34{letter-spacing:0}.cls-39{font-size:22.38px}.cls-42{font-size:33.41px}.cls-46{letter-spacing:-.04em}.cls-48{letter-spacing:-.02em}.cls-57{letter-spacing:-.04em}.cls-63{letter-spacing:-.01em}.cls-67{font-size:16px}.cls-68{letter-spacing:-.01em}.cls-69{letter-spacing:-.02em}.cls-72{font-size:38px}.cls-74{letter-spacing:-.02em}.cls-75{letter-spacing:-.04em}.cls-76{letter-spacing:-.02em}</style></defs><path class="cls-1" d="M5.71.81h2.1c-1.5 0 2.5-.13 6.47-.25 1.7 0 5.18 0 4.87.12h1.76c-.75 0-2.07 0-3.43.06h.91-6.55s.71.06.65.09H8.76L6.89.84H5.71M203 115.14c1.5 0-2.83 0-6.81.11-1.69 0-4.84.1-4.53 0h-1.76c.75 0 2.07 0 3.43-.06h-.91c1.11.06 4.6 0 6.55 0 0-.06-.71-.06-.65-.09l2.38-.05h3.17c.44 0-.24.05-.92 0M1.38 31.35Q1.13 41.4 1 51.53c.35 9.59.06 20 .17 30 .08 4.24.16 8.62.24 12.94-.06 3-.09 6-.1 9.09v11.89H42.44c.23-.14-4.63 0-6-.12h11.98c11.92.07 23.88.19 35.86.21 2.9 0 6.45.12 7.78.17 5.14.06 3-.08 6.8-.06l.5.15c5.51-.12 8 .16 13.23.1.27-.06 2.17-.07 4-.06.1.15 5.67 0 5.41.13h3.26c2.1-.06 21.86-.48 24-.54h1c2.95 0 4.21-.12 2.49-.15h6.85c.66 0 1.42.09.39.16 2.05-.06 4.36-.09 6.41-.06-3.66-.06-7.89-.14-12-.23h7c3.24.06 7.23.11 10.6.16 1.11 0 1.88-.19 4.42-.11 1.23.12 2.86 0 5 .08-2.42.07-4.78 0-7.24 0 .42.14 6 .1 7.91.14h8.62c-.85.09.44.1 1.93.11h.91-.88c.78 0 1.61-.06 2.21 0 2 0 3.21 0 2.39-.09.14 0 9.62-.24 8.46-.24-.63 0-.67 0-.54-.06h.35c.29 0 .49-.06-.4-.07h-.83c-1.53 0-2.29 0-2.57-.07h6.52v-1.36c.48-3.27 0-3.54.49-6.49l-.14.09c.11-2.57.21-5.15.31-7.72v-.67c.27-4.94.49-9.7.44-14a1 1 0 0 0 0-.16q.26-10 .39-20.17c-.35-9.59-.07-20-.17-30-.08-4.24-.16-8.62-.24-12.94.06-3 .09-6 .1-9.09V.6h-41.12c-.23.14 4.63 0 6 .12h-11.99C150.42.58 138.45.46 126.48.44c-2.9 0-6.45-.12-7.78-.17-5.14-.06-3 .07-6.8 0l-.5-.14C105.89.3 103.35 0 98.17.08c-.27.05-2.17.06-4 .06-.1-.14-5.67.01-5.41-.14H85.45c-2.1.05-21.86.48-24 .54h-1c-3 0-4.22.12-2.49.14h-6.85c-.66 0-1.42-.09-.39-.16-2 .06-4.36.08-6.41.06l12 .22-7 .05C46.1.75 42.11.7 38.74.65c-1.11 0-1.88.18-4.42.11-1.23-.12-2.86 0-5-.08 2.42-.07 4.78 0 7.24 0-.42-.14-6-.1-7.91-.14-.91.05-5.64 0-8.62 0 .85-.09-.44-.1-1.93-.11h-.91.88-2.21c-2 0-3.29 0-2.47.09-.14 0 .16.05.69.07-4.71.08-10.2.22-9.03.22.63 0 .67 0 .54.06h-.35c-.29 0-.49.06.4.07h.83C8 1 8.76 1 9 1H2.52v1.36C2 5.64 2.44 5.92 2 8.86l.14-.09Q2 12.64 1.83 16.5v.67c-.27 4.94-.49 9.7-.44 14a.77.77 0 0 0 0 .15"/><text transform="translate(11.76 22.6)" font-family="Veneer,Veneer" fill="#fff" font-size="14.16"><tspan letter-spacing=".01em">T</tspan><tspan x="5.68" y="0" letter-spacing="-.02em">y</tspan><tspan x="11.44" y="0">öhömme ohjelmamaissa osallistui</tspan></text><text transform="translate(83.33 64.45)" letter-spacing=".01em" font-size="12.43" font-family="Veneer,Veneer" fill="#fff">ty<tspan x="10.35" y="0" letter-spacing=".02em">t</tspan><tspan class="cls-7" x="15.46" y="0">töä</tspan></text><text class="cls-8" transform="translate(82.89 50.94)">42 600</text><text class="cls-9" transform="translate(12.5 64.45)"><tspan letter-spacing=".01em">l</tspan><tspan x="4.72" y="0">as</tspan><tspan x="15.1" y="0" letter-spacing="-.04em">t</tspan><tspan class="cls-12" x="19.46" y="0">a</tspan></text><text class="cls-8" transform="translate(11.99 50.94)">78 600</text><text class="cls-8" transform="translate(12.85 90.26)">91 400</text><text class="cls-9" transform="translate(12.9 103.22)">aikuis<tspan class="cls-13" x="26.91" y="0">t</tspan><tspan x="31.27" y="0">a</tspan></text><text class="cls-8" transform="translate(83.83 90.26)">53 500</text><text transform="translate(82.89 103.77)" font-size="10.36" fill="#74cee2" font-family="Veneer,Veneer"><tspan class="cls-15" x="2.07" y="0">nais</tspan><tspan x="20.98" y="0" letter-spacing="-.04em" font-size="12.43" fill="#fff">t</tspan><tspan class="cls-15" x="25.34" y="0">a</tspan></text><text class="cls-8" transform="translate(149.46 90.26)">37 900</text><text class="cls-9" transform="translate(150.3 103.22)">mi<tspan x="10.04" y="0" letter-spacing="-.01em">e</tspan><tspan class="cls-7" x="14.79" y="0">s</tspan><tspan class="cls-13" x="19.91" y="0">t</tspan><tspan x="24.27" y="0">ä</tspan></text><text class="cls-9" transform="translate(150.43 63.9)">poik<tspan x="18.82" y="0" letter-spacing="0">a</tspan><tspan class="cls-12" x="24.14" y="0">a</tspan></text><text class="cls-8" transform="translate(149.46 50.94)">36 000</text><path class="cls-19" d="M4.75 123.06h2.11c-1.52 0 2.5-.18 6.5-.35 1.7.06 5.2.07 4.89.16h1.76c-.74 0-2.07.06-3.44.07h.91c-1.11-.08-4.62 0-6.58 0 0 .08.71.09.66.12-.63 0-1.52.06-2.4.07H4.75M203 280.73c1.51 0-2.84 0-6.84.15-1.7-.06-4.87.13-4.56 0h-1.76c.74 0 2.07-.06 3.44-.08l-.91.05c1.12.07 4.62 0 6.58 0 0-.07-.71-.08-.65-.12.62 0 1.51 0 2.39-.07h3.19c.45 0-.23.05-.92.05M.39 165.18Q.12 179 0 193c.35 13.23.06 27.58.17 41.33.08 5.85.16 11.89.24 17.84-.06 4.12-.09 8.32-.1 12.54v16.4h41.31c.23-.19-4.66 0-6-.16h12c12 .09 24 .25 36 .28 2.92.06 6.48.17 7.81.24 5.17.09 3.06-.1 6.84-.08l.51.2c5.53-.16 8.08.23 13.29.14.28-.08 2.18-.09 4-.08.09.21 5.7 0 5.43.18h3.27c2.12-.08 22-.66 24.13-.75h1c3 0 4.24-.17 2.51-.21H159.29c.67 0 1.43.12.39.21 2.07-.07 4.38-.11 6.45-.07-3.68-.09-7.94-.19-12.1-.32l7-.06c3.26.08 7.27.16 10.65.22a37.59 37.59 0 0 1 4.44-.14c1.24.16 2.88 0 5 .11-2.43.09-4.81 0-7.27 0 .42.19 6 .13 7.95.18.91-.06 5.67 0 8.66-.05-.86.12.44.14 1.94.16h.91-.88c.78 0 1.61-.09 2.22-.05 2 0 3.22-.06 2.4-.13.15 0 9.67-.33 8.51-.34-.64 0-.68 0-.55-.07.28 0 .42 0 .35-.06.29 0 .49-.09-.4-.1l-.83.05a18.5 18.5 0 0 1-2.58-.11h6.55v-1.88c.49-4.5.05-4.89.5-8.94l-.14.12q.16-5.33.31-10.66v-.91c.27-6.82.49-13.38.45-19.35a1.64 1.64 0 0 1 0-.22q.26-13.84.38-27.82c-.34-13.23-.06-27.57-.16-41.33-.08-5.85-.16-11.89-.24-17.84.06-4.12.08-8.32.09-12.54v-16.4h-41.31c-.24.2 4.65 0 6 .17h-12c-12-.1-24-.26-36-.29-2.91 0-6.48-.17-7.81-.24-5.17-.08-3 .11-6.84.08l-.51-.2c-5.53.16-8.08-.22-13.29-.14-.27.08-2.18.09-4 .09-.1-.22-5.7 0-5.43-.18h-3.33c-2.12.07-22 .65-24.13.74h-1c-3 0-4.24.16-2.5.2h-3.55.43-3.64c-.68 0-1.44-.12-.4-.21-2.06.07-4.38.12-6.45.08 3.69.08 7.94.19 12.1.31l-7 .07c-3.26-.09-7.27-.16-10.65-.22a40 40 0 0 1-4.44.14c-1.24-.16-2.87 0-5-.11 2.43-.09 4.81 0 7.28 0-.43-.2-6-.13-7.95-.19-.92.06-5.67 0-8.67 0 .86-.12-.44-.13-1.94-.15h-.91.88c-.78 0-1.61 0-2.21-.06-2 0-3.31.05-2.49.11-.14.05.16.08.7.1-4.78.17-10.29.36-9.13.36.64 0 .69 0 .55.08s-.42 0-.35.06c-.29 0-.49.08.4.1h.83a19.4 19.4 0 0 1 2.58.1H1.57v1.87c-.49 4.51-.05 4.89-.5 8.95l.14-.13Q1 139.38.85 144.7v.92C.54 152.43.32 159 .37 165a1.49 1.49 0 0 0 0 .21"/><text transform="translate(11.2 185.07)" fill="#0079c1" font-size="17.7" font-family="Veneer,Veneer">Tuimme <tspan x="50.22" y="0" letter-spacing=".01em" font-size="58.98" fill="#fff">4</tspan><tspan x="74.17" y="0" font-size="58.98" fill="#fff">4 500</tspan><tspan x="180.92" y="0" stroke="#231f20" stroke-miterlimit="10" font-size="47.19" fill="#fff"> </tspan><tspan x="0" y="20.05">alle kuusivuoti</tspan><tspan class="cls-24" x="99.9" y="20.05">a</tspan><tspan x="107.48" y="20.05">an </tspan><tspan x="126.76" y="20.05" letter-spacing=".01em">l</tspan><tspan x="133.49" y="20.05">a</tspan><tspan x="140.97" y="20.05" letter-spacing="-.01em">p</tspan><tspan x="148.56" y="20.05">sen </tspan><tspan class="cls-27" x="0" y="40.11">v</tspan><tspan x="6.72" y="40.11">arhaiskas</tspan><tspan class="cls-28" x="71.33" y="40.11">v</tspan><tspan class="cls-29" x="78.05" y="40.11">a</tspan><tspan x="84.74" y="40.11">tus</tspan><tspan class="cls-28" x="107.05" y="40.11">t</tspan><tspan x="113.26" y="40.11">a </tspan><tspan class="cls-30" x="124.29" y="40.11">k</tspan><tspan x="131.79" y="40.11">otona </tspan><tspan class="cls-30" x="172.93" y="40.11">j</tspan><tspan x="180.15" y="40.11">a </tspan><tspan class="cls-27" x="0" y="60.16">v</tspan><tspan x="6.72" y="60.16">arhaiskas</tspan><tspan class="cls-28" x="71.33" y="60.16">v</tspan><tspan class="cls-29" x="78.05" y="60.16">a</tspan><tspan x="84.74" y="60.16">tusk</tspan><tspan class="cls-30" x="114.73" y="60.16">e</tspan><tspan x="121.49" y="60.16">sku</tspan><tspan x="144.56" y="60.16" letter-spacing="-.02em">k</tspan><tspan x="151.89" y="60.16">sissa </tspan><tspan x="0" y="80.22">kuud</tspan><tspan class="cls-30" x="31.67" y="80.22">e</tspan><tspan x="38.43" y="80.22">ssa m</tspan><tspan class="cls-24" x="74.46" y="80.22">a</tspan><tspan x="82.03" y="80.22">assa.</tspan></text><path class="cls-19" d="M208.23 289.58a3.53 3.53 0 0 1 0 .74c0-.53.24.87.46 2.27-.09.59-.09 1.82-.22 1.71v.18l-.06.44c0-.26-.08-.73-.1-1.21 0 .12 0 .22.07.32a16.63 16.63 0 0 0 0-2.3c-.1 0-.11.25-.16.23a8 8 0 0 1-.09-.84v-.47c0-.21 0-.45-.05-.66a2.11 2.11 0 0 1 .06-.41m-206 69.31A18.25 18.25 0 0 0 2 356.5c.08-.59-.17-1.7 0-1.59v-.18l.05-.44a8.33 8.33 0 0 1 .1 1.21c0-.12 0-.22-.06-.32a16.67 16.67 0 0 0 0 2.3c.1 0 .11-.25.16-.23a8 8 0 0 1 .09.84 2.83 2.83 0 0 0 0 .29V359.22c0 .21-.07-.08-.07-.33m151-70.84q-18.1-.09-36.36-.13c-17.28.12-36 0-54 .06l-23.32.08H1.69V302.51c.26.09 0-1.62.22-2.09v4.2c-.13 4.18-.33 8.39-.37 12.6-.08 1-.22 2.27-.32 2.73a20.18 20.18 0 0 0 .11 2.39l-.27.18c.22 1.93-.29 2.83-.18 4.65a3.81 3.81 0 0 1 .12 1.38c-.27 0 0 2-.23 1.9v1.15c.09.74.85 7.68 1 8.43v.35c0 1 .21 1.49.26.88v1.28-.15 1.28c0 .23-.15.5-.28.14a11.31 11.31 0 0 1 .1 2.25c.11-1.29.25-2.78.41-4.23l.09 2.46c-.11 1.14-.21 2.54-.29 3.72a3.63 3.63 0 0 1 .19 1.56c-.21.43 0 1-.15 1.74a17.92 17.92 0 0 1-.05-2.54c-.25.15-.17 2.1-.24 2.78.08.32 0 2 .07 3-.16-.3-.18.15-.21.68 0 .1 0 .2.05.32 0-.11 0-.22-.05-.31 0 .27.11.56.07.77 0 .71.08 1.13.16.84.06.05.44 3.39.44 3 0-.23.06-.24.11-.19s0 .14.07.12.11.17.13-.14l-.06-.29a2 2 0 0 1 .13-.9v2.28H5c5.88.18 6.38 0 11.69.18l-.16-.05 13.92.11h1.2c8.9.09 17.48.17 25.28.15h.29q18.1.09 36.35.13c17.29-.12 36 0 54-.06l23.32-.08h37.82v-8.05-6.4c-.26-.09 0 1.62-.22 2.09v-4.2c.12-4.18.33-8.39.37-12.6.08-1 .22-2.27.31-2.73a18.57 18.57 0 0 0-.1-2.39l.26-.18c-.21-1.93.29-2.83.19-4.65a3.92 3.92 0 0 1-.12-1.41c.28 0 0-2 .24-1.89a9.24 9.24 0 0 1 0-1.15c-.09-.74-.86-7.68-1-8.43v-.35c0-1-.21-1.49-.26-.88v-1.28.15-1.28c0-.23.15-.5.27-.14a13 13 0 0 1-.1-2.25c-.11 1.29-.25 2.78-.4 4.23l-.09-2.46c.11-1.14.2-2.54.29-3.72a3.63 3.63 0 0 1-.19-1.56c.21-.43 0-1 .15-1.74a17.92 17.92 0 0 1 .05 2.54c.25-.15.17-2.1.24-2.78-.08-.32 0-2-.07-3 .16.3.18-.15.21-.68v-.32.31a4.34 4.34 0 0 1 .08-.77c0-.71-.07-1.16-.16-.87-.05-.05-.09.06-.12.24-.23-1.67-.47-3.59-.47-3.19 0 .23-.07.24-.11.19s0-.14-.07-.12-.11-.17-.13.14l.06.29a1.86 1.86 0 0 1-.14.91v-.85-1.44h-2.45c-5.89-.18-6.39 0-11.69-.18l.16.05-13.7-.1h-1.19c-8.9-.09-17.48-.17-25.29-.15h-.28"/><text class="cls-32" transform="translate(10.13 352.42)"><tspan class="cls-33">v</tspan><tspan class="cls-34" x="7.77" y="0">arhaiskas</tspan><tspan class="cls-33" x="82.44" y="0">v</tspan><tspan x="90.21" y="0" letter-spacing="-.04em">a</tspan><tspan class="cls-34" x="97.94" y="0">tusk</tspan><tspan x="132.61" y="0" letter-spacing="-.01em">e</tspan><tspan x="140.42" y="0">skus</tspan><tspan x="175.51" y="0" letter-spacing="-.04em">t</tspan><tspan x="182.69" y="0">a</tspan></text><text class="cls-32" transform="translate(10.13 311.76)">Perustimme <tspan class="cls-33" x="0" y="20.45">t</tspan><tspan x="7.18" y="20.45">ai tuimme</tspan></text><text transform="translate(112.01 332.37)" font-size="51.13" fill="#0079c1" font-family="Veneer,Veneer">554</text><path class="cls-1" d="M5.67 368.16h2.1c-1.51 0 2.48-.12 6.45-.24 1.69 0 5.17 0 4.86.12h1.75c-.74 0-2.06.05-3.42.06h.91c-1.11-.05-4.59 0-6.54 0 0 .05.71.06.65.09l-2.37.05H5.67m196.79 111c1.5 0-2.82 0-6.79.1-1.69 0-4.84.09-4.53 0h-1.75c.75 0 2.06-.05 3.42-.06h-.9c1.11.06 4.59 0 6.53 0 0-.06-.71-.06-.65-.09l2.38-.05h2.29M1.34 397.81q-.25 9.77-.34 19.59c.34 9.31.06 19.41.17 29.1.07 4.12.16 8.37.24 12.56-.06 2.9-.09 5.86-.1 8.83v11.55h41c.24-.13-4.62 0-5.94-.11h11.92c11.88.07 23.82.18 35.77.2 2.89 0 6.44.12 7.76.17 5.13.06 3-.08 6.78-.06l.51.14c5.49-.11 8 .16 13.19.1.28-.05 2.17-.06 4-.06.09.15 5.66 0 5.39.13h3.25c2.1-.06 21.82-.47 24-.53h1c2.94 0 4.21-.12 2.48-.15h6.83c.67 0 1.43.08.4.15 2-.05 4.35-.08 6.4-.05-3.66-.06-7.88-.14-12-.23h7c3.23.06 7.21.11 10.57.15 1.11 0 1.88-.17 4.41-.1 1.23.12 2.85 0 5 .08-2.41.06-4.77 0-7.22 0 .42.13 5.95.09 7.89.13h8.6c-.85.09.44.1 1.93.11h.9-.88c.78 0 1.61-.06 2.21 0 2 0 3.2 0 2.39-.09.14 0 9.6-.23 8.44-.24-.63 0-.68 0-.54-.05s.42 0 .34 0c.29 0 .49-.06-.4-.07h-.82a25.4 25.4 0 0 1-2.56-.07h6.5v-1.32c.48-3.17 0-3.44.49-6.3l-.14.09q.16-3.75.3-7.51v-.64c.27-4.8.48-9.42.44-13.62v-.16q.26-9.75.38-19.58c-.34-9.32-.06-19.42-.16-29.1-.08-4.12-.16-8.37-.24-12.56.06-2.9.09-5.86.1-8.83v-11.55h-41.07c-.23.14 4.62 0 6 .12h-11.97c-11.89-.07-23.83-.18-35.77-.2-2.9 0-6.44-.12-7.76-.17-5.13-.06-3 .07-6.79.05l-.51-.14c-5.49.12-8-.15-13.19-.1-.27.06-2.16.07-4 .06-.09-.14-5.65 0-5.39-.12h-3.25c-2.1.05-21.81.46-24 .53h-1c-2.95 0-4.21.12-2.49.14H51c-.67 0-1.42-.09-.39-.15-2 .05-4.35.08-6.4.05l12 .22-7 .05c-3.21-.15-7.21-.2-10.58-.25-1.12 0-1.88.18-4.41.11-1.24-.12-2.86 0-5-.08 2.42-.07 4.78 0 7.23 0-.42-.14-6-.09-7.9-.13h-8.59c.84-.08-.45-.09-1.93-.11h-.91.88-2.2c-2 0-3.28 0-2.47.08-.14 0 .16.06.69.07-4.74.13-10.21.25-9 .26h.54-.35c-.29 0-.49.06.4.07h.82c1.53 0 2.29 0 2.57.07H2.49v1.32c-.49 3.17 0 3.44-.49 6.3l.13-.09q-.17 3.75-.3 7.5v.65c-.26 4.8-.48 9.42-.44 13.62a.77.77 0 0 1 0 .15"/><text class="cls-39" transform="translate(16.64 429.67)"><tspan letter-spacing=".01em">ty</tspan><tspan x="18.64" y="0" letter-spacing=".02em">t</tspan><tspan x="27.84" y="0">töä</tspan></text><text class="cls-42" transform="translate(16 405.19)">11 100</text><text class="cls-39" transform="translate(111.54 429.67)">poik<tspan x="33.88" y="0" letter-spacing=".01em">a</tspan><tspan x="43.46" y="0">a</tspan></text><text class="cls-42" transform="translate(110.12 405.19)">6 800</text><text transform="translate(12 452.58)" font-size="14" font-family="Veneer,Veneer" fill="#fff">sai mei<tspan x="34.35" y="0" letter-spacing="-.07em">l</tspan><tspan class="cls-46" x="38.55" y="0">t</tspan><tspan x="43.47" y="0">ä </tspan><tspan x="52.19" y="0" letter-spacing="-.01em">k</tspan><tspan x="58.13" y="0">ou</tspan><tspan class="cls-48" x="70.45" y="0">l</tspan><tspan x="75.35" y="0">utus</tspan><tspan class="cls-46" x="99.41" y="0">t</tspan><tspan x="104.32" y="0">a oikeu</tspan><tspan class="cls-48" x="140" y="0">k</tspan><tspan x="145.79" y="0">sis</tspan><tspan class="cls-46" x="160.39" y="0">t</tspan><tspan x="165.31" y="0" letter-spacing="0">a</tspan><tspan x="171.3" y="0">an </tspan><tspan x="0" y="15" letter-spacing="-.01em">j</tspan><tspan x="5.71" y="15">a </tspan><tspan x="14.43" y="15" letter-spacing=".01em">l</tspan><tspan x="19.75" y="15">asten suoje</tspan><tspan class="cls-48" x="81.17" y="15">l</tspan><tspan x="86.07" y="15">us</tspan><tspan class="cls-46" x="98.25" y="15">t</tspan><tspan x="103.16" y="15">a </tspan><tspan x="111.89" y="15" letter-spacing="-.04em">v</tspan><tspan x="117.21" y="15">äki</tspan><tspan class="cls-46" x="132.27" y="15">v</tspan><tspan x="137.59" y="15">al</tspan><tspan x="148.69" y="15" letter-spacing=".01em">l</tspan><tspan x="154.01" y="15">a</tspan><tspan x="159.93" y="15" letter-spacing="-.07em">l</tspan><tspan class="cls-46" x="164.13" y="15">t</tspan><tspan x="169.05" y="15">a.</tspan></text><path d="M209.38 487.4a3 3 0 0 1 0 .61c0-.44.24.72.46 1.88-.08.49-.09 1.5-.22 1.41v.15l-.06.36a8.76 8.76 0 0 1-.1-1c0 .1.05.19.07.27a11.38 11.38 0 0 0 0-1.9c-.1 0-.11.2-.16.19a5.75 5.75 0 0 1-.09-.7v-.39c0-.17 0-.37-.05-.54a1.09 1.09 0 0 1 .06-.34M1.45 544.67a12.44 12.44 0 0 0-.19-2c.08-.49-.17-1.41 0-1.32s0-.11 0-.15l.05-.36a5.75 5.75 0 0 1 .1 1q0-.15-.06-.27a11.29 11.29 0 0 0-.05 1.9c.11 0 .12-.2.17-.18a5.32 5.32 0 0 1 .09.69 1.94 1.94 0 0 0 0 .24V544.91c0 .17-.07-.07-.07-.27m152.38-58.53q-18.27-.08-36.69-.11c-17.44.1-36.36 0-54.5 0l-23.53.07H1V498.01c.26.07 0-1.34.22-1.73v3.47c-.22 3.51-.39 6.99-.43 10.46a20.26 20.26 0 0 1-.31 2.26c-.11 1.49.13.88.1 2l-.27.14c.22 1.6-.29 2.34-.18 3.84a2.64 2.64 0 0 1 .11 1.17c-.28 0 0 1.64-.23 1.57H0a8.21 8.21 0 0 1 0 1c.1.61.87 6.35 1 7v.29c0 .85.22 1.22.27.72v1.06-.12 1.05c0 .19-.16.41-.28.11a7.83 7.83 0 0 1 .1 1.87c.11-1.07.25-2.3.41-3.5q0 1 .09 2c-.11.94-.21 2.1-.29 3.07 0 .33.33.55.19 1.28-.22.36 0 .84-.15 1.45a11.43 11.43 0 0 1-.05-2.11c-.26.13-.18 1.74-.25 2.3.08.27 0 1.64.07 2.5-.16-.24-.18.13-.21.57a2 2 0 0 1 0 .26 2.38 2.38 0 0 0 0-.26c0 .23.12.47.07.64 0 .59.08.94.17.7.06 0 .44 2.79.44 2.46s.06-.2.11-.16 0 .12.07.1.11.14.13-.12l-.06-.24c0-.44.06-.66.14-.74v1.89h2.34c5.94.14 6.45 0 11.8.14h-.16l14.05.09h1.21c9 .08 17.64.14 25.52.13H57q18.27.08 36.69.11c17.44-.1 36.36 0 54.5 0l23.53-.07h38.18v-6.65-5.29c-.26-.07 0 1.34-.22 1.73v-3.47c.12-3.46.34-6.93.37-10.41.08-.84.23-1.88.32-2.26.11-1.49-.14-.88-.1-2l.26-.14c-.21-1.6.3-2.34.19-3.84a2.59 2.59 0 0 1-.12-1.17c.28 0 0-1.64.24-1.57a8 8 0 0 1 0-.95c-.09-.61-.86-6.35-1-7v-.29c0-.85-.22-1.22-.27-.72v-1.06.12-1.05c0-.19.15-.41.28-.11a7.78 7.78 0 0 1-.1-1.86c-.11 1.06-.26 2.29-.42 3.49 0-.67-.05-1.35-.08-2 .11-.95.2-2.1.29-3.08 0-.32-.33-.55-.19-1.28.21-.36 0-.83.15-1.45a12.38 12.38 0 0 1 .05 2.11c.25-.13.17-1.74.24-2.3-.08-.26 0-1.64-.06-2.5.16.24.17-.13.2-.56a2.56 2.56 0 0 0-.05-.27c0 .09 0 .18.05.26a5.06 5.06 0 0 1 .08-.64c0-.59-.07-1-.15-.72-.06 0-.1.05-.13.2a20.65 20.65 0 0 0-.48-2.64c0 .19-.06.2-.1.16s0-.12-.07-.1-.12-.14-.14.12l.07.24c0 .44-.06.66-.14.74v-.69-1.2h-2.47c-5.94-.14-6.44 0-11.79-.14h.16l-14.06-.09h-1.2c-9-.08-17.64-.14-25.52-.13h-.29" fill="#0079c1"/><text transform="translate(10.32 507.02)" font-size="13.76" font-family="Veneer,Veneer" fill="#fff"><tspan class="cls-57">P</tspan><tspan x="5.49" y="0">aransimme ope</tspan><tspan x="79.89" y="0" letter-spacing=".02em">t</tspan><tspan class="cls-57" x="85.54" y="0">t</tspan><tspan x="90.37" y="0">ajien os</tspan><tspan x="131" y="0" letter-spacing="0">a</tspan><tspan x="136.89" y="0">amis</tspan><tspan x="159.5" y="0" letter-spacing="-.04em">t</tspan><tspan x="164.33" y="0">a </tspan><tspan x="172.9" y="0" letter-spacing="-.01em">j</tspan><tspan x="178.52" y="0">a </tspan><tspan x="0" y="15.48" letter-spacing=".01em">l</tspan><tspan x="5.23" y="15.48">asten </tspan><tspan class="cls-63" x="36.67" y="15.48">j</tspan><tspan x="42.28" y="15.48">a nuorten osallistumis</tspan><tspan class="cls-57" x="160.02" y="15.48">t</tspan><tspan x="164.85" y="15.48">a </tspan><tspan class="cls-63" x="0" y="30.96">k</tspan><tspan x="5.83" y="30.96">ou</tspan><tspan x="17.94" y="30.96" letter-spacing="-.02em">l</tspan><tspan x="22.76" y="30.96">uhallint</tspan><tspan x="66.28" y="30.96" letter-spacing=".01em">o</tspan><tspan x="72.29" y="30.96">on </tspan><tspan class="cls-19" x="87.28" y="30.96">170</tspan><tspan x="101.5" y="30.96"> </tspan><tspan class="cls-63" x="104.26" y="30.96">k</tspan><tspan x="110.09" y="30.96">ou</tspan><tspan x="122.2" y="30.96" letter-spacing="-.02em">l</tspan><tspan x="127.01" y="30.96">ussa.</tspan></text><path class="cls-19" d="M209.38 557.09a9.94 9.94 0 0 1 0 1.24c0-.89.24 1.48.46 3.83a18.14 18.14 0 0 1-.22 2.89v1.04c-.05-.44-.09-1.22-.1-2 0 .19 0 .37.06.53.09-.65 0-2.72 0-3.87-.1 0-.11.42-.16.38 0-.37-.07-.89-.09-1.41v-.79c0-.36 0-.76-.05-1.11a6.32 6.32 0 0 1 .06-.7M1.69 673.91c0 .89 0-1.68-.2-4 .09-1-.17-2.87 0-2.69v-.31l.06-.73c0 .44.08 1.22.1 2l-.06-.54c-.1.66-.06 2.73-.05 3.88.1 0 .12-.42.16-.38 0 .37.07.89.1 1.41v.79c0 .36 0 .76.05 1.11s-.07-.14-.07-.54M153.9 554.52q-18.26-.15-36.65-.23c-17.42.21-36.32 0-54.44.1l-23.5.14c-5.43 0-11 0-16.52-.06H1.18v24.36c.26.14 0-2.74.22-3.53v7.08c-.12 7.05-.33 14.14-.37 21.23-.03 1.73-.23 3.83-.32 4.62-.11 3 .14 1.8.1 4l-.26.31c.22 3.25-.29 4.76-.18 7.83a11.25 11.25 0 0 1 .11 2.37c-.28.06 0 3.36-.24 3.2v1.93c.1 1.25.86 13 1 14.22v.59c0 1.75.21 2.5.26 1.47v2.16-.25 2.15c0 .4-.15.84-.28.23a32.22 32.22 0 0 1 .11 3.8c.11-2.17.25-4.67.41-7.13 0 1.37 0 2.76.08 4.15-.11 1.92-.2 4.29-.29 6.28a9.82 9.82 0 0 1 .19 2.61c-.21.74 0 1.7-.14 2.95-.12-1.44-.07-2.84-.06-4.29-.25.25-.17 3.53-.24 4.68.08.54 0 3.35.07 5.11-.16-.51-.18.26-.21 1.14 0 .17 0 .35.05.54 0-.18 0-.35-.05-.52 0 .46.11 1 .07 1.31 0 1.18.08 1.9.16 1.41.06.09.44 5.7.45 5 0-.38.06-.41.1-.33s0 .25.08.21c.05.17.11.29.13-.24l-.07-.49a5.33 5.33 0 0 1 .14-1.52v3.86h2.47c5.93.29 6.43 0 11.78.29l-.16-.08 14 .18h1.2c9 .16 17.62.29 25.49.26h.29q18.24.15 36.64.23c17.43-.21 36.33 0 54.44-.1l23.51-.14c5.42 0 10.95 0 16.51.06h21.53V664.1v-10.79c-.26-.14 0 2.74-.22 3.53v-7.08c.13-7.05.34-14.14.37-21.23.08-1.72.23-3.82.32-4.61.11-3-.14-1.8-.1-4l.26-.3c-.21-3.26.3-4.76.19-7.83a11 11 0 0 1-.12-2.37c.28-.06 0-3.36.24-3.2v-1.93c-.09-1.25-.86-13-1-14.22v-.59c0-1.75-.22-2.5-.27-1.48v-2.15.24-2.14c0-.4.16-.85.28-.24a32 32 0 0 1-.1-3.79c-.11 2.17-.25 4.67-.41 7.12 0-1.37-.06-2.75-.09-4.15.11-1.91.21-4.28.29-6.27a9.86 9.86 0 0 1-.19-2.62c.21-.73 0-1.69.15-2.94.11 1.44.06 2.84.05 4.29.25-.25.17-3.54.24-4.68-.08-.54 0-3.35-.06-5.11.16.5.17-.26.2-1.14 0-.17 0-.35-.05-.54 0 .18 0 .35.05.52 0-.46 0-.95.08-1.31 0-1.18-.07-1.94-.15-1.46-.06-.09-.1.09-.13.41-.23-2.82-.47-6.06-.47-5.38 0 .38-.07.41-.11.32s0-.24-.07-.2c-.06-.17-.11-.29-.14.24l.07.48a5 5 0 0 1-.14 1.53v-3.86h-2.47c-5.94-.29-6.44 0-11.79-.29l.17.08-14-.18h-1.21c-9-.16-17.62-.29-25.49-.26h-.28"/><text class="cls-67" transform="translate(9.41 669.17)"><tspan class="cls-68">k</tspan><tspan x="6.78" y="0">ou</tspan><tspan class="cls-69" x="20.86" y="0">l</tspan><tspan x="26.46" y="0">u</tspan><tspan x="33.79" y="0" letter-spacing=".01em">l</tspan><tspan x="39.87" y="0" letter-spacing="0">aiselle</tspan></text><text class="cls-72" transform="translate(8.67 649.6)">19 000</text><text class="cls-72" transform="translate(114.04 650.4)">12 100</text><text class="cls-67" transform="translate(115.28 669.17)">aikuiselle</text><text class="cls-67" transform="translate(9.74 575.38)">Suom<tspan class="cls-68" x="30.1" y="0">e</tspan><tspan x="36.21" y="0">ssa Glob</tspan><tspan x="85.9" y="0" letter-spacing=".01em">a</tspan><tspan x="92.75" y="0">ali</tspan><tspan class="cls-68" x="108.94" y="0">k</tspan><tspan x="115.73" y="0">ou</tspan><tspan class="cls-74" x="129.81" y="0">l</tspan><tspan x="135.41" y="0">umme </tspan><tspan class="cls-75" x="0" y="18">t</tspan><tspan x="5.62" y="18">a</tspan><tspan class="cls-76" x="12.38" y="18">r</tspan><tspan x="19.18" y="18">josi opetus</tspan><tspan class="cls-75" x="86.14" y="18">t</tspan><tspan x="91.76" y="18">a glob</tspan><tspan x="128.27" y="18" letter-spacing="0">a</tspan><tspan x="135.12" y="18">alin </tspan><tspan class="cls-75" x="0" y="36">v</tspan><tspan x="6.08" y="36">astuun k</tspan><tspan class="cls-74" x="57.97" y="36">y</tspan><tspan class="cls-76" x="64.4" y="36">s</tspan><tspan x="70.75" y="36">ymy</tspan><tspan class="cls-69" x="93.68" y="36">k</tspan><tspan x="100.3" y="36">sis</tspan><tspan class="cls-75" x="116.99" y="36">t</tspan><tspan x="122.61" y="36">ä</tspan></text></svg>