<svg id="Layer_2" data-name="Layer 2" xmlns="http://www.w3.org/2000/svg" viewBox="0 0 900 700"><defs><style>.cls-1{fill:#74cee2;}</style></defs><title>Artboard 3</title><path class="cls-1" d="M21.85,2h8.82C24.05,2,41.33,1,58.24,0c7.35,0,22.05,0,20.95,1H48s2.94,0,2.94,1h-29M867.24,694c6.62,0-12.13,0-29,1-7.35,0-21,1-19.48,0H850s-2.94,0-2.94-1h20.21M3.47,186.47C2.74,227.35,2.37,267.24,2,309.12c1.47,57.83.37,120.65.74,181.48.36,25.92.73,51.85,1.1,78.77-.37,18-.37,36.9-.37,54.85V696H179.53c1.11-1-19.85,0-25.36-1h51.09c51.09,0,102.18,1,153.64,1,12.5,0,27.57,1,33.45,1h29l2.2,1c23.53-1,34.56,1,56.61,1h17.27c.37,1,24.26,0,23.16,1H535c9.18,0,93.72-3,102.91-3h4.41c12.5,0,18-1,10.66-1h29c2.94,0,6.25,1,1.84,1,8.82,0,18.74-1,27.57,0-15.81,0-33.82-1-51.46-1h30.14c14,0,30.87,1,45.21,1,4.78,0,8.08-1,19.11-1,5.15,1,12.13,0,21.32,0H744.84c1.84,1,25.73,1,33.82,1h37.12c-3.67,1,1.84,1,8.46,1h9.92c8.46,0,13.6,0,10.29-1,.74,0,41.17-1,36.39-1H891.5v-8c2.21-19.94.37-21.93,2.21-38.88l-.74,1c.37-15.95.74-30.91,1.47-46.86v-4c1.1-29.92,2.21-58.83,1.84-84.76v-1c.73-40.88,1.1-80.77,1.47-122.65-1.47-57.83-.37-120.65-.74-181.48-.36-25.92-.73-51.85-1.1-78.77.37-17.95.37-36.9.37-54.85V4H720.22c-1.11,1,19.85,0,25.36,1H694.49C643.4,5,592.31,4,540.85,4c-12.5,0-27.57-1-33.45-1h-29l-2.2-1c-23.53,1-34.55-1-56.61-1H402.28c-.37-1-24.26,0-23.16-1H364.78c-9.18,0-93.72,3-102.91,3h-4.41c-12.5,0-18,1-10.66,1h-29c-2.94,0-6.25-1-1.84-1-8.82,0-18.74,1-27.57,0,15.81,0,33.82,1,51.46,1H209.67c-14,0-30.87-1-45.21-1-4.78,0-8.08,1-19.11,1C140.2,3,133.22,4,124,4h30.88c-1.84-1-25.73-1-33.82-1H84.33C88,2,82.5,2,75.88,2H66C57.5,2,52,2,55.3,3h2.94C38,4,14.5,5,19.28,5H8.62v8C6.41,32.91,8.25,34.9,6.41,51.85l.74-1c-.37,16-.74,30.92-1.47,46.87v4c-1.47,28.92-2.58,57.83-2.21,84.76h0"/></svg>