<svg id="Layer_2" class="big-screen" data-name="Layer 2" xmlns="http://www.w3.org/2000/svg" viewBox="0 0 436.6 298.27"><defs><style>.cls-1{fill:#ec008c;}.cls-11,.cls-2,.cls-34,.cls-46,.cls-6{fill:#0079c1;}.cls-14,.cls-19,.cls-20,.cls-21,.cls-28,.cls-3,.cls-61,.cls-66{fill:#74cee2;}.cls-4{fill:none;}.cls-11,.cls-5,.cls-6{isolation:isolate;}.cls-6{font-size:24.8px;}.cls-11,.cls-12,.cls-18,.cls-26,.cls-34,.cls-45,.cls-49,.cls-6,.cls-61,.cls-66{font-family:"veneerregular";}.cls-7{letter-spacing:0.01em;}.cls-8{letter-spacing:-0.02em;}.cls-12,.cls-15,.cls-18,.cls-26,.cls-37,.cls-45,.cls-49,.cls-62,.cls-63,.cls-64,.cls-65,.cls-9{fill:#fff;}.cls-9{font-size:59.67px;}.cls-10{letter-spacing:0.01em;}.cls-11{font-size:15.5px;}.cls-12{font-size:26.4px;}.cls-13,.cls-15{font-size:24px;}.cls-14{font-size:37px;}.cls-16{font-size:22.8px;}.cls-17{letter-spacing:0.01em;}.cls-18,.cls-66{font-size:16px;}.cls-19,.cls-20,.cls-21,.cls-61{font-size:19px;}.cls-20,.cls-62{letter-spacing:0.02em;}.cls-21,.cls-63{letter-spacing:0em;}.cls-22{letter-spacing:-0.04em;}.cls-23{letter-spacing:0em;}.cls-24{letter-spacing:-0.04em;}.cls-25{letter-spacing:-0.05em;}.cls-26{font-size:18px;}.cls-27{letter-spacing:-0.04em;}.cls-28{letter-spacing:0.02em;}.cls-29{letter-spacing:0em;}.cls-30{letter-spacing:-0.05em;}.cls-31{letter-spacing:-0.04em;}.cls-32{letter-spacing:0em;}.cls-33{letter-spacing:-0.01em;}.cls-34,.cls-45,.cls-64,.cls-65{font-size:15px;}.cls-35{letter-spacing:0.01em;}.cls-36{letter-spacing:-0.02em;}.cls-38,.cls-46{letter-spacing:-0.04em;}.cls-39{letter-spacing:-0.04em;}.cls-40{letter-spacing:0.02em;}.cls-41{letter-spacing:-0.04em;}.cls-42{letter-spacing:-0.05em;}.cls-43{letter-spacing:0.02em;}.cls-44{letter-spacing:0em;}.cls-47{letter-spacing:-0.01em;}.cls-48{letter-spacing:0.01em;}.cls-49{font-size:12px;}.cls-50{letter-spacing:0.01em;}.cls-51{letter-spacing:-0.02em;}.cls-52{letter-spacing:-0.01em;}.cls-53{letter-spacing:-0.04em;}.cls-54{letter-spacing:-0.01em;}.cls-55{letter-spacing:0em;}.cls-56{letter-spacing:-0.01em;}.cls-57{letter-spacing:-0.02em;}.cls-58{letter-spacing:0.01em;}.cls-59{letter-spacing:0.01em;}.cls-60{letter-spacing:0em;}.cls-67{letter-spacing:0.01em;}.cls-68{letter-spacing:0em;}.cls-69{letter-spacing:-0.01em;}.cls-70{letter-spacing:-0.02em;}</style></defs><title>Artboard 1_1</title><path class="cls-1" d="M6.53,219.6H8.66c-1.59,0,2.57.07,6.65.15,1.78,0,5.32,0,5.06-.08H12.83s.71,0,.71-.07h-7m204-52.18c1.59,0-2.93,0-7-.07-1.77,0-5-.08-4.7,0h7.54s-.71,0-.71.07h4.88M2.1,205.69c-.18-3.08-.27-6.09-.35-9.25.35-4.36.08-9.1.17-13.68.09-2,.18-3.91.27-5.94-.09-1.35-.09-2.78-.09-4.14v-5.41H44.58c.26.08-4.79,0-6.12.08H50.78c12.33,0,24.65-.08,37.07-.08,3,0,6.65-.08,8.07-.08h7l.54-.07c5.67.07,8.33-.08,13.65-.08h4.17c.09-.07,5.85,0,5.59-.07h3.45c2.22,0,22.62.22,24.83.22h1.07c3,0,4.34.08,2.57.08h7c.71,0,1.51-.08.45-.08,2.13,0,4.52.08,6.65,0-3.81,0-8.16.08-12.42.08h7.27c3.37,0,7.45-.08,10.91-.08,1.15,0,1.95.08,4.61.08,1.24-.08,2.93,0,5.15,0H181c.44-.08,6.2-.08,8.16-.08h8.95c-.89-.07.45-.07,2-.07h2.4c2,0,3.28,0,2.48.07.18,0,9.93.08,8.78.08h2.57v.6c.53,1.51.09,1.66.53,2.93l-.18-.07c.09,1.2.18,2.33.36,3.53v.3a41.71,41.71,0,0,1,.44,6.39V181c.18,3.08.27,6.09.36,9.25-.36,4.36-.09,9.09-.18,13.68-.09,2-.18,3.91-.27,5.94.09,1.35.09,2.78.09,4.14v5.41H175c-.27-.08,4.78,0,6.11-.08H168.81c-12.33,0-24.65.08-37.07.08-3,0-6.65.07-8.07.07h-7l-.53.08c-5.68-.08-8.34.07-13.66.07H98.31c-.09.08-5.85,0-5.58.08H89.27c-2.22,0-22.61-.23-24.83-.23H63.37c-3,0-4.34-.07-2.57-.07h-7c-.71,0-1.51.07-.45.07-2.12,0-4.52-.07-6.65,0,3.82,0,8.16-.07,12.42-.07H51.85c-3.37,0-7.45.07-10.91.07-1.15,0-1.95-.07-4.61-.07-1.24.07-2.93,0-5.14,0h7.44c-.44.07-6.2.07-8.15.07H21.61c.89.08-.44.08-2,.08H17.18c-2,0-3.37,0-2.58-.08h.71c-4.87-.07-10.55-.15-9.4-.15H3.34v-.6c-.53-1.5-.09-1.65-.53-2.93l.18.08c-.09-1.21-.18-2.34-.36-3.54v-.3a32.23,32.23,0,0,1-.53-6.39h0"/><path class="cls-2" d="M319.38,3.19v1a23.45,23.45,0,0,1,.21,3.14c0,.86,0,2.57-.1,2.28v.86c0-.43-.06-1-.06-1.71a1.09,1.09,0,0,0,.06.43c.05-.58,0-2.29,0-3.15-.06,0-.06.29-.06.29,0-.29-.05-.72-.05-1.14V3.61a.61.61,0,0,1,0-.42M226.52,98.61c0,.71,0-1.43-.1-3.29.05-.86,0-2.28,0-2.14v-.86c0,.43.05,1,.05,1.72a1.24,1.24,0,0,0-.05-.43c0,.57,0,2.28,0,3.14.05,0,.05-.29.05-.29,0,.29.05.72.05,1.15v1M294.59,1C289.14.9,283.69.9,278.19.9,270.41,1,262,.9,253.86,1c-3.42,0-7,.15-10.53.15h-17v20c.11.15,0-2.28.11-2.85V24c0,5.72-.16,11.57-.16,17.29,0,1.42-.1,3.14-.15,3.71-.05,2.43,0,1.43,0,3.29l-.1.28c.1,2.72-.16,3.86-.11,6.43a16.75,16.75,0,0,1,.05,2c-.1,0,0,2.71-.1,2.57h0v1.57c0,1,.36,10.57.41,11.57v.43c0,1.43.11,2,.11,1.14v3.29c0,.28,0,.71-.11.14.06,1,.06,2.14.06,3.14,0-1.71.1-3.85.2-5.85,0,1.14,0,2.28.06,3.43-.06,1.57-.11,3.42-.16,5.14a15.45,15.45,0,0,1,.1,2.14c-.1.57,0,1.43,0,2.43-.05-1.14-.05-2.29,0-3.57-.1.14-.05,2.86-.1,3.86.05.42,0,2.71.05,4.14-.05-.43-.1.28-.1,1v0c0,.43,0,.71,0,1,0,1,.05,1.57.05,1.14.05,0,.21,4.71.21,4.14,0-.28,0-.28,0-.28s0,.14.05.14.05.29.05-.14l-.05-.43c0-.72.05-1.14.05-1.29V101h1.09c2.65.28,2.86,0,5.29.28h-.05c2.08,0,4.2.14,6.28.14H240c4,.15,7.88.29,11.41.15h.11c5.44.14,10.89.14,16.39.14,7.78-.14,16.24,0,24.33-.14,3.42,0,7-.15,10.53-.15h17v-20c-.11-.15,0,2.28-.11,2.85V78.61c.05-5.72.16-11.57.16-17.29.05-1.42.1-3.14.15-3.71.06-2.43-.05-1.43-.05-3.29L320,54c-.11-2.71.15-3.86.1-6.43a16.75,16.75,0,0,1-.05-2c.1,0,0-2.71.1-2.57h0V41.47c-.05-1-.36-10.57-.41-11.57v-.43c0-1.43-.11-2-.11-1.14V25c0-.28.05-.71.11-.14-.06-1-.06-2.14-.06-3.14-.05,1.71-.1,3.85-.2,5.85,0-1.14-.05-2.28-.05-3.43.05-1.57.1-3.42.15-5.14a17.3,17.3,0,0,1-.1-2.14c.1-.57,0-1.43.05-2.43,0,1.14,0,2.29,0,3.57.1-.14,0-2.86.1-3.86-.05-.42,0-2.71-.05-4.14.05.43.1-.28.1-1V9a4.86,4.86,0,0,1,.06-1c0-1-.06-1.57-.06-1.14-.05,0-.05.14-.05.29-.15-2.29-.26-4.86-.26-4.43s-.05.28-.05.28,0-.14-.05-.14,0-.29,0,.14l0,.43c0,.72,0,1.14,0,1.29V1.61h-1.09c-2.65-.28-2.86,0-5.29-.28h0c-2.08,0-4.2-.14-6.28-.14h-.52c-4-.15-7.88-.29-11.41-.15h-.1"/><path class="cls-3" d="M7-.1H9.12c-1.6,0,2.57-.09,6.65-.18,1.77,0,5.32,0,5.05.09H13.28S14-.19,14-.1H7m204,63.71c1.6,0-2.93,0-7,.09-1.77,0-5.05.09-4.7,0h7.54s-.71,0-.71-.09h4.88M2.55,16.88c-.17,3.77-.26,7.44-.35,11.29.35,5.33.09,11.11.18,16.71.09,2.39.17,4.77.26,7.25-.09,1.65-.09,3.4-.09,5v6.61H45c.27-.09-4.79,0-6.12-.09H51.24c12.32,0,24.65.09,37.06.09,3,0,6.65.09,8.07.09h7l.53.09c5.67-.09,8.34.09,13.66.09h4.16c.09.1,5.86,0,5.59.1h3.46c2.21,0,22.61-.28,24.83-.28h1.06c3,0,4.35-.09,2.57-.09h7c.71,0,1.51.09.44.09,2.13,0,4.52-.09,6.65,0-3.81,0-8.16-.09-12.41-.09h7.27c3.37,0,7.45.09,10.91.09,1.15,0,1.95-.09,4.61-.09,1.24.09,2.92,0,5.14,0h-7.45c.44.09,6.21.09,8.16.09h9c-.89.09.44.09,2,.09H203c2,0,3.28,0,2.48-.09.18,0,9.93-.09,8.78-.09h2.57v-.73c.53-1.84.09-2,.53-3.58l-.17.09c.09-1.47.17-2.85.35-4.32v-.36a62.14,62.14,0,0,0,.45-7.81V47c.17-3.76.26-7.43.35-11.29-.35-5.32-.09-11.11-.18-16.71-.09-2.38-.17-4.77-.26-7.25.09-1.65.09-3.39.09-5V.09H175.47c-.27.09,4.79,0,6.12.09H169.26C156.94.18,144.61.09,132.2.09c-3,0-6.65-.1-8.07-.1h-7l-.53-.09c-5.67.09-8.34-.09-13.66-.09H98.77c-.09-.09-5.86,0-5.59-.09H89.72C87.5-.28,67.11,0,64.89,0H63.83c-3,0-4.35.1-2.57.1h-7c-.71,0-1.51-.1-.44-.1-2.13,0-4.52.1-6.65,0,3.81,0,8.16.1,12.41.1H52.3C48.93.09,44.85,0,41.39,0c-1.15,0-2,.1-4.61.1-1.24-.1-2.92,0-5.14,0h7.45C38.65,0,32.88,0,30.93,0H22.06C23-.1,21.62-.1,20-.1H17.63c-2,0-3.37,0-2.57.09h.71c-4.88.1-10.56.19-9.4.19H3.8V.91c-.54,1.84-.09,2-.54,3.58l.18-.09c-.09,1.47-.18,2.84-.35,4.31v.37a47.84,47.84,0,0,0-.54,7.8h0"/><rect class="cls-4" x="238.6" y="8.8" width="154" height="50.4"/><rect class="cls-4" x="12.8" y="16.2" width="226" height="48.7"/><g class="cls-5"><text class="cls-6" transform="translate(11.94 31.16)"><tspan class="cls-7">T</tspan><tspan class="cls-8" x="9.95" y="0">y</tspan><tspan x="20.04" y="0">öskentelimme </tspan><tspan class="cls-9" x="150.72" y="24.78">75</tspan><tspan x="195.23" y="0"> </tspan><tspan x="0" y="25.17">m</tspan><tspan class="cls-10" x="14.61" y="25.17">a</tspan><tspan x="25.22" y="25.17">assa </tspan></text><text class="cls-11" transform="translate(204.8 31.16)"> </text></g><text class="cls-12" transform="translate(236.86 29.71)">Tuimme<tspan class="cls-13" x="69.64" y="0"> </tspan><tspan class="cls-14"><tspan x="0" y="34">53 311</tspan><tspan class="cls-15" x="71.19" y="34"> </tspan></tspan><tspan class="cls-16"><tspan x="0" y="60">yhtei</tspan><tspan class="cls-17" x="43.07" y="60">s</tspan><tspan x="52.69" y="60">öä</tspan></tspan></text><text class="cls-18" transform="translate(14.79 190.39)">Tuimme <tspan class="cls-19" x="45.41" y="0">12,5 milj</tspan><tspan class="cls-20" x="103.43" y="0">o</tspan><tspan class="cls-19" x="111.73" y="0">on</tspan><tspan class="cls-21" x="128.63" y="0">a</tspan><tspan class="cls-19" x="136.76" y="0">a</tspan><tspan x="144.79" y="0" xml:space="preserve"> ihmis</tspan><tspan class="cls-22" x="178.46" y="0">t</tspan><tspan class="cls-23" x="184.07" y="0">ä </tspan><tspan class="cls-24" x="0" y="19.2">v</tspan><tspan x="6.08" y="19.2">arhaiskas</tspan><tspan class="cls-22" x="64.5" y="19.2">v</tspan><tspan class="cls-25" x="70.57" y="19.2">a</tspan><tspan x="76.62" y="19.2">tushankkeissamme</tspan></text><path class="cls-2" d="M5.79,297.55H7.92c-1.6,0,2.57.1,6.65.2,1.77,0,5.32,0,5.05-.1H12.08s.71,0,.71-.1h-7m204-69.83c1.6,0-2.93,0-7-.1-1.77,0-5-.1-4.7,0h7.54s-.71,0-.71.1h4.88M1.35,278.93c-.17-4.12-.26-8.15-.35-12.37.35-5.84.09-12.18.18-18.31.09-2.62.17-5.24.26-7.95-.09-1.81-.09-3.73-.09-5.54v-7.24H43.83c.27.1-4.79,0-6.12.1H50c12.32,0,24.65-.1,37.06-.1,3,0,6.65-.1,8.07-.1h7l.53-.1c5.67.1,8.34-.1,13.66-.1h4.16c.09-.1,5.86,0,5.59-.1h3.46c2.22,0,22.61.3,24.83.3h1.06c3,0,4.35.1,2.57.1h7c.71,0,1.51-.1.44-.1,2.13,0,4.52.1,6.65,0-3.81,0-8.16.1-12.41.1H167c3.37,0,7.45-.1,10.91-.1,1.15,0,2,.1,4.61.1,1.24-.1,2.92,0,5.14,0h-7.45c.44-.1,6.21-.1,8.16-.1h9c-.89-.1.44-.1,2-.1h2.39c2,0,3.28,0,2.48.1.18,0,9.93.1,8.78.1h2.57v.8c.53,2,.09,2.22.53,3.93l-.17-.1c.09,1.61.17,3.12.35,4.73v.4a74.35,74.35,0,0,1,.45,8.55v.1c.17,4.13.26,8.15.35,12.38-.35,5.83-.09,12.17-.18,18.31-.09,2.62-.17,5.23-.26,7.95.09,1.81.09,3.72.09,5.53v7.25H174.27c-.27-.1,4.79,0,6.12-.1H168.06c-12.32,0-24.65.1-37.06.1-3,0-6.65.1-8.07.1h-7l-.53.1c-5.67-.1-8.34.1-13.66.1H97.57c-.09.1-5.86,0-5.59.1H88.52c-2.21,0-22.61-.3-24.83-.3H62.63c-3,0-4.35-.1-2.57-.1h-7c-.71,0-1.51.1-.44.1-2.13,0-4.52-.1-6.65,0,3.81,0,8.16-.1,12.41-.1H51.1c-3.37,0-7.45.1-10.91.1-1.15,0-1.95-.1-4.61-.1-1.24.1-2.92,0-5.14,0h7.45c-.44.1-6.21.1-8.16.1H20.86c.89.1-.44.1-2,.1H16.43c-2,0-3.37,0-2.57-.1h.71c-4.88-.1-10.56-.2-9.4-.2H2.6v-.81c-.54-2-.09-2.21-.54-3.92l.18.1c-.09-1.61-.18-3.12-.35-4.73v-.4a57.55,57.55,0,0,1-.54-8.56h0"/><text class="cls-26" transform="translate(14.05 249.81)"><tspan class="cls-27">P</tspan><tspan x="7.18" y="0">aransimme </tspan><tspan class="cls-3" x="81.95" y="0">6,4 milj</tspan><tspan class="cls-28" x="132.06" y="0">o</tspan><tspan class="cls-3" x="139.93" y="0">onan</tspan><tspan x="171.95" y="0"> </tspan><tspan x="0" y="19">ihmisen sani</tspan><tspan class="cls-27" x="80.71" y="19">t</tspan><tspan class="cls-29" x="87.03" y="19">a</tspan><tspan class="cls-30" x="94.73" y="19">a</tspan><tspan x="101.54" y="19">tio</tspan><tspan class="cls-31" x="120.11" y="19">t</tspan><tspan class="cls-32" x="126.43" y="19">a </tspan><tspan class="cls-33" x="137.64" y="19">j</tspan><tspan x="144.99" y="19">a </tspan><tspan x="0" y="38">puh</tspan><tspan class="cls-27" x="24.52" y="38">t</tspan><tspan class="cls-29" x="30.83" y="38">a</tspan><tspan x="38.54" y="38">an veden s</tspan><tspan class="cls-29" x="107.17" y="38">a</tspan><tspan x="114.87" y="38">antia</tspan></text><path class="cls-3" d="M230.44,161.1h2.07c-1.55,0,2.5.07,6.46.15,1.72,0,5.16,0,4.9-.08h-7.31s.69,0,.69-.07h-6.81m198-52.18c1.55,0-2.84,0-6.8-.07-1.72,0-4.9-.08-4.56,0h7.32s-.69,0-.69.07h4.73M226.14,147.19c-.17-3.08-.26-6.09-.34-9.25.34-4.36.08-9.1.17-13.68.08-2,.17-3.91.26-5.94-.09-1.35-.09-2.78-.09-4.14v-5.41h41.24c.26.08-4.65,0-5.94.08h12c12,0,23.94-.08,36-.08,2.93,0,6.46-.08,7.83-.08H324l.51-.07c5.51.07,8.09-.08,13.26-.08h4.05c.08-.07,5.68,0,5.42-.07h3.36c2.15,0,21.95.22,24.1.22h1c2.92,0,4.22.08,2.49.08h6.8c.69,0,1.47-.08.43-.08,2.07,0,4.4.08,6.46,0-3.7,0-7.92.08-12.05.08H387c3.27,0,7.23-.08,10.59-.08,1.12,0,1.89.08,4.47.08,1.21-.08,2.85,0,5,0h-7.23c.43-.08,6-.08,7.92-.08h8.69c-.86-.07.43-.07,2-.07h2.33c2,0,3.18,0,2.41.07.17,0,9.64.08,8.52.08h2.5v.6c.51,1.51.08,1.66.51,2.93l-.17-.07c.09,1.2.17,2.33.35,3.53v.3a44.32,44.32,0,0,1,.43,6.39v.08c.17,3.08.25,6.09.34,9.25-.34,4.36-.09,9.09-.17,13.68-.09,2-.17,3.91-.26,5.94.09,1.35.09,2.78.09,4.14V161H394c-.26-.08,4.65,0,5.94-.08H388c-12,0-23.93.08-36,.08-2.93,0-6.46.07-7.84.07h-6.8l-.52.08c-5.51-.08-8.09.07-13.25.07h-4.05c-.09.08-5.68,0-5.42.08h-3.36c-2.15,0-22-.23-24.11-.23h-1c-2.93,0-4.22-.07-2.5-.07h-6.8c-.69,0-1.46.07-.43.07-2.07,0-4.39-.07-6.46,0,3.71,0,7.92-.07,12.06-.07h-7.06c-3.27,0-7.23.07-10.59.07-1.12,0-1.9-.07-4.48-.07-1.2.07-2.84,0-5,0h7.23c-.43.07-6,.07-7.92.07h-8.61c.86.08-.43.08-2,.08h-2.32c-2,0-3.28,0-2.5-.08H239c-4.74-.07-10.25-.15-9.13-.15h-2.49v-.6c-.52-1.5-.09-1.65-.52-2.93l.17.08c-.08-1.21-.17-2.34-.34-3.54v-.3a32.2,32.2,0,0,1-.52-6.39h0"/><text class="cls-34" transform="translate(238.84 131.99)"><tspan class="cls-35">L</tspan><tspan x="5.7" y="0">astensuoje</tspan><tspan class="cls-36" x="68.5" y="0">l</tspan><tspan x="73.75" y="0">uhankkeemme</tspan><tspan class="cls-37" x="149.28" y="0"> </tspan><tspan class="cls-37"><tspan class="cls-38" x="0" y="17">t</tspan><tspan class="cls-39" x="5.26" y="17">a</tspan><tspan x="10.93" y="17">voi</tspan><tspan class="cls-40" x="26.85" y="17">t</tspan><tspan x="33.01" y="17">ti</tspan><tspan class="cls-41" x="42.16" y="17">v</tspan><tspan class="cls-42" x="47.86" y="17">a</tspan><tspan x="53.53" y="17">t 6,6 milj</tspan><tspan class="cls-43" x="104.28" y="17">o</tspan><tspan x="110.83" y="17">on</tspan><tspan class="cls-44" x="124.17" y="17">a</tspan><tspan x="130.59" y="17">a ihmis</tspan><tspan class="cls-41" x="168.49" y="17">t</tspan><tspan x="173.76" y="17">ä</tspan></tspan></text><path class="cls-3" d="M230.19,168.73h2.07c-1.55,0,2.5-.08,6.46-.16,1.72,0,5.16,0,4.9.08h-7.31s.68,0,.68.08h-6.8m198,53.93c1.55,0-2.84,0-6.8.08-1.72,0-4.91.07-4.56,0h7.32s-.69,0-.69-.08h4.73M225.89,183.1c-.17,3.19-.26,6.3-.35,9.56.35,4.51.09,9.4.18,14.14.08,2,.17,4,.25,6.14-.08,1.4-.08,2.88-.08,4.28v5.59h41.24c.25-.07-4.65,0-5.94-.07h12c12,0,23.94.07,36,.07,2.93,0,6.46.08,7.83.08h6.8l.52.08c5.51-.08,8.09.08,13.26.08h4.05c.08.07,5.68,0,5.42.07h3.36c2.15,0,21.95-.23,24.1-.23h1c2.92,0,4.21-.08,2.49-.08h6.8c.69,0,1.47.08.43.08,2.07,0,4.39-.08,6.46,0-3.7,0-7.92-.08-12.05-.08h7.06c3.27,0,7.23.08,10.59.08,1.12,0,1.89-.08,4.47-.08,1.21.08,2.84,0,5,0h-7.24c.44.08,6,.08,7.93.08h8.69c-.86.08.43.08,2,.08h2.32c2,0,3.19,0,2.42-.08.17,0,9.64-.08,8.52-.08h2.5v-.62c.51-1.55.08-1.71.51-3l-.17.08c.09-1.25.17-2.41.34-3.65v-.32a44.31,44.31,0,0,0,.43-6.6v-.08c.18-3.18.26-6.29.35-9.56-.35-4.5-.09-9.4-.17-14.14-.09-2-.18-4-.26-6.14.08-1.4.08-2.87.08-4.27v-5.6H393.77c-.26.08,4.65,0,5.94.08h-12c-12,0-23.93-.08-36-.08-2.92,0-6.45-.08-7.83-.08h-6.8l-.52-.07c-5.51.07-8.09-.08-13.26-.08h-4c-.09-.08-5.68,0-5.43-.08h-3.35c-2.16,0-22,.23-24.11.23h-1c-2.93,0-4.22.08-2.5.08h-6.8c-.69,0-1.46-.08-.43-.08-2.07,0-4.39.08-6.46,0,3.7,0,7.92.08,12.06.08h-7.06c-3.28,0-7.24-.08-10.59-.08-1.12,0-1.9.08-4.48.08-1.21-.08-2.84,0-5,0h7.23c-.43-.08-6-.08-7.92-.08h-8.61c.86-.07-.43-.07-2-.07h-2.33c-2,0-3.27,0-2.49.07h.69c-4.74.08-10.25.16-9.13.16h-2.5v.62c-.51,1.55-.08,1.71-.51,3l.17-.08c-.09,1.25-.17,2.41-.34,3.66v.31a34.29,34.29,0,0,0-.52,6.6h0"/><text class="cls-45" transform="translate(238.59 192.31)">1,8 milj<tspan class="cls-43" x="39.69" y="0">o</tspan><tspan x="46.24" y="0">on</tspan><tspan class="cls-44" x="59.58" y="0">a</tspan><tspan x="66" y="0">a</tspan><tspan class="cls-2" x="72.34" y="0" xml:space="preserve"> ihmis</tspan><tspan class="cls-46" x="103.9" y="0">t</tspan><tspan class="cls-2" x="109.17" y="0">ä osallistui </tspan><tspan class="cls-2"><tspan class="cls-38" x="0" y="17">t</tspan><tspan x="5.26" y="17">alous- </tspan><tspan class="cls-47" x="44.32" y="17">j</tspan><tspan x="50.44" y="17">a s</tspan><tspan class="cls-48" x="65.97" y="17">ä</tspan><tspan x="72.39" y="17">ästöhankkeisiimme</tspan></tspan></text><path class="cls-2" d="M5.79,69.89H7.92c-1.6,0,2.57-.13,6.65-.25a45.92,45.92,0,0,1,5.05.12H12.08s.71,0,.71.13h-7m204,90.07c1.6,0-2.93,0-7,.13-1.77,0-5,.13-4.7,0h7.54s-.71,0-.71-.13h4.88M1.35,93.9c-.17,5.33-.26,10.52-.35,16,.35,7.53.09,15.7.18,23.62.09,3.37.17,6.75.26,10.25-.09,2.34-.09,4.8-.09,7.14v9.34H43.83c.27-.13-4.79,0-6.12-.13H50c12.32,0,24.65.13,37.06.13,3,0,6.65.13,8.07.13h7l.53.13c5.67-.13,8.34.13,13.66.13h4.16c.09.13,5.86,0,5.59.13h3.46c2.22,0,22.61-.39,24.83-.39h1.06c3,0,4.35-.13,2.57-.13h7c.71,0,1.51.13.44.13,2.13,0,4.52-.13,6.65,0-3.81,0-8.16-.13-12.41-.13H167c3.37,0,7.45.13,10.91.13,1.15,0,2-.13,4.61-.13,1.24.13,2.92,0,5.14,0h-7.45c.44.13,6.21.13,8.16.13h9c-.89.13.44.13,2,.13h2.39c2,0,3.28,0,2.48-.13.18,0,9.93-.13,8.78-.13h2.57v-1c.53-2.6.09-2.86.53-5.07l-.17.13c.09-2.07.17-4,.35-6.1v-.52c.27-3.89.53-7.65.45-11v-.13c.17-5.32.26-10.51.35-16-.35-7.53-.09-15.7-.18-23.62-.09-3.37-.17-6.75-.26-10.25.09-2.34.09-4.81.09-7.14V70.15H174.27c-.27.13,4.79,0,6.12.13H168.06c-12.32,0-24.65-.13-37.06-.13-3,0-6.65-.13-8.07-.13h-7l-.53-.13c-5.67.13-8.34-.13-13.66-.13H97.57c-.09-.12-5.86,0-5.59-.12H88.52c-2.21,0-22.61.38-24.83.38H62.63c-3,0-4.35.13-2.57.13h-7c-.71,0-1.51-.13-.44-.13-2.13,0-4.52.13-6.65,0,3.81,0,8.16.13,12.41.13H51.1c-3.37,0-7.45-.13-10.91-.13-1.15,0-1.95.13-4.61.13-1.24-.13-2.92,0-5.14,0h7.45C37.45,70,31.68,70,29.73,70H20.86c.89-.13-.44-.13-2-.13H16.43c-2,0-3.37,0-2.57.13h.71c-4.88.13-10.56.26-9.4.26H2.6v1c-.54,2.6-.09,2.86-.54,5.06l.18-.13c-.09,2.08-.18,4-.35,6.1v.52a95.41,95.41,0,0,0-.54,11h0"/><text class="cls-49" transform="translate(9.16 87.2)"><tspan class="cls-50">T</tspan><tspan class="cls-51" x="4.81" y="0">y</tspan><tspan x="9.7" y="0">öskentelimme yhd</tspan><tspan class="cls-52" x="88.85" y="0">e</tspan><tspan x="93.43" y="0">ssä </tspan><tspan class="cls-3" x="110.79" y="0">47 632</tspan><tspan x="136.45" y="0"> </tspan><tspan class="cls-53" x="0" y="13">p</tspan><tspan x="4.79" y="13">aikallis</tspan><tspan class="cls-54" x="39.23" y="13">j</tspan><tspan class="cls-55" x="44.12" y="13">ä</tspan><tspan class="cls-56" x="49.2" y="13">r</tspan><tspan x="54.3" y="13">j</tspan><tspan class="cls-52" x="59.31" y="13">e</tspan><tspan x="63.9" y="13">stön, </tspan><tspan class="cls-3" x="88.86" y="13">1 997</tspan><tspan x="108.24" y="13" xml:space="preserve"> a</tspan><tspan class="cls-57" x="115.71" y="13">l</tspan><tspan x="119.91" y="13">ue- </tspan><tspan class="cls-53" x="136.34" y="13">t</tspan><tspan x="140.55" y="13">ai </tspan><tspan x="0" y="26">kansallisen </tspan><tspan class="cls-52" x="55.07" y="26">j</tspan><tspan x="59.96" y="26">ä</tspan><tspan class="cls-56" x="65.04" y="26">r</tspan><tspan x="70.14" y="26">j</tspan><tspan class="cls-52" x="75.15" y="26">e</tspan><tspan x="79.74" y="26">stön, </tspan><tspan class="cls-3" x="104.7" y="26">2 900</tspan><tspan x="126.44" y="26"> </tspan><tspan x="0" y="39">hallinto-organis</tspan><tspan class="cls-58" x="75.21" y="39">a</tspan><tspan class="cls-30" x="80.35" y="39">a</tspan><tspan x="84.89" y="39">tion, </tspan><tspan class="cls-3" x="107.53" y="39">638</tspan><tspan x="121.69" y="39" xml:space="preserve"> kansain</tspan><tspan class="cls-53" x="158.23" y="39">v</tspan><tspan x="162.79" y="39">älisen </tspan><tspan class="cls-52" x="0" y="52">j</tspan><tspan x="4.9" y="52">ä</tspan><tspan class="cls-56" x="9.97" y="52">r</tspan><tspan x="15.07" y="52">j</tspan><tspan class="cls-52" x="20.09" y="52">e</tspan><tspan x="24.67" y="52">stön </tspan><tspan class="cls-53" x="47.38" y="52">t</tspan><tspan x="51.59" y="52">ai instituution sekä </tspan><tspan class="cls-3" x="140.59" y="52">433</tspan><tspan x="154.68" y="52"> </tspan><tspan x="0" y="65">y</tspan><tspan class="cls-57" x="5.06" y="65">k</tspan><tspan x="10.03" y="65">si</tspan><tspan class="cls-59" x="17.6" y="65">t</tspan><tspan x="22.42" y="65">yisen </tspan><tspan class="cls-53" x="47.76" y="65">t</tspan><tspan class="cls-60" x="51.97" y="65">ai yri</tspan><tspan class="cls-50" x="75.05" y="65">t</tspan><tspan class="cls-57" x="79.86" y="65">y</tspan><tspan x="84.68" y="65">skump</tspan><tspan class="cls-53" x="112.67" y="65">p</tspan><tspan x="117.45" y="65">anin kanssa.</tspan></text><path class="cls-1" d="M429.91,230.64h-2.05c1.54,0-2.49-.1-6.44-.2-1.71,0-5.14,0-4.89.1h7.29s-.68,0-.68.1h6.77m-197.25,67c-1.54,0,2.83,0,6.78.1,1.71,0,4.89.1,4.54,0h-7.29s.69,0,.69-.1h-4.72M434.2,248.51c.17,4,.26,7.82.34,11.88-.34,5.6-.08,11.69-.17,17.58-.08,2.51-.17,5-.25,7.63.08,1.74.08,3.57.08,5.31v7H393.12c-.26-.1,4.63,0,5.92-.1H387.12c-11.92,0-23.84.1-35.85.1-2.92,0-6.43.09-7.8.09h-6.78l-.51.1c-5.49-.1-8.07.1-13.21.1h-4c-.09.09-5.66,0-5.4.09h-3.35c-2.14,0-21.87-.29-24-.29h-1c-2.92,0-4.2-.09-2.49-.09h-6.77c-.69,0-1.46.09-.43.09-2.06,0-4.38-.09-6.43,0,3.68,0,7.89-.09,12-.09h-7c-3.26,0-7.2.09-10.55.09-1.11,0-1.89-.09-4.46-.09-1.2.09-2.83,0-5,0h7.2c-.43.09-6,.09-7.89.09h-8.66c.86.1-.43.1-2,.1h-2.32c-2,0-3.17,0-2.4-.1-.17,0-9.61-.09-8.49-.09H227v-.78c-.51-1.93-.08-2.12-.51-3.76l.17.09c-.09-1.54-.17-3-.34-4.54v-.38a68.42,68.42,0,0,1-.43-8.21v-.1c-.17-4-.26-7.82-.35-11.88.35-5.6.09-11.69.18-17.58.08-2.51.17-5,.25-7.63-.08-1.74-.08-3.58-.08-5.31v-7H267c.25.1-4.63,0-5.92.1H273c11.92,0,23.84-.1,35.85-.1,2.91,0,6.43-.1,7.8-.1h6.78l.51-.09c5.49.09,8.06-.1,13.21-.1h4c.09-.1,5.66,0,5.4-.1h3.35c2.14,0,21.87.29,24,.29h1c2.92,0,4.2.1,2.49.1h6.77c.69,0,1.46-.1.43-.1,2.06,0,4.38.1,6.43,0-3.68,0-7.89.1-12,.1h7c3.26,0,7.2-.1,10.55-.1,1.11,0,1.88.1,4.46.1,1.2-.1,2.83,0,5,0h-7.2c.43-.1,6-.1,7.89-.1h8.57c-.85-.09.43-.09,2-.09h2.31c2,0,3.26,0,2.49.09h-.69c4.72.1,10.21.2,9.09.2H433v.77c.52,1.93.09,2.12.52,3.77l-.18-.1c.09,1.55.18,3,.35,4.54v.39a54.09,54.09,0,0,1,.51,8.21h0"/><text class="cls-61" transform="translate(234.59 255.08)">Tuimme<tspan class="cls-37" x="50.12" y="0" xml:space="preserve"> 2,1 milj</tspan><tspan class="cls-62" x="104.42" y="0">o</tspan><tspan class="cls-37" x="112.72" y="0">on</tspan><tspan class="cls-63" x="129.62" y="0">a</tspan><tspan class="cls-37" x="137.75" y="0">a</tspan><tspan class="cls-64" x="145.78" y="0" xml:space="preserve"> </tspan><tspan class="cls-65"><tspan x="0" y="17">ihmis</tspan><tspan class="cls-38" x="28.56" y="17">t</tspan><tspan x="33.82" y="17">ä se</tspan><tspan class="cls-36" x="55.23" y="17">k</tspan><tspan x="61.44" y="17">s</tspan><tspan class="cls-47" x="67.62" y="17">u</tspan><tspan class="cls-48" x="74.34" y="17">a</tspan><tspan x="80.76" y="17">ali- </tspan><tspan class="cls-47" x="103.72" y="17">j</tspan><tspan x="109.84" y="17">a </tspan><tspan x="0" y="34">lis</tspan><tspan class="cls-44" x="15.01" y="34">ä</tspan><tspan x="21.43" y="34">än</tspan><tspan class="cls-35" x="34.78" y="34">t</tspan><tspan x="40.8" y="34">ymisterve</tspan><tspan class="cls-36" x="95.95" y="34">y</tspan><tspan x="101.98" y="34">shankkeissamme</tspan></tspan></text><path class="cls-1" d="M329.94,101.47H331a22.09,22.09,0,0,0,3.32.28,10,10,0,0,0,2.53-.14h-3.77s.36,0,.36-.14h-3.51m102-98.87c.8,0-1.46,0-3.5-.14a11.65,11.65,0,0,0-2.35,0h3.77s-.36,0-.36.14h2.44M327.73,75.11c-.09-5.84-.14-11.54-.18-17.52.18-8.26,0-17.24.09-25.93,0-3.7.09-7.4.13-11.25,0-2.56,0-5.27,0-7.83V2.32H349c.14.14-2.39,0-3,.14h6.16c6.16,0,12.32-.14,18.53-.14,1.51,0,3.33-.14,4-.14h3.5L378.4,2c2.84.15,4.17-.14,6.83-.14h2.09c0-.14,2.92,0,2.79-.14h1.73c1.11,0,11.31.43,12.41.43h.54c1.5,0,2.17.14,1.28.14h3.5c.36,0,.76-.14.23-.14a26.27,26.27,0,0,0,3.32,0c-1.91,0-4.08.14-6.21.14h3.64c1.68,0,3.72-.14,5.45-.14.58,0,1,.14,2.31.14a15.43,15.43,0,0,1,2.57,0h-3.72a32.77,32.77,0,0,1,4.07-.14h4.48c-.44-.15.22-.15,1-.15h1.2c1,0,1.64,0,1.24.15.09,0,5,.14,4.39.14h1.29V3.46c.26,2.85,0,3.13.26,5.55L435,8.87c.05,2.28.09,4.42.18,6.7v.57c.13,4.27.27,8.4.22,12.11v.14c.09,5.84.14,11.54.18,17.52-.18,8.26,0,17.24-.09,25.93,0,3.7-.09,7.4-.13,11.25,0,2.56,0,5.27,0,7.83v10.26H414.19c-.14-.14,2.39,0,3.05-.14h-6.16c-6.16,0-12.32.14-18.53.14-1.51,0-3.33.14-4,.14H385l-.26.15c-2.84-.15-4.17.14-6.83.14h-2.09c0,.14-2.92,0-2.79.14h-1.73c-1.11,0-11.31-.43-12.41-.43h-.54c-1.5,0-2.17-.14-1.28-.14h-3.5c-.36,0-.76.14-.23.14a26.27,26.27,0,0,0-3.32,0c1.91,0,4.08-.14,6.21-.14H352.6c-1.68,0-3.72.14-5.45.14-.58,0-1-.14-2.31-.14a15.43,15.43,0,0,1-2.57,0H346a32.77,32.77,0,0,1-4.07.14h-4.44c.44.15-.22.15-1,.15h-1.2c-1,0-1.68,0-1.28-.15h.35c-2.43-.14-5.27-.28-4.7-.28h-1.28V99.9c-.27-2.85-.05-3.14-.27-5.56l.09.15c0-2.28-.09-4.42-.18-6.7v-.57c-.17-4.13-.31-8.26-.26-12.11h0"/><text class="cls-66" transform="translate(337.85 23.78)">8 milj<tspan class="cls-67" x="34.93" y="0">o</tspan><tspan x="41.92" y="0">on</tspan><tspan class="cls-68" x="56.14" y="0">a</tspan><tspan x="62.99" y="0">a</tspan><tspan class="cls-37" x="69.76" y="0"> </tspan><tspan class="cls-37"><tspan x="0" y="17">ihmis</tspan><tspan class="cls-22" x="30.46" y="17">t</tspan><tspan class="cls-23" x="36.08" y="17">ä </tspan><tspan x="0" y="34">osallistui </tspan><tspan class="cls-69" x="0" y="51">k</tspan><tspan x="6.78" y="51">ou</tspan><tspan class="cls-70" x="20.86" y="51">l</tspan><tspan x="26.46" y="51">utus-</tspan><tspan x="0" y="68">hankkeisiimme</tspan></tspan></text></svg>