<svg id="Layer_2" data-name="Layer 2" xmlns="http://www.w3.org/2000/svg" viewBox="0 0 218.33 617.59"><defs><style>.cls-1{fill:#ec008c;}.cls-2{font-size:16px;}.cls-11,.cls-2,.cls-20,.cls-35,.cls-43,.cls-49,.cls-50,.cls-51,.cls-52,.cls-61,.cls-64,.cls-67{fill:#fff;}.cls-11,.cls-2,.cls-20,.cls-32,.cls-43,.cls-48,.cls-58,.cls-63,.cls-64,.cls-70{font-family:veneerregular;}.cls-13,.cls-14,.cls-3,.cls-4,.cls-48,.cls-5,.cls-66,.cls-70{fill:#74cee2;}.cls-3,.cls-4,.cls-5{font-size:19px;}.cls-4{letter-spacing:0.02em;}.cls-5{letter-spacing:0em;}.cls-6{letter-spacing:-0.04em;}.cls-7{letter-spacing:0em;}.cls-8{letter-spacing:-0.04em;}.cls-9{letter-spacing:-0.05em;}.cls-10,.cls-32,.cls-44,.cls-45,.cls-58,.cls-63{fill:#0079c1;}.cls-11{font-size:18px;}.cls-12{letter-spacing:-0.04em;}.cls-14{letter-spacing:0.02em;}.cls-15{letter-spacing:0em;}.cls-16{letter-spacing:-0.05em;}.cls-17{letter-spacing:-0.04em;}.cls-18{letter-spacing:0em;}.cls-19{letter-spacing:-0.01em;}.cls-20{font-size:12px;}.cls-21{letter-spacing:0.01em;}.cls-22{letter-spacing:-0.02em;}.cls-23{letter-spacing:-0.01em;}.cls-24{letter-spacing:-0.04em;}.cls-25{letter-spacing:-0.01em;}.cls-26{letter-spacing:0em;}.cls-27{letter-spacing:-0.01em;}.cls-28{letter-spacing:-0.02em;}.cls-29{letter-spacing:0.01em;}.cls-30{letter-spacing:0.01em;}.cls-31{letter-spacing:0em;}.cls-32,.cls-43,.cls-51,.cls-52{font-size:15.52px;}.cls-33{letter-spacing:0.01em;}.cls-34{letter-spacing:-0.02em;}.cls-36,.cls-45{letter-spacing:-0.04em;}.cls-37{letter-spacing:-0.04em;}.cls-38{letter-spacing:0.02em;}.cls-39{letter-spacing:-0.04em;}.cls-40{letter-spacing:-0.05em;}.cls-41{letter-spacing:0.02em;}.cls-42{letter-spacing:0.01em;}.cls-44{letter-spacing:0em;}.cls-46{letter-spacing:-0.01em;}.cls-47{letter-spacing:0em;}.cls-48{font-size:19.66px;}.cls-49{letter-spacing:0.01em;}.cls-50{letter-spacing:0em;}.cls-53{letter-spacing:-0.02em;}.cls-54{letter-spacing:-0.01em;}.cls-55{letter-spacing:0.01em;}.cls-56{fill:none;}.cls-57,.cls-58,.cls-63{isolation:isolate;}.cls-58{font-size:24.8px;}.cls-59{letter-spacing:0.01em;}.cls-60{letter-spacing:-0.02em;}.cls-61{font-size:59.67px;}.cls-62{letter-spacing:0.01em;}.cls-63{font-size:15.5px;}.cls-64{font-size:27.13px;}.cls-65,.cls-67{font-size:24.66px;}.cls-66{font-size:38.02px;}.cls-68{font-size:23.43px;}.cls-69{letter-spacing:0.01em;}.cls-70{font-size:16.44px;}.cls-71{letter-spacing:0.01em;}.cls-72{letter-spacing:0em;}.cls-73{letter-spacing:-0.04em;}.cls-74{letter-spacing:-0.01em;}.cls-75{letter-spacing:-0.02em;}</style></defs><title>Artboard 2</title><path class="cls-1" d="M5.9,538.91H8c-1.59,0,2.58.08,6.65.15,1.78,0,5.33,0,5.06-.07H12.19s.71,0,.71-.08h-7m204-52.18c1.59,0-2.93,0-7-.07-1.77,0-5.05-.08-4.7,0h7.54s-.71,0-.71.07h4.88M1.46,525c-.18-3.08-.26-6.09-.35-9.24.35-4.36.09-9.1.17-13.69.09-1.95.18-3.91.27-5.94-.09-1.35-.09-2.78-.09-4.13v-5.42H43.94c.26.08-4.79,0-6.12.08H50.14c12.33,0,24.66-.08,37.07-.08,3,0,6.65-.07,8.07-.07h7l.53-.08c5.67.08,8.33-.07,13.65-.07h4.17c.09-.08,5.85,0,5.59-.08h3.46c2.21,0,22.61.23,24.82.23h1.07c3,0,4.34.07,2.57.07h7c.7,0,1.5-.07.44-.07,2.13,0,4.52.07,6.65,0-3.81,0-8.16.07-12.42.07h7.28c3.37,0,7.44-.07,10.9-.07,1.16,0,2,.07,4.61.07,1.25-.07,2.93,0,5.15,0h-7.45c.44-.07,6.21-.07,8.16-.07h9c-.88-.08.45-.08,2-.08h2.4c2,0,3.28,0,2.48.08l8.78.07h2.57v.61c.53,1.5.09,1.65.53,2.93l-.18-.08c.09,1.21.18,2.33.36,3.54v.3a40.32,40.32,0,0,1,.44,6.39v.07c.18,3.09.27,6.09.36,9.25-.36,4.36-.09,9.1-.18,13.69-.09,2-.18,3.91-.27,5.94.09,1.35.09,2.78.09,4.13v5.41H174.38c-.27-.07,4.79,0,6.12-.07H168.17c-12.33,0-24.65.07-37.07.07-3,0-6.65.08-8.06.08h-7l-.53.07c-5.68-.07-8.34.08-13.66.08H97.67c-.08.07-5.85,0-5.58.07H88.63c-2.22,0-22.61-.22-24.83-.22H62.74c-3,0-4.35-.08-2.58-.08h-7c-.71,0-1.51.08-.44.08-2.13,0-4.53-.08-6.65,0,3.81,0,8.15-.08,12.41-.08H51.21c-3.37,0-7.45.08-10.91.08-1.15,0-1.95-.08-4.61-.08-1.24.08-2.93,0-5.14,0H38c-.45.08-6.21.08-8.16.08H21c.89.07-.44.07-2,.07H16.54c-2,0-3.37,0-2.57-.07h.7c-4.87-.08-10.55-.15-9.39-.15H2.7v-.6c-.53-1.51-.09-1.66-.53-2.94l.18.08c-.09-1.2-.18-2.33-.36-3.53v-.3a32.33,32.33,0,0,1-.53-6.4h0"/><text class="cls-2" transform="translate(9.9 511.7)">Tuimme <tspan class="cls-3" x="45.41" y="0">12,5 milj</tspan><tspan class="cls-4" x="103.43" y="0">o</tspan><tspan class="cls-3" x="111.73" y="0">on</tspan><tspan class="cls-5" x="128.63" y="0">a</tspan><tspan class="cls-3" x="136.76" y="0">a</tspan><tspan x="144.79" y="0" xml:space="preserve"> ihmis</tspan><tspan class="cls-6" x="178.46" y="0">t</tspan><tspan class="cls-7" x="184.07" y="0">ä </tspan><tspan class="cls-8" x="0" y="19.2">v</tspan><tspan x="6.08" y="19.2">arhaiskas</tspan><tspan class="cls-6" x="64.5" y="19.2">v</tspan><tspan class="cls-9" x="70.57" y="19.2">a</tspan><tspan x="76.62" y="19.2">tushankkeissamme</tspan></text><path class="cls-10" d="M5.15,616.86H7.28c-1.6,0,2.57.1,6.65.2,1.77,0,5.32,0,5.05-.1H11.45s.71,0,.71-.1h-7M209.1,547c1.6,0-2.92,0-7-.1-1.78,0-5.06-.1-4.7,0h7.53s-.71,0-.71.1h4.88M.72,598.25c-.18-4.13-.27-8.15-.36-12.38.36-5.83.09-12.17.18-18.31.09-2.62.18-5.23.26-7.95-.08-1.81-.08-3.72-.08-5.53v-7.25H43.19c.27.1-4.79,0-6.12.1H49.4c12.32,0,24.65-.1,37.06-.1,3,0,6.66-.1,8.07-.1h7l.53-.1c5.68.1,8.34-.1,13.66-.1h4.16c.09-.1,5.86,0,5.59-.1h3.46c2.22,0,22.61.3,24.83.3h1.06c3,0,4.35.1,2.57.1h7c.71,0,1.51-.1.44-.1,2.13,0,4.53.1,6.65,0-3.81,0-8.15.1-12.41.1h7.27c3.37,0,7.45-.1,10.91-.1,1.15,0,1.95.1,4.61.1,1.24-.1,2.92,0,5.14,0h-7.45c.45-.1,6.21-.1,8.16-.1h9c-.89-.1.44-.1,2-.1h2.39c2,0,3.28,0,2.48.1.18,0,9.94.1,8.78.1H215v.81c.54,2,.09,2.21.54,3.92l-.18-.1c.09,1.61.18,3.12.35,4.73v.4a72.26,72.26,0,0,1,.45,8.55v.11c.17,4.12.26,8.15.35,12.37-.35,5.84-.09,12.18-.18,18.31-.08,2.62-.17,5.24-.26,8,.09,1.81.09,3.73.09,5.54v7.24H173.63c-.26-.1,4.79,0,6.12-.1H167.42c-12.32,0-24.65.1-37.06.1-3,0-6.65.1-8.07.1h-7l-.53.1c-5.67-.1-8.33.1-13.65.1H96.93c-.09.1-5.85,0-5.59.1H87.88c-2.21,0-22.61-.3-24.83-.3H62c-3,0-4.34-.1-2.57-.1h-7c-.71,0-1.5.1-.44.1-2.13,0-4.52-.1-6.65,0,3.81,0,8.16-.1,12.41-.1H50.46c-3.37,0-7.45.1-10.9.1-1.16,0-2-.1-4.62-.1-1.24.1-2.92,0-5.14,0h7.45c-.44.1-6.21.1-8.16.1H20.22c.89.1-.44.1-2,.1H15.79c-2,0-3.37,0-2.57-.1h.71c-4.88-.1-10.55-.2-9.4-.2H2v-.8c-.53-2-.09-2.22-.53-3.93l.17.1c-.09-1.61-.17-3.12-.35-4.73v-.4a56.07,56.07,0,0,1-.53-8.55h0"/><text class="cls-11" transform="translate(9.9 570.12)"><tspan class="cls-12">P</tspan><tspan x="7.18" y="0">aransimme </tspan><tspan class="cls-13" x="81.95" y="0">6,4 milj</tspan><tspan class="cls-14" x="132.06" y="0">o</tspan><tspan class="cls-13" x="139.93" y="0">onan</tspan><tspan x="171.95" y="0"> </tspan><tspan x="0" y="19">ihmisen sani</tspan><tspan class="cls-12" x="80.71" y="19">t</tspan><tspan class="cls-15" x="87.03" y="19">a</tspan><tspan class="cls-16" x="94.73" y="19">a</tspan><tspan x="101.54" y="19">tio</tspan><tspan class="cls-17" x="120.11" y="19">t</tspan><tspan class="cls-18" x="126.43" y="19">a </tspan><tspan class="cls-19" x="137.64" y="19">j</tspan><tspan x="144.99" y="19">a </tspan><tspan x="0" y="38">puh</tspan><tspan class="cls-12" x="24.52" y="38">t</tspan><tspan class="cls-15" x="30.83" y="38">a</tspan><tspan x="38.54" y="38">an veden s</tspan><tspan class="cls-15" x="107.17" y="38">a</tspan><tspan x="114.87" y="38">antia</tspan></text><path class="cls-10" d="M5.52,184.64H7.65c-1.6,0,2.57-.13,6.65-.26a42.61,42.61,0,0,1,5.06.13H11.82s.71,0,.71.13h-7m204,90.06c1.6,0-2.92,0-7,.13-1.77,0-5.06.13-4.7,0h7.54s-.71,0-.71-.13h4.87m-208.38-66c-.18,5.32-.27,10.51-.36,16,.36,7.53.09,15.7.18,23.62.09,3.37.18,6.75.27,10.25-.09,2.34-.09,4.8-.09,7.14V275H43.56c.27-.13-4.78,0-6.11-.13H49.77c12.33,0,24.65.13,37.07.13,3,0,6.65.13,8.07.13h7l.53.13c5.68-.13,8.34.13,13.66.13h4.17c.09.13,5.85,0,5.58.13h3.46c2.22,0,22.61-.39,24.83-.39h1.07c3,0,4.34-.13,2.57-.13h7c.71,0,1.51.13.45.13,2.12,0,4.52-.13,6.65,0-3.82,0-8.16-.13-12.42-.13h7.27c3.37,0,7.45.13,10.91.13,1.15,0,2-.13,4.61-.13,1.24.13,2.93,0,5.14,0H180c.44.13,6.2.13,8.15.13h9c-.89.13.44.13,2,.13h2.39c2,0,3.28,0,2.49-.13.17,0,9.93-.13,8.78-.13h2.57v-1c.53-2.6.09-2.86.53-5.07l-.18.13c.09-2.07.18-4,.36-6.1v-.51c.26-3.9.53-7.66.44-11v-.13c.18-5.32.27-10.51.35-16-.35-7.53-.08-15.7-.17-23.62-.09-3.37-.18-6.75-.27-10.25.09-2.34.09-4.8.09-7.14v-9.35H174c-.26.13,4.79,0,6.12.13H167.8c-12.33,0-24.65-.13-37.07-.13-3,0-6.65-.12-8.07-.12h-7l-.54-.13c-5.67.13-8.33-.13-13.65-.13H97.3c-.09-.13-5.85,0-5.59-.13H88.26c-2.22,0-22.62.39-24.83.39H62.36c-3,0-4.34.12-2.57.12h-7c-.71,0-1.51-.12-.45-.12-2.13,0-4.52.12-6.65,0,3.82,0,8.16.12,12.42.12H50.84c-3.37,0-7.45-.12-10.91-.12-1.15,0-2,.12-4.61.12-1.24-.12-2.93,0-5.15,0h7.45c-.44-.12-6.2-.12-8.16-.12H20.6c.88-.13-.45-.13-2-.13h-2.4c-2,0-3.37,0-2.57.13h.71c-4.88.12-10.55.25-9.4.25H2.33v1c-.53,2.6-.09,2.86-.53,5.06L2,191c-.09,2.08-.18,4-.36,6.1v.52a95.4,95.4,0,0,0-.53,11h0"/><text class="cls-20" transform="translate(9.9 201.94)"><tspan class="cls-21">T</tspan><tspan class="cls-22" x="4.81" y="0">y</tspan><tspan x="9.7" y="0">öskentelimme yhd</tspan><tspan class="cls-23" x="88.85" y="0">e</tspan><tspan x="93.43" y="0">ssä </tspan><tspan class="cls-13" x="110.79" y="0">47 632</tspan><tspan x="136.45" y="0"> </tspan><tspan class="cls-24" x="0" y="13">p</tspan><tspan x="4.79" y="13">aikallis</tspan><tspan class="cls-25" x="39.23" y="13">j</tspan><tspan class="cls-26" x="44.12" y="13">ä</tspan><tspan class="cls-27" x="49.2" y="13">r</tspan><tspan x="54.3" y="13">j</tspan><tspan class="cls-23" x="59.31" y="13">e</tspan><tspan x="63.9" y="13">stön, </tspan><tspan class="cls-13" x="88.86" y="13">1 997</tspan><tspan x="108.24" y="13" xml:space="preserve"> a</tspan><tspan class="cls-28" x="115.71" y="13">l</tspan><tspan x="119.91" y="13">ue- </tspan><tspan class="cls-24" x="136.34" y="13">t</tspan><tspan x="140.55" y="13">ai </tspan><tspan x="0" y="26">kansallisen </tspan><tspan class="cls-23" x="55.07" y="26">j</tspan><tspan x="59.96" y="26">ä</tspan><tspan class="cls-27" x="65.04" y="26">r</tspan><tspan x="70.14" y="26">j</tspan><tspan class="cls-23" x="75.15" y="26">e</tspan><tspan x="79.74" y="26">stön, </tspan><tspan class="cls-13" x="104.7" y="26">2 900</tspan><tspan x="126.44" y="26"> </tspan><tspan x="0" y="39">hallinto-organis</tspan><tspan class="cls-29" x="75.21" y="39">a</tspan><tspan class="cls-16" x="80.35" y="39">a</tspan><tspan x="84.89" y="39">tion, </tspan><tspan class="cls-13" x="107.53" y="39">638</tspan><tspan x="121.69" y="39" xml:space="preserve"> kansain</tspan><tspan class="cls-24" x="158.23" y="39">v</tspan><tspan x="162.79" y="39">älisen </tspan><tspan class="cls-23" x="0" y="52">j</tspan><tspan x="4.9" y="52">ä</tspan><tspan class="cls-27" x="9.97" y="52">r</tspan><tspan x="15.07" y="52">j</tspan><tspan class="cls-23" x="20.09" y="52">e</tspan><tspan x="24.67" y="52">stön </tspan><tspan class="cls-24" x="47.38" y="52">t</tspan><tspan x="51.59" y="52">ai instituution sekä </tspan><tspan class="cls-13" x="140.59" y="52">433</tspan><tspan x="154.68" y="52"> </tspan><tspan x="0" y="65">y</tspan><tspan class="cls-28" x="5.06" y="65">k</tspan><tspan x="10.03" y="65">si</tspan><tspan class="cls-30" x="17.6" y="65">t</tspan><tspan x="22.42" y="65">yisen </tspan><tspan class="cls-24" x="47.76" y="65">t</tspan><tspan class="cls-31" x="51.97" y="65">ai yri</tspan><tspan class="cls-21" x="75.05" y="65">t</tspan><tspan class="cls-28" x="79.86" y="65">y</tspan><tspan x="84.68" y="65">skump</tspan><tspan class="cls-24" x="112.67" y="65">p</tspan><tspan x="117.45" y="65">anin kanssa.</tspan></text><path class="cls-13" d="M5.49,337.75H7.63c-1.61,0,2.58.08,6.68.16,1.78,0,5.35,0,5.08-.08H11.82s.71,0,.71-.08h-7m204.93-54c1.6,0-2.94,0-7-.08-1.78,0-5.08-.07-4.72,0h7.57s-.71,0-.71.08h4.9M1,323.36c-.17-3.19-.26-6.31-.35-9.57.35-4.52.09-9.42.18-14.17.09-2,.17-4,.26-6.14C1,292.08,1,290.6,1,289.2v-5.6H43.71c.27.07-4.81,0-6.14.07H50c12.39,0,24.77-.07,37.24-.07,3,0,6.69-.08,8.11-.08h7l.54-.08c5.7.08,8.37-.08,13.72-.08h4.18c.09-.08,5.89,0,5.62-.08h3.47c2.23,0,22.72.24,24.95.24h1.07c3,0,4.37.08,2.58.08h7c.72,0,1.52-.08.45-.08,2.14,0,4.54.08,6.68,0-3.83,0-8.2.08-12.47.08h7.3c3.39,0,7.49-.08,11-.08,1.16,0,2,.08,4.64.08,1.24-.08,2.94,0,5.16,0h-7.48c.44-.08,6.24-.08,8.2-.08h9c-.89-.08.45-.08,2.05-.08h2.41c2,0,3.3,0,2.49.08.18,0,10,.08,8.83.08h2.58v.62c.53,1.55.09,1.71.53,3l-.17-.08c.08,1.25.17,2.42.35,3.66v.31a43.4,43.4,0,0,1,.45,6.62v.07c.18,3.2.27,6.31.35,9.58-.35,4.51-.08,9.41-.17,14.16-.09,2-.18,4-.27,6.15.09,1.4.09,2.87.09,4.28v5.6H174.78c-.27-.08,4.81,0,6.15-.08H168.54c-12.38,0-24.77.08-37.24.08-3,0-6.68.08-8.11.08h-7l-.53.07c-5.71-.07-8.38.08-13.72.08H97.71c-.09.08-5.88,0-5.62.08H88.62c-2.23,0-22.72-.23-25-.23H62.6c-3,0-4.36-.08-2.58-.08H53c-.71,0-1.52.08-.45.08-2.13,0-4.54-.08-6.68,0,3.83,0,8.2-.08,12.48-.08H51c-3.39,0-7.48.08-11,.08-1.16,0-2-.08-4.63-.08-1.25.08-2.94,0-5.17,0h7.48c-.44.08-6.23.08-8.19.08H20.64c.89.07-.45.07-2.05.07H16.18c-2,0-3.38,0-2.58-.07h.71c-4.9-.08-10.6-.16-9.44-.16H2.28v-.62c-.53-1.56-.09-1.71-.53-3l.18.08c-.09-1.24-.18-2.41-.36-3.66V330A34.45,34.45,0,0,1,1,323.36H1"/><text class="cls-32" transform="translate(9.9 307.8)"><tspan class="cls-33">L</tspan><tspan x="5.9" y="0">astensuoje</tspan><tspan class="cls-34" x="70.9" y="0">l</tspan><tspan x="76.33" y="0">uhankkeemme</tspan><tspan class="cls-35" x="154.49" y="0"> </tspan><tspan class="cls-35"><tspan class="cls-36" x="0" y="17.59">t</tspan><tspan class="cls-37" x="5.45" y="17.59">a</tspan><tspan x="11.32" y="17.59">voi</tspan><tspan class="cls-38" x="27.79" y="17.59">t</tspan><tspan x="34.17" y="17.59">ti</tspan><tspan class="cls-39" x="43.64" y="17.59">v</tspan><tspan class="cls-40" x="49.54" y="17.59">a</tspan><tspan x="55.4" y="17.59">t 6,6 milj</tspan><tspan class="cls-41" x="107.92" y="17.59">o</tspan><tspan x="114.71" y="17.59">on</tspan><tspan class="cls-42" x="128.51" y="17.59">a</tspan><tspan x="135.15" y="17.59">a ihmis</tspan><tspan class="cls-36" x="174.38" y="17.59">t</tspan><tspan x="179.83" y="17.59">ä</tspan></tspan></text><path class="cls-13" d="M5.23,345.65H7.37c-1.61,0,2.58-.08,6.68-.16,1.78,0,5.35,0,5.08.08H11.56s.71,0,.71.08h-7m204.93,55.81c1.6,0-2.94,0-7,.08-1.78,0-5.08.08-4.72,0H206s-.71,0-.71-.08h4.9M.77,360.52c-.17,3.3-.26,6.52-.35,9.9.35,4.66.09,9.73.18,14.64.09,2.09.17,4.18.26,6.35-.09,1.45-.09,3-.09,4.42v5.79H43.45c.27-.08-4.81,0-6.14-.08H49.69c12.38,0,24.77.08,37.24.08,3,0,6.69.08,8.11.08h7l.54.08c5.7-.08,8.37.08,13.72.08h4.18c.09.08,5.88,0,5.62.08h3.47c2.23,0,22.72-.24,24.95-.24h1.07c3,0,4.37-.08,2.58-.08h7c.72,0,1.52.08.45.08,2.14,0,4.54-.08,6.68,0-3.83,0-8.2-.08-12.47-.08h7.3c3.39,0,7.49.08,11,.08,1.16,0,2-.08,4.64-.08,1.24.08,2.94,0,5.16,0h-7.48c.44.08,6.24.08,8.2.08h9c-.89.08.45.08,2,.08h2.41c2.05,0,3.3,0,2.49-.08.18,0,10-.08,8.83-.08H216V401c.53-1.61.09-1.77.53-3.14l-.17.08c.08-1.28.17-2.49.35-3.78v-.32a46.18,46.18,0,0,0,.45-6.83v-.09c.18-3.29.26-6.51.35-9.89-.35-4.66-.09-9.73-.17-14.64-.09-2.09-.18-4.18-.27-6.35.09-1.45.09-3,.09-4.42v-5.79H174.52c-.27.08,4.81,0,6.15.08H168.28c-12.38,0-24.77-.08-37.24-.08-3,0-6.68-.08-8.11-.08h-7l-.53-.08c-5.71.08-8.38-.08-13.72-.08H97.45c-.09-.08-5.88,0-5.62-.08H88.36c-2.23,0-22.72.24-25,.24H62.34c-3,0-4.36.08-2.58.08h-7c-.71,0-1.52-.08-.45-.08-2.13,0-4.54.08-6.68,0,3.83,0,8.2.08,12.48.08H50.76c-3.39,0-7.49-.08-11-.08-1.16,0-2,.08-4.63.08-1.25-.08-2.94,0-5.17,0h7.48c-.44-.08-6.23-.08-8.19-.08H20.38c.89-.08-.45-.08-2.05-.08H15.92c-2.05,0-3.38,0-2.58.08h.71c-4.9.08-10.6.16-9.44.16H2v.64c-.53,1.61-.09,1.77-.53,3.14l.18-.08c-.09,1.28-.18,2.49-.36,3.78v.32a36.79,36.79,0,0,0-.54,6.83h0"/><text class="cls-43" transform="translate(9.9 372.23)">1,8 milj<tspan class="cls-41" x="41.08" y="0">o</tspan><tspan x="47.86" y="0">on</tspan><tspan class="cls-42" x="61.66" y="0">a</tspan><tspan x="68.31" y="0">a</tspan><tspan class="cls-44" x="74.87" y="0" xml:space="preserve"> ihmis</tspan><tspan class="cls-45" x="107.54" y="0">t</tspan><tspan class="cls-10" x="112.98" y="0">ä osallistui </tspan><tspan class="cls-10"><tspan class="cls-39" x="0" y="17.59">t</tspan><tspan x="5.45" y="17.59">alous- </tspan><tspan class="cls-46" x="45.87" y="17.59">j</tspan><tspan x="52.21" y="17.59">a s</tspan><tspan class="cls-47" x="68.27" y="17.59">ä</tspan><tspan x="74.92" y="17.59">ästöhankkeisiimme</tspan></tspan></text><path class="cls-1" d="M211.93,409.72H209.8c1.6,0-2.58-.1-6.66-.2-1.77,0-5.32,0-5.06.1h7.55s-.71,0-.71.1h7M7.78,479.1c-1.59,0,2.93,0,7,.1,1.77,0,5.06.1,4.7,0H12s.71,0,.71-.1H7.78m208.59-50.88c.17,4.09.26,8.09.35,12.29-.35,5.8-.09,12.1-.18,18.2-.08,2.59-.17,5.19-.26,7.89.09,1.8.09,3.7.09,5.5v7.2H173.85c-.26-.1,4.79,0,6.13-.1H167.64c-12.34,0-24.68.1-37.1.1-3,0-6.66.1-8.08.1h-7l-.53.1c-5.68-.1-8.35.1-13.67.1H97.08c-.09.1-5.86,0-5.6.1H88c-2.22,0-22.63-.3-24.85-.3H62.1c-3,0-4.34-.1-2.57-.1h-7c-.71,0-1.51.1-.44.1-2.13,0-4.53-.1-6.66,0,3.81,0,8.16-.1,12.42-.1H50.57c-3.38,0-7.46.1-10.92.1-1.15,0-1.95-.1-4.62-.1-1.24.1-2.93,0-5.14,0h7.45c-.44.1-6.21.1-8.16.1h-9c.89.1-.44.1-2,.1h-2.4c-2,0-3.28,0-2.48-.1-.18,0-9.94-.1-8.79-.1H1.93v-.8c-.54-2-.09-2.2-.54-3.9l.18.1c-.09-1.6-.18-3.1-.35-4.7v-.4a71.34,71.34,0,0,1-.45-8.5V461c-.17-4.09-.26-8.09-.35-12.29.35-5.8.09-12.1.18-18.2.08-2.59.17-5.19.26-7.89-.09-1.8-.09-3.7-.09-5.5v-7.2H43.29c.26.1-4.79,0-6.13.1H49.5c12.34,0,24.68-.1,37.1-.1,3,0,6.66-.1,8.08-.1h7l.53-.1c5.68.1,8.35-.1,13.67-.1h4.17c.09-.1,5.86,0,5.6-.1h3.46c2.22,0,22.63.3,24.85.3H155c3,0,4.35.1,2.58.1h7c.71,0,1.51-.1.44-.1,2.13,0,4.53.1,6.66,0-3.82,0-8.16.1-12.42.1h7.27c3.38,0,7.46-.1,10.92-.1,1.15,0,1.95.1,4.62.1,1.24-.1,2.92,0,5.14,0H179.8c.44-.1,6.21-.1,8.16-.1h8.88c-.89-.1.44-.1,2-.1h2.4c2,0,3.37,0,2.57.1h-.71c4.88.1,10.56.2,9.41.2h2.57v.8c.54,2,.09,2.2.54,3.9l-.18-.1c.09,1.6.18,3.1.35,4.7v.4a55.47,55.47,0,0,1,.54,8.5h0"/><text class="cls-48" transform="translate(9.9 435.19)">Tuimme<tspan class="cls-35" x="51.87" y="0" xml:space="preserve"> 2,1 milj</tspan><tspan class="cls-49" x="108.07" y="0">o</tspan><tspan class="cls-35" x="116.66" y="0">on</tspan><tspan class="cls-50" x="134.15" y="0">a</tspan><tspan class="cls-35" x="142.56" y="0">a</tspan><tspan class="cls-51" x="150.88" y="0" xml:space="preserve"> </tspan><tspan class="cls-52"><tspan x="0" y="17.59">ihmis</tspan><tspan class="cls-39" x="29.56" y="17.59">t</tspan><tspan x="35.01" y="17.59">ä se</tspan><tspan class="cls-53" x="57.16" y="17.59">k</tspan><tspan x="63.59" y="17.59">s</tspan><tspan class="cls-54" x="69.98" y="17.59">u</tspan><tspan class="cls-42" x="76.94" y="17.59">a</tspan><tspan x="83.58" y="17.59">ali- </tspan><tspan class="cls-54" x="107.35" y="17.59">j</tspan><tspan x="113.68" y="17.59">a </tspan><tspan x="0" y="35.19">lis</tspan><tspan class="cls-42" x="15.54" y="35.19">ä</tspan><tspan x="22.18" y="35.19">än</tspan><tspan class="cls-55" x="36" y="35.19">t</tspan><tspan x="42.22" y="35.19">ymisterve</tspan><tspan class="cls-53" x="99.31" y="35.19">y</tspan><tspan x="105.55" y="35.19">shankkeissamme</tspan></tspan></text><path class="cls-10" d="M97.3,75v1a25.85,25.85,0,0,1,.22,3.23c-.06.88-.06,2.64-.11,2.35v.88c0-.44,0-1,0-1.76a1.32,1.32,0,0,0,0,.44c0-.59,0-2.35,0-3.23,0,0,0,.29,0,.29,0-.29-.06-.73-.06-1.17V75.45a.66.66,0,0,1,0-.44M1.88,173.07c0,.74,0-1.47-.11-3.37.06-.89-.05-2.35,0-2.21v-.88c0,.44.06,1,.06,1.76a1.14,1.14,0,0,0-.06-.44c-.05.59,0,2.35,0,3.23.06,0,.06-.29.06-.29,0,.29,0,.73,0,1.17v1M71.82,72.81c-5.6-.15-11.19-.15-16.84-.15-8,.15-16.69,0-25,.15-3.52,0-7.19.15-10.82.15H1.67V93.51c.1.15,0-2.35.1-2.94v5.88c-.05,5.87-.16,11.89-.16,17.76-.05,1.47-.1,3.23-.16,3.81-.05,2.5.06,1.47.06,3.38l-.11.29c.11,2.79-.16,4-.11,6.61a14.78,14.78,0,0,1,.06,2c-.11,0,0,2.79-.11,2.65h0v1.61c.05,1,.37,10.86.43,11.89v.44c0,1.47.1,2.06.1,1.18v3.37c0,.3-.05.74-.1.15.05,1,.05,2.2.05,3.23.05-1.76.11-4,.21-6,0,1.18,0,2.35.06,3.52-.06,1.62-.11,3.53-.16,5.29a16.32,16.32,0,0,1,.1,2.2c-.1.59,0,1.47-.05,2.5,0-1.18,0-2.35,0-3.67-.11.14,0,2.93-.11,4,.06.44,0,2.79.06,4.26-.06-.44-.11.29-.11,1v0c0,.44.05.74.05,1,0,1,.06,1.62.06,1.18,0,0,.21,4.84.21,4.25,0-.29,0-.29,0-.29,0,.15,0,.15.05.15s.06.29.06-.15l-.06-.44c0-.74.06-1.18.06-1.32v3.23H3.32c2.72.29,2.93,0,5.44.29H8.7c2.13,0,4.32.15,6.45.15h.54c4.1.14,8.1.29,11.72.14h.11c5.6.15,11.2.15,16.85.15,8-.15,16.68,0,25-.15,3.52,0,7.2-.14,10.82-.14H97.68V155.46c-.11-.15,0,2.35-.11,2.93v-5.87c.05-5.87.16-11.89.16-17.76,0-1.47.11-3.23.16-3.82,0-2.49,0-1.47,0-3.37l.1-.3c-.1-2.79.16-4,.11-6.6a17.83,17.83,0,0,1,0-2.06c.1,0,0-2.79.1-2.64h0v-1.62c0-1-.37-10.86-.42-11.89V102c0-1.46-.11-2-.11-1.17V97.47c0-.29.05-.73.11-.14-.06-1-.06-2.21-.06-3.23-.05,1.76-.1,4-.21,6,0-1.18,0-2.35,0-3.53,0-1.61.1-3.52.16-5.28a17.59,17.59,0,0,1-.11-2.2c.11-.59,0-1.47,0-2.5.06,1.17.06,2.35,0,3.67.11-.15.06-2.94.11-4,0-.44,0-2.79,0-4.26,0,.44.1-.29.1-1v0a5.18,5.18,0,0,1,.06-1c0-1-.06-1.61-.06-1.17-.05,0-.05.15-.05.29-.16-2.34-.27-5-.27-4.55s0,.3,0,.3c0-.15,0-.15,0-.15,0-.15-.06-.29-.06.15l.06.44c0,.73-.06,1.17-.06,1.32V73.4H96c-2.72-.29-2.94,0-5.44-.29h0c-2.13,0-4.32-.15-6.45-.15h-.53c-4.11-.15-8.11-.3-11.73-.15h-.11"/><path class="cls-13" d="M5.52,1H7.65C6.05,1,10.22.87,14.3.77c1.78,0,5.32,0,5.06.1H11.82s.71,0,.71.09h-7m204,63.7c1.6,0-2.92,0-7,.09-1.77,0-5.06.1-4.7,0h7.54s-.71,0-.71-.09h4.87M1.09,17.94C.91,21.7.82,25.37.73,29.23c.36,5.32.09,11.11.18,16.71.09,2.38.18,4.77.27,7.25-.09,1.65-.09,3.39-.09,5.05v6.61H43.56c.27-.1-4.78,0-6.11-.1H49.77c12.33,0,24.65.1,37.07.1,3,0,6.65.09,8.07.09h7l.53.09c5.68-.09,8.34.09,13.66.09h4.17c.09.09,5.85,0,5.58.09h3.46c2.22,0,22.61-.27,24.83-.27h1.07c3,0,4.34-.09,2.57-.09h7c.71,0,1.51.09.45.09,2.12,0,4.52-.09,6.65,0-3.82,0-8.16-.09-12.42-.09h7.27c3.37,0,7.45.09,10.91.09,1.15,0,2-.09,4.61-.09,1.24.09,2.93,0,5.14,0H180c.44.09,6.2.09,8.15.09h9c-.89.09.44.09,2,.09h2.39c2,0,3.28,0,2.49-.09.17,0,9.93-.09,8.78-.09h2.57v-.74c.53-1.84.09-2,.53-3.58l-.18.09c.09-1.47.18-2.84.36-4.31v-.37a61.79,61.79,0,0,0,.44-7.8v-.09c.18-3.77.27-7.44.35-11.29-.35-5.33-.08-11.11-.17-16.71-.09-2.39-.18-4.77-.27-7.25.09-1.65.09-3.4.09-5.05V1.14H174c-.26.09,4.79,0,6.12.09H167.8c-12.33,0-24.65-.09-37.07-.09-3,0-6.65-.09-8.07-.09h-7L115.12,1c-5.67.09-8.33-.09-13.65-.09H97.3c-.09-.1-5.85,0-5.59-.1H88.26c-2.22,0-22.62.28-24.83.28H62.36c-3,0-4.34.09-2.57.09h-7c-.71,0-1.51-.09-.45-.09-2.13,0-4.52.09-6.65,0,3.82,0,8.16.09,12.42.09H50.84c-3.37,0-7.45-.09-10.91-.09-1.15,0-2,.09-4.61.09-1.24-.09-2.93,0-5.15,0h7.45c-.44-.09-6.2-.09-8.16-.09H20.6c.88-.09-.45-.09-2-.09h-2.4c-2,0-3.37,0-2.57.09h.71c-4.88.09-10.55.18-9.4.18H2.33V2C1.8,3.8,2.24,4,1.8,5.55L2,5.45C1.89,6.92,1.8,8.3,1.62,9.77v.37a47.8,47.8,0,0,0-.53,7.8h0"/><rect class="cls-56" x="14.29" y="80.78" width="158.25" height="51.79"/><rect class="cls-56" x="11.33" y="17.26" width="226" height="48.7"/><g class="cls-57"><text class="cls-58" transform="translate(10.48 32.21)"><tspan class="cls-59">T</tspan><tspan class="cls-60" x="9.95" y="0">y</tspan><tspan x="20.04" y="0">öskentelimme </tspan><tspan class="cls-61" x="150.72" y="24.78">75</tspan><tspan x="195.23" y="0"> </tspan><tspan x="0" y="25.17">m</tspan><tspan class="cls-62" x="14.61" y="25.17">a</tspan><tspan x="25.22" y="25.17">assa </tspan></text><text class="cls-63" transform="translate(203.33 32.21)"> </text></g><text class="cls-64" transform="translate(9.9 104.41)">Tuimme<tspan class="cls-65" x="71.57" y="0"> </tspan><tspan class="cls-66"><tspan x="0" y="34.94">53 311</tspan><tspan class="cls-67" x="73.15" y="34.94"> </tspan></tspan><tspan class="cls-68"><tspan x="0" y="61.66">yhtei</tspan><tspan class="cls-69" x="44.26" y="61.66">s</tspan><tspan x="54.15" y="61.66">öä</tspan></tspan></text><path class="cls-1" d="M108.16,176h1.09a24,24,0,0,0,3.42.29,9.88,9.88,0,0,0,2.6-.15h-3.88s.37,0,.37-.14h-3.6M213,74.42c.82,0-1.5,0-3.6-.15a11.43,11.43,0,0,0-2.41,0h3.87s-.37,0-.37.15H213M105.88,148.93c-.09-6-.14-11.86-.18-18,.18-8.49,0-17.71.09-26.64,0-3.81.09-7.61.13-11.57,0-2.63,0-5.41,0-8V74.12H127.7c.14.15-2.46,0-3.14.15h6.33c6.34,0,12.67-.15,19.05-.15,1.55,0,3.42-.14,4.14-.14h3.6l.28-.15c2.91.15,4.28-.15,7-.15h2.15c0-.14,3,0,2.87-.14h1.77c1.14,0,11.62.44,12.76.44h.55c1.55,0,2.23.14,1.32.14H190c.36,0,.77-.14.23-.14a27.71,27.71,0,0,0,3.41,0c-2,0-4.19.14-6.38.14H191c1.73,0,3.83-.14,5.6-.14.6,0,1,.14,2.37.14a16.41,16.41,0,0,1,2.65,0h-3.83A34.74,34.74,0,0,1,202,74h4.6c-.45-.15.23-.15,1.05-.15h1.23c1.05,0,1.69,0,1.28.15.09,0,5.1.14,4.51.14H216v1.17c.27,2.93,0,3.23.27,5.71l-.09-.14c.05,2.34.09,4.54.18,6.88v.58c.14,4.39.28,8.64.23,12.45v.14c.09,6,.14,11.86.18,18-.18,8.49,0,17.71-.09,26.64,0,3.81-.09,7.61-.14,11.56.05,2.64.05,5.42.05,8.06v10.54H194.73c-.14-.15,2.46,0,3.14-.15h-6.33c-6.34,0-12.67.15-19,.15-1.55,0-3.42.14-4.14.14h-3.6l-.28.15c-2.91-.15-4.28.14-7,.14h-2.15c0,.15-3,0-2.87.15h-1.77c-1.14,0-11.62-.44-12.76-.44h-.55c-1.55,0-2.23-.14-1.32-.14h-3.6c-.36,0-.77.14-.23.14a27.71,27.71,0,0,0-3.41,0c2,0,4.19-.14,6.38-.14h-3.74c-1.73,0-3.83.14-5.6.14-.6,0-1-.14-2.37-.14a16.41,16.41,0,0,1-2.65,0h3.83a34.74,34.74,0,0,1-4.19.14H115.9c.46.15-.22.15-1,.15h-1.24c-1,0-1.73,0-1.32-.15h.37c-2.51-.14-5.42-.29-4.83-.29h-1.32V174.4c-.28-2.93,0-3.22-.28-5.71l.09.15c0-2.35-.09-4.54-.18-6.88v-.59c-.18-4.25-.32-8.49-.27-12.44h0"/><text class="cls-70" transform="translate(116.28 96.31)">8 milj<tspan class="cls-71" x="35.89" y="0">o</tspan><tspan x="43.08" y="0">on</tspan><tspan class="cls-72" x="57.69" y="0">a</tspan><tspan x="64.73" y="0">a</tspan><tspan class="cls-35" x="71.69" y="0"> </tspan><tspan class="cls-35"><tspan x="0" y="17.47">ihmis</tspan><tspan class="cls-73" x="31.3" y="17.47">t</tspan><tspan x="37.08" y="17.47">ä </tspan><tspan x="0" y="34.94">osallistui </tspan><tspan class="cls-74" x="0" y="52.41">k</tspan><tspan x="6.97" y="52.41">ou</tspan><tspan class="cls-75" x="21.44" y="52.41">l</tspan><tspan x="27.19" y="52.41">utus-</tspan><tspan x="0" y="69.88">hankkeisiimme</tspan></tspan></text></svg>