<?xml version="1.0" encoding="utf-8"?>
<!-- Generator: Adobe Illustrator 22.0.1, SVG Export Plug-In . SVG Version: 6.00 Build 0)  -->
<svg version="1.1" id="Layer_1" xmlns="http://www.w3.org/2000/svg" xmlns:xlink="http://www.w3.org/1999/xlink" x="0px" y="0px"
	 viewBox="0 0 935 4.6" style="enable-background:new 0 0 935 4.6;" xml:space="preserve">
<style type="text/css">
	.st0{fill:#74CEE2;}
</style>
<title>Artboard 1</title>
<path class="st0" d="M19.8,0.4L19.8,0.4 M904.8,4.4L904.8,4.4 M1.2,1.4c-1.4,0.2-1.4,0.5-1.4,0.7c1.4,0.3,0,0.7,1.4,1
	c0,0.2,1.4,0.3,1.4,0.4v0.7h514.6c0,0,25.7,0,24.3,0h14.3h107.2h264.5l0,0c2.9-0.1,0-0.1,2.9-0.2l0,0c0-0.1,1.4-0.2,1.4-0.3l0,0
	c1.4-0.2,2.9-0.3,1.4-0.5l0,0c1.4-0.2,1.4-0.5,1.4-0.7c-1.4-0.3,0-0.7-1.4-1c0-0.2-1.4-0.3-1.4-0.5V0.4H378.6H271.4H171.3
	c-5.7,0-8.6,0-20,0H87c4.3,0-1.4,0-8.6,0h-70l0,0c-2.9,0.1,0,0.1-2.9,0.2l0,0c0,0.1-1.4,0.2-1.4,0.3l0,0C2.7,1.1,1.2,1.2,2.7,1.4
	L1.2,1.4"/>
</svg>
