<?xml version="1.0" encoding="utf-8"?>
<!-- Generator: Adobe Illustrator 22.0.1, SVG Export Plug-In . SVG Version: 6.00 Build 0)  -->
<svg version="1.1" id="Layer_2" xmlns="http://www.w3.org/2000/svg" xmlns:xlink="http://www.w3.org/1999/xlink" x="0px" y="0px"
	 viewBox="0 0 212 677.9" style="enable-background:new 0 0 212 677.9;" xml:space="preserve">
<style type="text/css">
	.st0{fill:#EC008C;}
	.st1{fill:#74CEE2;}
	.st2{fill:#0079C1;}
	.st3{fill:#FFFFFF;}
	.st4{fill:#E0ECF8;}
	.st5{fill:none;}
	.st6{font-family:'Veneer';}
	.st7{font-size:14.1553px;}
	.st8{font-size:12.429px;}
	.st9{font-size:22.7865px;}
	.st10{font-size:10.3575px;}
	.st11{font-size:17.695px;}
	.st12{font-size:58.9833px;}
	.st13{fill:#FFFFFF;stroke:#000000;stroke-miterlimit:10;}
	.st14{font-size:47.1867px;}
	.st15{font-size:20.4518px;}
	.st16{font-size:51.1295px;}
	.st17{font-size:22.3809px;}
	.st18{font-size:33.4057px;}
	.st19{font-size:14px;}
	.st20{font-size:13.7595px;}
	.st21{font-size:16px;}
	.st22{font-size:38px;}
</style>
<path class="st0" d="M-465.5,3.6c0.5,0,1.7,0,2.5,0c-1.8,0,2.9-0.2,7.6-0.3c2,0.1,6.1,0.1,5.7,0.1c0.3,0,0.5,0,0.6,0l1.4,0
	c-0.9,0-2.4,0.1-4,0.1c0.4,0,0.7,0,1.1,0c-1.3-0.1-5.4,0-7.7,0c0,0.1,0.8,0.1,0.8,0.1c-0.7,0-1.8,0-2.8,0.1c-0.3,0-0.7,0-1,0l-0.6,0
	c-0.7,0-1.5,0-2.2,0C-464.6,3.6-465.1,3.6-465.5,3.6 M-234,137.7c1.8,0-3.3,0-8,0.1c-2-0.1-5.7,0.1-5.3,0c-0.3,0-0.5,0-0.6,0l-1.4,0
	c0.9,0,2.4-0.1,4-0.1c-0.4,0-0.7,0-1.1,0c1.3,0.1,5.4,0,7.7,0c0-0.1-0.8-0.1-0.8-0.1c0.7,0,1.8,0,2.8-0.1c0.3,0,0.7,0,1,0l0.6,0
	c0.7,0,1.5,0,2.2,0C-232.4,137.7-233.2,137.7-234,137.7 M-470.6,39.4c-0.2,7.9-0.3,15.7-0.5,23.7c0.4,11.3,0.1,23.5,0.2,35.2
	c0.1,5,0.2,10.1,0.3,15.2c-0.1,3.5-0.1,7.1-0.1,10.7c0,4.7,0,9.3,0,14c9.1,0,18.1,0,26.9,0c7.3,0,14.5,0,21.4,0c0.3-0.2-5.4,0-7-0.1
	c4.6,0,9.3,0,14,0c14,0.1,28,0.2,42.1,0.2c3.4,0.1,7.6,0.1,9.1,0.2c6,0.1,3.6-0.1,8-0.1l0.6,0.2c6.5-0.1,9.4,0.2,15.5,0.1
	c0.3-0.1,2.5-0.1,4.7-0.1c0.1,0.2,6.7,0,6.3,0.2l0.1,0c1.3,0,2.2,0,3.8,0c2.5-0.1,25.7-0.6,28.2-0.6l1.2,0c3.5,0,5-0.1,2.9-0.2
	l4.3,0l-0.5,0l4.3,0c0.8,0,1.7,0.1,0.5,0.2c2.4-0.1,5.1-0.1,7.5-0.1c-4.3-0.1-9.3-0.2-14.1-0.3c2.7,0,5.5,0,8.2-0.1
	c3.8,0.1,8.5,0.1,12.4,0.2c1.3,0,2.2-0.2,5.2-0.1c1.5,0.1,3.4,0,5.8,0.1c-2.8,0.1-5.6,0-8.5,0c0.5,0.2,7,0.1,9.3,0.2
	c1.1-0.1,6.6,0,10.1,0c-1,0.1,0.5,0.1,2.3,0.1c0.3,0,0.7,0,1.1,0c-0.4,0-0.7,0-1,0c0.9,0,1.9-0.1,2.6,0c2.4,0,3.8-0.1,2.8-0.1
	c0.2,0,11.3-0.3,9.9-0.3c-0.7,0-0.8,0-0.6-0.1c0.3,0,0.5,0,0.4,0c0.3,0,0.6-0.1-0.5-0.1l-1,0c-1.8,0-2.7,0-3-0.1c0.9,0,1.9,0,2.8,0
	c1.6,0,3.2,0,4.8,0c0-0.5,0-1.1,0-1.6c0.6-3.8,0.1-4.2,0.6-7.6l-0.2,0.1c0.1-3,0.2-6,0.4-9.1c0-0.3,0-0.5,0-0.8
	c0.3-5.8,0.6-11.4,0.5-16.5c0-0.1,0-0.1,0-0.2c0.2-7.9,0.3-15.7,0.5-23.7c-0.4-11.3-0.1-23.5-0.2-35.2c-0.1-5-0.2-10.1-0.3-15.2
	c0.1-3.5,0.1-7.1,0.1-10.7c0-4.7,0-9.3,0-14c-9.1,0-18.1,0-26.9,0c-7.3,0-14.5,0-21.4,0c-0.3,0.2,5.4,0,7,0.1c-4.6,0-9.3,0-14,0
	c-14-0.1-28-0.2-42.1-0.2c-3.4-0.1-7.6-0.1-9.1-0.2c-6-0.1-3.6,0.1-8,0.1l-0.6-0.2c-6.5,0.1-9.4-0.2-15.5-0.1
	c-0.3,0.1-2.5,0.1-4.7,0.1c-0.1-0.2-6.7,0-6.3-0.2l-0.1,0c-1.3,0-2.2,0-3.8,0c-2.5,0.1-25.7,0.6-28.2,0.6l-1.2,0
	c-3.5,0-5,0.1-2.9,0.2l-4.3,0l0.5,0l-4.3,0c-0.8,0-1.7-0.1-0.5-0.2c-2.4,0.1-5.1,0.1-7.5,0.1c4.3,0.1,9.3,0.2,14.1,0.3
	c-2.7,0-5.5,0-8.2,0.1c-3.8-0.1-8.5-0.1-12.4-0.2c-1.3,0-2.2,0.2-5.2,0.1c-1.5-0.1-3.4,0-5.8-0.1c2.8-0.1,5.6,0,8.5,0
	c-0.5-0.2-7-0.1-9.3-0.2c-1.1,0.1-6.6,0-10.1,0c1-0.1-0.5-0.1-2.3-0.1c-0.3,0-0.7,0-1.1,0c0.4,0,0.7,0,1,0c-0.9,0-1.9,0-2.6-0.1
	c-2.4,0-3.9,0-2.9,0.1c-0.2,0,0.2,0.1,0.8,0.1c-5.6,0.1-12,0.3-10.7,0.3c0.7,0,0.8,0,0.6,0.1c-0.3,0-0.5,0-0.4,0
	c-0.3,0-0.6,0.1,0.5,0.1l1,0c1.8,0,2.7,0,3,0.1c-0.9,0-1.9,0-2.8,0c-1.6,0-3.2,0-4.8,0c0,0.5,0,1.1,0,1.6c-0.6,3.8-0.1,4.2-0.6,7.6
	l0.2-0.1c-0.1,3-0.2,6-0.4,9.1c0,0.3,0,0.5,0,0.8c-0.3,5.8-0.6,11.4-0.5,16.5C-470.6,39.3-470.6,39.4-470.6,39.4"/>
<path class="st1" d="M-45.5,322.9c0.1,0.1,0,0.4,0,0.7c0-0.5,0.5,0.8,0.9,2c-0.2,0.5-0.2,1.6-0.4,1.5c0,0.1,0.1,0.1,0.1,0.2
	l-0.1,0.4c-0.1-0.2-0.2-0.6-0.2-1.1c0,0.1,0.1,0.2,0.1,0.3c0.2-0.3,0.1-1.4,0.1-2.1c-0.2,0-0.2,0.2-0.3,0.2
	c-0.1-0.2-0.1-0.5-0.2-0.7c0-0.1,0-0.2,0-0.3l0-0.2c-0.1-0.2-0.1-0.4-0.1-0.6C-45.6,323.2-45.5,323-45.5,322.9 M-468,384.8
	c0,0.5,0-0.9-0.4-2.1c0.2-0.5-0.3-1.5-0.1-1.4c0-0.1-0.1-0.1-0.1-0.2l0.1-0.4c0.1,0.2,0.2,0.6,0.2,1.1c0-0.1-0.1-0.2-0.1-0.3
	c-0.2,0.3-0.1,1.4-0.1,2.1c0.2,0,0.2-0.2,0.3-0.2c0.1,0.2,0.1,0.5,0.2,0.7c0,0.1,0,0.2,0,0.3l0,0.2c0,0.2,0.1,0.4,0.1,0.6
	C-467.9,385.2-468,385-468,384.8 M-158.3,321.6c-24.8-0.1-49.6-0.1-74.6-0.1c-35.5,0.1-73.9,0-110.8,0.1c-15.7,0-31.9,0.1-47.8,0.1
	c-11,0-22.3,0-33.6,0c-14.7,0-29.4,0-44,0c0,2.4,0,4.8,0,7.2c0,2,0,3.9-0.1,5.7c0.5,0.1,0-1.5,0.4-1.9c0,1.2,0,2.5,0,3.7
	c-0.3,3.7-0.7,7.5-0.8,11.2c-0.2,0.9-0.5,2-0.6,2.4c-0.2,1.6,0.3,1,0.2,2.1l-0.5,0.2c0.4,1.7-0.6,2.5-0.4,4.1
	c0.2,0.1,0.2,0.7,0.2,1.3c-0.6,0,0,1.8-0.5,1.7l0,0c0,0.3,0,0.6-0.1,1c0.2,0.7,1.8,6.9,2,7.5l-0.1,0.3c0,0.9,0.4,1.3,0.5,0.8l0,1.1
	l0-0.1l0,1.1c-0.1,0.2-0.3,0.4-0.6,0.1c0.2,0.6,0.3,1.4,0.2,2c0.2-1.1,0.5-2.5,0.8-3.8c0.1,0.7,0.1,1.5,0.2,2.2
	c-0.2,1-0.4,2.3-0.6,3.3c0,0.4,0.7,0.6,0.4,1.4c-0.4,0.4,0,0.9-0.3,1.6c-0.2-0.8-0.1-1.5-0.1-2.3c-0.5,0.1-0.4,1.9-0.5,2.5
	c0.2,0.3,0,1.8,0.1,2.7c-0.3-0.3-0.4,0.1-0.4,0.6c0,0.1,0.1,0.2,0.1,0.3c0-0.1-0.1-0.2-0.1-0.3c0,0.2,0.2,0.5,0.1,0.7
	c-0.1,0.6,0.2,1,0.3,0.8c0.1,0,0.9,3,0.9,2.7c0-0.2,0.1-0.2,0.2-0.2c0,0.1,0.1,0.1,0.2,0.1c0.1,0.1,0.2,0.2,0.3-0.1l-0.1-0.3
	c0-0.5,0.1-0.7,0.3-0.8c0,0.2,0,0.5,0,0.8c0,0.4,0,0.9,0,1.3c1.7,0,3.3,0,5,0c12.1,0.2,13.1,0,24,0.2l-0.3,0c9.5,0,19,0.1,28.6,0.1
	c0.8,0,1.6,0,2.5,0c18.3,0.1,35.9,0.2,51.9,0.1c0.2,0,0.4,0,0.6,0c24.8,0.1,49.6,0.1,74.6,0.1c35.5-0.1,73.9,0,110.8-0.1
	c15.7,0,31.9-0.1,47.8-0.1c11,0,22.3,0,33.6,0c14.7,0,29.5,0,44,0c0-2.4,0-4.8,0-7.2c0-2,0-3.9,0.1-5.7c-0.5-0.1,0,1.5-0.4,1.9
	c0-1.2,0-2.5,0-3.7c0.3-3.7,0.7-7.5,0.8-11.2c0.2-0.9,0.5-2,0.6-2.4c0.2-1.6-0.3-1-0.2-2.1l0.5-0.2c-0.4-1.7,0.6-2.5,0.4-4.1
	c-0.2-0.1-0.2-0.7-0.2-1.3c0.6,0,0-1.8,0.5-1.7l0,0c0-0.3,0-0.6,0.1-1c-0.2-0.7-1.8-6.9-2-7.5l0.1-0.3c0-0.9-0.4-1.3-0.5-0.8l0-1.1
	l0,0.1l0-1.1c0.1-0.2,0.3-0.4,0.6-0.1c-0.2-0.6-0.3-1.4-0.2-2c-0.2,1.1-0.5,2.5-0.8,3.8c-0.1-0.7-0.1-1.5-0.2-2.2
	c0.2-1,0.4-2.3,0.6-3.3c0-0.4-0.7-0.6-0.4-1.4c0.4-0.4,0-0.9,0.3-1.6c0.2,0.8,0.1,1.5,0.1,2.3c0.5-0.1,0.4-1.9,0.5-2.5
	c-0.2-0.3,0-1.8-0.1-2.7c0.3,0.3,0.4-0.1,0.4-0.6c0-0.1-0.1-0.2-0.1-0.3c0,0.1,0.1,0.2,0.1,0.3c0-0.2,0.1-0.5,0.2-0.7
	c0.1-0.6-0.1-1-0.3-0.8c-0.1,0-0.2,0.1-0.3,0.2c-0.5-1.5-1-3.2-1-2.8c0,0.2-0.1,0.2-0.2,0.2c0-0.1-0.1-0.1-0.2-0.1
	c-0.1-0.1-0.2-0.2-0.3,0.1l0.1,0.3c0,0.5-0.1,0.7-0.3,0.8c0-0.2,0-0.5,0-0.8c0-0.4,0-0.9,0-1.3c-1.7,0-3.3,0-5,0
	c-12.1-0.2-13.1,0-24-0.2l0.3,0c-9.5,0-19-0.1-28.6-0.1c-0.8,0-1.6,0-2.5,0c-18.3-0.1-35.9-0.2-51.9-0.1
	C-158,321.6-158.2,321.6-158.3,321.6"/>
<path class="st2" d="M-227.5,243.5c0,0.1,0,0.5,0,0.7c0-0.5,0.3,0.8,0.5,2.2c-0.1,0.6-0.1,1.7-0.3,1.6c0,0.1,0,0.1,0,0.2l-0.1,0.4
	c-0.1-0.3-0.1-0.7-0.1-1.2c0,0.1,0,0.2,0.1,0.3c0.1-0.4,0.1-1.6,0.1-2.2c-0.1,0-0.1,0.2-0.2,0.2c0-0.2-0.1-0.5-0.1-0.8
	c0-0.1,0-0.2,0-0.3l0-0.2c0-0.2,0-0.4-0.1-0.6C-227.6,243.8-227.6,243.7-227.5,243.5 M-469.3,310.1c0,0.5,0-1-0.2-2.3
	c0.1-0.6-0.2-1.6,0-1.5c0-0.1,0-0.1,0-0.2l0.1-0.4c0.1,0.3,0.1,0.7,0.1,1.2c0-0.1-0.1-0.2-0.1-0.3c-0.1,0.4-0.1,1.6-0.1,2.2
	c0.1,0,0.1-0.2,0.2-0.2c0,0.2,0.1,0.5,0.1,0.8c0,0.1,0,0.2,0,0.3l0,0.2c0,0.2,0,0.4,0.1,0.6C-469.2,310.6-469.3,310.4-469.3,310.1
	 M-292.1,242.1c-14.2-0.1-28.4-0.1-42.7-0.1c-20.3,0.1-42.3,0-63.4,0.1c-9,0-18.2,0.1-27.4,0.1c-6.3,0-12.8,0-19.2,0
	c-8.4,0-16.8,0-25.2,0c0,2.6,0,5.2,0,7.7c0,2.1,0,4.2,0,6.2c0.3,0.1,0-1.6,0.3-2c0,1.3,0,2.7,0,4c-0.1,4-0.4,8.1-0.4,12.1
	c-0.1,1-0.3,2.2-0.4,2.6c-0.1,1.7,0.2,1,0.1,2.3l-0.3,0.2c0.3,1.9-0.3,2.7-0.2,4.5c0.1,0.1,0.1,0.7,0.1,1.4c-0.3,0,0,1.9-0.3,1.8
	l0,0c0,0.4,0,0.6,0,1.1c0.1,0.7,1,7.4,1.1,8.1l-0.1,0.3c0,1,0.3,1.4,0.3,0.8l0,1.2l0-0.1l0,1.2c0,0.2-0.2,0.5-0.3,0.1
	c0.1,0.7,0.2,1.5,0.1,2.2c0.1-1.2,0.3-2.7,0.5-4.1c0,0.8,0.1,1.6,0.1,2.4c-0.1,1.1-0.2,2.4-0.3,3.6c0,0.4,0.4,0.6,0.2,1.5
	c-0.3,0.4,0,1-0.2,1.7c-0.1-0.8-0.1-1.6-0.1-2.4c-0.3,0.1-0.2,2-0.3,2.7c0.1,0.3,0,1.9,0.1,2.9c-0.2-0.3-0.2,0.1-0.2,0.7
	c0,0.1,0,0.2,0.1,0.3c0-0.1,0-0.2-0.1-0.3c0,0.3,0.1,0.5,0.1,0.7c0,0.7,0.1,1.1,0.2,0.8c0.1,0,0.5,3.2,0.5,2.9
	c0-0.2,0.1-0.2,0.1-0.2c0,0.1,0,0.1,0.1,0.1c0.1,0.1,0.1,0.2,0.2-0.1l-0.1-0.3c0-0.5,0.1-0.8,0.2-0.9c0,0.3,0,0.5,0,0.8
	c0,0.5,0,0.9,0,1.4c1,0,1.9,0,2.9,0c6.9,0.2,7.5,0,13.7,0.2l-0.2,0c5.4,0,10.9,0.1,16.3,0.1c0.5,0,0.9,0,1.4,0
	c10.4,0.1,20.5,0.2,29.7,0.1c0.1,0,0.2,0,0.3,0c14.2,0.1,28.4,0.1,42.7,0.1c20.3-0.1,42.3,0,63.4-0.1c9,0,18.2-0.1,27.4-0.1
	c6.3,0,12.8,0,19.2,0c8.4,0,16.9,0,25.2,0c0-2.6,0-5.2,0-7.7c0-2.1,0-4.2,0-6.2c-0.3-0.1,0,1.6-0.3,2c0-1.3,0-2.7,0-4
	c0.1-4,0.4-8.1,0.4-12.1c0.1-1,0.3-2.2,0.4-2.6c0.1-1.7-0.2-1-0.1-2.3l0.3-0.2c-0.3-1.9,0.3-2.7,0.2-4.5c-0.1-0.1-0.1-0.7-0.1-1.4
	c0.3,0,0-1.9,0.3-1.8l0,0c0-0.4,0-0.6,0-1.1c-0.1-0.7-1-7.4-1.1-8.1l0.1-0.3c0-1-0.3-1.4-0.3-0.8l0-1.2l0,0.1l0-1.2
	c0-0.2,0.2-0.5,0.3-0.1c-0.1-0.7-0.2-1.5-0.1-2.2c-0.1,1.2-0.3,2.7-0.5,4.1c0-0.8-0.1-1.6-0.1-2.4c0.1-1.1,0.2-2.4,0.3-3.6
	c0-0.4-0.4-0.6-0.2-1.5c0.3-0.4,0-1,0.2-1.7c0.1,0.8,0.1,1.6,0.1,2.4c0.3-0.1,0.2-2,0.3-2.7c-0.1-0.3,0-1.9-0.1-2.9
	c0.2,0.3,0.2-0.1,0.2-0.7c0-0.1,0-0.2-0.1-0.3c0,0.1,0,0.2,0.1,0.3c0-0.3,0-0.5,0.1-0.7c0-0.7-0.1-1.1-0.2-0.8
	c-0.1,0-0.1,0.1-0.1,0.2c-0.3-1.6-0.5-3.5-0.6-3.1c0,0.2-0.1,0.2-0.1,0.2c0-0.1,0-0.1-0.1-0.1c-0.1-0.1-0.1-0.2-0.2,0.1l0.1,0.3
	c0,0.5-0.1,0.8-0.2,0.9c0-0.3,0-0.5,0-0.8c0-0.5,0-0.9,0-1.4c-1,0-1.9,0-2.9,0c-6.9-0.2-7.5,0-13.7-0.2l0.2,0
	c-5.4,0-10.9-0.1-16.3-0.1c-0.5,0-0.9,0-1.4,0c-10.4-0.1-20.5-0.2-29.7-0.1C-291.9,242.1-292,242.1-292.1,242.1"/>
<path class="st1" d="M-214.5,4.9c0.4,0,1.2,0,1.8,0c-1.3,0,2.1-0.2,5.5-0.3c1.4,0.1,4.4,0.1,4.1,0.1c0.2,0,0.3,0,0.4,0l1,0
	c-0.6,0-1.8,0.1-2.9,0.1c0.3,0,0.5,0,0.8,0c-0.9-0.1-3.9,0-5.6,0c0,0.1,0.6,0.1,0.6,0.1c-0.5,0-1.3,0-2,0.1c-0.2,0-0.5,0-0.7,0
	l-0.4,0c-0.5,0-1.1,0-1.6,0C-213.9,4.9-214.2,4.9-214.5,4.9 M-46.5,138.5c1.3,0-2.4,0-5.8,0.1c-1.4-0.1-4.1,0.1-3.9,0
	c-0.2,0-0.3,0-0.4,0l-1,0c0.6,0,1.8-0.1,2.9-0.1c-0.3,0-0.5,0-0.8,0c0.9,0.1,3.9,0,5.6,0c0-0.1-0.6-0.1-0.6-0.1c0.5,0,1.3,0,2-0.1
	c0.2,0,0.5,0,0.7,0l0.4,0c0.5,0,1.1,0,1.6,0C-45.3,138.5-45.9,138.5-46.5,138.5 M-218.2,40.6c-0.1,7.8-0.3,15.7-0.3,23.6
	c0.3,11.2,0.1,23.4,0.1,35c0.1,5,0.1,10.1,0.2,15.1c-0.1,3.5-0.1,7.1-0.1,10.6c0,4.6,0,9.3,0,13.9c6.6,0,13.2,0,19.5,0
	c5.3,0,10.5,0,15.5,0c0.2-0.2-3.9,0-5.1-0.1c3.3,0,6.7,0,10.2,0c10.1,0.1,20.3,0.2,30.5,0.2c2.5,0.1,5.5,0.1,6.6,0.2
	c4.4,0.1,2.6-0.1,5.8-0.1l0.4,0.2c4.7-0.1,6.9,0.2,11.3,0.1c0.2-0.1,1.8-0.1,3.4-0.1c0.1,0.2,4.8,0,4.6,0.2l0,0c0.9,0,1.6,0,2.8,0
	c1.8-0.1,18.6-0.6,20.5-0.6l0.8,0c2.5,0,3.6-0.1,2.1-0.2l3.1,0l-0.4,0l3.1,0c0.6,0,1.2,0.1,0.3,0.2c1.7-0.1,3.7-0.1,5.5-0.1
	c-3.1-0.1-6.7-0.2-10.3-0.3c2,0,4,0,6-0.1c2.8,0.1,6.2,0.1,9,0.2c1,0,1.6-0.2,3.8-0.1c1.1,0.1,2.4,0,4.2,0.1c-2.1,0.1-4.1,0-6.2,0
	c0.4,0.2,5.1,0.1,6.7,0.2c0.8-0.1,4.8,0,7.3,0c-0.7,0.1,0.4,0.1,1.6,0.1c0.2,0,0.5,0,0.8,0c-0.3,0-0.5,0-0.8,0c0.7,0,1.4-0.1,1.9,0
	c1.7,0,2.7,0,2-0.1c0.1,0,8.2-0.3,7.2-0.3c-0.5,0-0.6,0-0.5-0.1c0.2,0,0.4,0,0.3,0c0.2,0,0.4-0.1-0.3-0.1l-0.7,0c-1.3,0-2,0-2.2-0.1
	c0.7,0,1.4,0,2,0c1.2,0,2.3,0,3.5,0c0-0.5,0-1.1,0-1.6c0.4-3.8,0-4.1,0.4-7.6l-0.1,0.1c0.1-3,0.2-6,0.3-9c0-0.3,0-0.5,0-0.8
	c0.2-5.8,0.4-11.3,0.4-16.4c0-0.1,0-0.1,0-0.2c0.1-7.8,0.3-15.7,0.3-23.6c-0.3-11.2-0.1-23.4-0.1-35c-0.1-5-0.1-10.1-0.2-15.1
	c0.1-3.5,0.1-7.1,0.1-10.6c0-4.6,0-9.3,0-13.9c-6.6,0-13.2,0-19.5,0c-5.3,0-10.5,0-15.5,0c-0.2,0.2,3.9,0,5.1,0.1
	c-3.3,0-6.7,0-10.2,0c-10.1-0.1-20.3-0.2-30.5-0.2c-2.5,0-5.5-0.1-6.6-0.2c-4.4-0.1-2.6,0.1-5.8,0.1l-0.4-0.2
	c-4.7,0.1-6.9-0.2-11.3-0.1c-0.2,0.1-1.8,0.1-3.4,0.1c-0.1-0.2-4.8,0-4.6-0.2l0,0c-0.9,0-1.6,0-2.8,0c-1.8,0.1-18.6,0.6-20.5,0.6
	l-0.8,0c-2.5,0-3.6,0.1-2.1,0.2l-3.1,0l0.4,0l-3.1,0c-0.6,0-1.2-0.1-0.3-0.2c-1.7,0.1-3.7,0.1-5.5,0.1c3.1,0.1,6.7,0.2,10.3,0.3
	c-2,0-4,0-6,0.1c-2.8-0.1-6.2-0.1-9-0.2c-1,0-1.6,0.2-3.8,0.1c-1.1-0.1-2.4,0-4.2-0.1c2.1-0.1,4.1,0,6.2,0c-0.4-0.2-5.1-0.1-6.7-0.2
	c-0.8,0.1-4.8,0-7.3,0c0.7-0.1-0.4-0.1-1.6-0.1c-0.2,0-0.5,0-0.8,0c0.3,0,0.5,0,0.8,0c-0.7,0-1.4,0-1.9-0.1c-1.7,0-2.8,0-2.1,0.1
	c-0.1,0,0.1,0.1,0.6,0.1c-4,0.1-8.7,0.3-7.7,0.3c0.5,0,0.6,0,0.5,0.1c-0.2,0-0.4,0-0.3,0c-0.2,0-0.4,0.1,0.3,0.1l0.7,0
	c1.3,0,2,0,2.2,0.1c-0.7,0-1.4,0-2,0c-1.2,0-2.3,0-3.5,0c0,0.5,0,1.1,0,1.6c-0.4,3.8,0,4.1-0.4,7.6l0.1-0.1c-0.1,3-0.2,6-0.3,9
	c0,0.3,0,0.5,0,0.8c-0.2,5.8-0.4,11.3-0.4,16.4C-218.2,40.4-218.2,40.5-218.2,40.6"/>
<path class="st0" d="M-214.6,148.8c0.4,0,1.2,0,1.8,0c-1.3,0,2.1-0.2,5.5-0.4c1.4,0.1,4.4,0.1,4.1,0.2c0.2,0,0.3,0,0.4,0l1,0
	c-0.6,0-1.7,0.1-2.9,0.1c0.3,0,0.5,0,0.8,0c-0.9-0.1-3.9,0-5.5,0c0,0.1,0.6,0.1,0.5,0.1c-0.5,0-1.3,0.1-2,0.1c-0.2,0-0.5,0-0.7,0
	l-0.4,0c-0.5,0-1.1,0-1.6,0C-213.9,148.8-214.3,148.8-214.6,148.8 M-48.2,311.8c1.3,0-2.4,0-5.7,0.2c-1.4-0.1-4.1,0.1-3.8,0
	c-0.2,0-0.3,0-0.4,0l-1,0c0.6,0,1.7-0.1,2.9-0.1c-0.3,0-0.5,0-0.8,0c0.9,0.1,3.9,0,5.5,0c0-0.1-0.6-0.1-0.5-0.1c0.5,0,1.3-0.1,2-0.1
	c0.2,0,0.5,0,0.7,0l0.4,0c0.5,0,1.1,0,1.6,0C-47.1,311.7-47.6,311.8-48.2,311.8 M-218.2,192.3c-0.1,9.5-0.2,19.1-0.3,28.8
	c0.3,13.7,0.1,28.5,0.1,42.7c0.1,6.1,0.1,12.3,0.2,18.4c-0.1,4.3-0.1,8.6-0.1,13c0,5.7,0,11.4,0,17c6.6,0,13,0,19.3,0
	c5.3,0,10.4,0,15.4,0c0.2-0.2-3.9,0-5-0.2c3.3,0,6.7,0,10.1,0c10,0.1,20.1,0.3,30.2,0.3c2.4,0.1,5.4,0.2,6.6,0.2
	c4.3,0.1,2.6-0.1,5.7-0.1l0.4,0.2c4.6-0.2,6.8,0.2,11.2,0.1c0.2-0.1,1.8-0.1,3.4-0.1c0.1,0.2,4.8,0,4.6,0.2l0,0c0.9,0,1.6,0,2.7,0
	c1.8-0.1,18.4-0.7,20.2-0.8l0.8,0c2.5,0,3.6-0.2,2.1-0.2l3.1,0l-0.4,0l3.1,0c0.6,0,1.2,0.1,0.3,0.2c1.7-0.1,3.7-0.1,5.4-0.1
	c-3.1-0.1-6.7-0.2-10.1-0.3c2,0,3.9,0,5.9-0.1c2.7,0.1,6.1,0.2,8.9,0.2c0.9,0,1.6-0.3,3.7-0.1c1,0.2,2.4,0,4.2,0.1c-2,0.1-4,0-6.1,0
	c0.4,0.2,5,0.1,6.7,0.2c0.8-0.1,4.8,0,7.3-0.1c-0.7,0.1,0.4,0.1,1.6,0.2c0.2,0,0.5,0,0.8,0c-0.3,0-0.5,0-0.7,0
	c0.7,0,1.4-0.1,1.9-0.1c1.7,0,2.7-0.1,2-0.1c0.1,0,8.1-0.3,7.1-0.3c-0.5,0-0.6,0-0.5-0.1c0.2,0,0.4,0,0.3-0.1c0.2,0,0.4-0.1-0.3-0.1
	l-0.7,0.1c-1.3,0-1.9,0-2.2-0.1c0.7,0,1.3,0,2,0c1.2,0,2.3,0,3.5,0c0-0.6,0-1.3,0-1.9c0.4-4.7,0-5.1,0.4-9.2l-0.1,0.1
	c0.1-3.7,0.2-7.3,0.3-11c0-0.3,0-0.6,0-0.9c0.2-7,0.4-13.8,0.4-20c0-0.1,0-0.2,0-0.2c0.1-9.5,0.2-19.1,0.3-28.8
	c-0.3-13.7-0.1-28.5-0.1-42.7c-0.1-6.1-0.1-12.3-0.2-18.4c0.1-4.3,0.1-8.6,0.1-13c0-5.7,0-11.4,0-17c-6.6,0-13,0-19.3,0
	c-5.3,0-10.4,0-15.4,0c-0.2,0.2,3.9,0,5,0.2c-3.3,0-6.7,0-10.1,0c-10-0.1-20.1-0.3-30.2-0.3c-2.4-0.1-5.4-0.2-6.6-0.2
	c-4.3-0.1-2.6,0.1-5.7,0.1l-0.4-0.2c-4.6,0.2-6.8-0.2-11.2-0.1c-0.2,0.1-1.8,0.1-3.4,0.1c-0.1-0.2-4.8,0-4.6-0.2l0,0
	c-0.9,0-1.6,0-2.7,0c-1.8,0.1-18.4,0.7-20.2,0.8l-0.8,0c-2.5,0-3.6,0.2-2.1,0.2l-3.1,0l0.4,0l-3.1,0c-0.6,0-1.2-0.1-0.3-0.2
	c-1.7,0.1-3.7,0.1-5.4,0.1c3.1,0.1,6.7,0.2,10.1,0.3c-2,0-3.9,0-5.9,0.1c-2.7-0.1-6.1-0.2-8.9-0.2c-0.9,0-1.6,0.3-3.7,0.1
	c-1-0.2-2.4,0-4.2-0.1c2-0.1,4-0.1,6.1,0c-0.4-0.2-5-0.1-6.7-0.2c-0.8,0.1-4.8,0-7.3,0.1c0.7-0.1-0.4-0.1-1.6-0.2
	c-0.2,0-0.5,0-0.8,0c0.3,0,0.5,0,0.7,0c-0.7,0-1.4,0-1.9-0.1c-1.7,0-2.8,0.1-2.1,0.1c-0.1,0,0.1,0.1,0.6,0.1c-4,0.2-8.6,0.4-7.7,0.4
	c0.5,0,0.6,0,0.5,0.1c-0.2,0-0.4,0-0.3,0.1c-0.2,0-0.4,0.1,0.3,0.1l0.7-0.1c1.3,0,1.9,0,2.2,0.1c-0.7,0-1.3,0-2,0
	c-1.2,0-2.3,0-3.5,0c0,0.6,0,1.3,0,1.9c-0.4,4.7,0,5.1-0.4,9.2l0.1-0.1c-0.1,3.7-0.2,7.3-0.3,11c0,0.3,0,0.6,0,0.9
	c-0.2,7-0.4,13.8-0.4,20C-218.2,192.2-218.2,192.3-218.2,192.3"/>
<path class="st1" d="M-227.5,149.6c0,0.2,0,0.6,0,0.9c0-0.6,0.3,1,0.5,2.7c-0.1,0.7-0.1,2.1-0.3,2c0,0.1,0,0.2,0,0.2l-0.1,0.5
	c-0.1-0.3-0.1-0.9-0.1-1.4c0,0.1,0,0.3,0.1,0.4c0.1-0.5,0.1-1.9,0.1-2.7c-0.1,0-0.1,0.3-0.2,0.3c0-0.3-0.1-0.6-0.1-1
	c0-0.1,0-0.2,0-0.3l0-0.2c0-0.2,0-0.5-0.1-0.8C-227.6,149.9-227.6,149.7-227.5,149.6 M-469.3,230.9c0,0.6,0-1.2-0.2-2.8
	c0.1-0.7-0.2-2,0-1.9c0-0.1,0-0.2,0-0.2l0.1-0.5c0.1,0.3,0.1,0.9,0.1,1.4c0-0.1-0.1-0.3-0.1-0.4c-0.1,0.5-0.1,1.9-0.1,2.7
	c0.1,0,0.1-0.3,0.2-0.3c0,0.3,0.1,0.6,0.1,1c0,0.1,0,0.2,0,0.3l0,0.2c0,0.2,0,0.5,0.1,0.8C-469.2,231.5-469.3,231.2-469.3,230.9
	 M-292.1,147.8c-14.2-0.1-28.4-0.1-42.7-0.2c-20.3,0.1-42.3,0-63.4,0.1c-9,0-18.2,0.1-27.4,0.1c-6.3,0-12.8,0-19.2,0
	c-8.4,0-16.8,0-25.2,0c0,3.2,0,6.4,0,9.4c0,2.6,0,5.1,0,7.5c0.3,0.1,0-1.9,0.3-2.5c0,1.6,0,3.3,0,4.9c-0.1,4.9-0.4,9.8-0.4,14.8
	c-0.1,1.2-0.3,2.7-0.4,3.2c-0.1,2.1,0.2,1.3,0.1,2.8l-0.3,0.2c0.3,2.3-0.3,3.3-0.2,5.5c0.1,0.1,0.1,0.9,0.1,1.7
	c-0.3,0,0,2.3-0.3,2.2l0,0c0,0.5,0,0.8,0,1.3c0.1,0.9,1,9,1.1,9.9l-0.1,0.4c0,1.2,0.3,1.7,0.3,1l0,1.5l0-0.2l0,1.5
	c0,0.3-0.2,0.6-0.3,0.2c0.1,0.8,0.2,1.8,0.1,2.6c0.1-1.5,0.3-3.3,0.5-5c0,1,0.1,1.9,0.1,2.9c-0.1,1.3-0.2,3-0.3,4.4
	c0,0.5,0.4,0.8,0.2,1.8c-0.3,0.5,0,1.2-0.2,2c-0.1-1-0.1-2-0.1-3c-0.3,0.2-0.2,2.5-0.3,3.3c0.1,0.4,0,2.3,0.1,3.6
	c-0.2-0.4-0.2,0.2-0.2,0.8c0,0.1,0,0.2,0.1,0.4c0-0.1,0-0.2-0.1-0.4c0,0.3,0.1,0.7,0.1,0.9c0,0.8,0.1,1.3,0.2,1
	c0.1,0.1,0.5,4,0.5,3.5c0-0.3,0.1-0.3,0.1-0.2c0,0.1,0,0.2,0.1,0.1c0.1,0.1,0.1,0.2,0.2-0.2l-0.1-0.3c0-0.6,0.1-0.9,0.2-1.1
	c0,0.3,0,0.7,0,1c0,0.6,0,1.1,0,1.7c1,0,1.9,0,2.9,0c6.9,0.2,7.5,0,13.7,0.2l-0.2-0.1c5.4,0,10.9,0.1,16.3,0.1c0.5,0,0.9,0,1.4,0
	c10.4,0.1,20.5,0.2,29.7,0.2c0.1,0,0.2,0,0.3,0c14.2,0.1,28.4,0.1,42.7,0.2c20.3-0.1,42.3,0,63.4-0.1c9,0,18.2-0.1,27.4-0.1
	c6.3,0,12.8,0,19.2,0c8.4,0,16.9,0,25.2,0c0-3.2,0-6.4,0-9.4c0-2.6,0-5.1,0-7.5c-0.3-0.1,0,1.9-0.3,2.5c0-1.6,0-3.3,0-4.9
	c0.1-4.9,0.4-9.8,0.4-14.8c0.1-1.2,0.3-2.7,0.4-3.2c0.1-2.1-0.2-1.3-0.1-2.8l0.3-0.2c-0.3-2.3,0.3-3.3,0.2-5.5
	c-0.1-0.1-0.1-0.9-0.1-1.7c0.3,0,0-2.3,0.3-2.2l0,0c0-0.5,0-0.8,0-1.3c-0.1-0.9-1-9-1.1-9.9l0.1-0.4c0-1.2-0.3-1.7-0.3-1l0-1.5
	l0,0.2l0-1.5c0-0.3,0.2-0.6,0.3-0.2c-0.1-0.8-0.2-1.8-0.1-2.6c-0.1,1.5-0.3,3.3-0.5,5c0-1-0.1-1.9-0.1-2.9c0.1-1.3,0.2-3,0.3-4.4
	c0-0.5-0.4-0.8-0.2-1.8c0.3-0.5,0-1.2,0.2-2c0.1,1,0.1,2,0.1,3c0.3-0.2,0.2-2.5,0.3-3.3c-0.1-0.4,0-2.3-0.1-3.6
	c0.2,0.4,0.2-0.2,0.2-0.8c0-0.1,0-0.2-0.1-0.4c0,0.1,0,0.2,0.1,0.4c0-0.3,0-0.7,0.1-0.9c0-0.8-0.1-1.4-0.2-1
	c-0.1-0.1-0.1,0.1-0.1,0.3c-0.3-2-0.5-4.2-0.6-3.7c0,0.3-0.1,0.3-0.1,0.2c0-0.1,0-0.2-0.1-0.1c-0.1-0.1-0.1-0.2-0.2,0.2l0.1,0.3
	c0,0.6-0.1,0.9-0.2,1.1c0-0.3,0-0.7,0-1c0-0.6,0-1.1,0-1.7c-1,0-1.9,0-2.9,0c-6.9-0.2-7.5,0-13.7-0.2l0.2,0.1
	c-5.4,0-10.9-0.1-16.3-0.1c-0.5,0-0.9,0-1.4,0c-10.4-0.1-20.5-0.2-29.7-0.2C-291.9,147.8-292,147.8-292.1,147.8"/>
<rect x="-458.4" y="17.1" class="st5" width="225.6" height="16.3"/>
<text transform="matrix(1 0 0 1 -458.3662 29.1396)" class="st3 st6" style="font-size:16.611px;">Työhömme ohjelmamaissa osallistui </text>
<rect x="-459" y="47.2" class="st5" width="266.9" height="74"/>
<text transform="matrix(1 0 0 1 -374.3872 78.2553)" class="st3 st6" style="font-size:14.5852px;">tyttöä </text>
<text transform="matrix(1 0 0 1 -374.9028 62.3974)" class="st1 st6" style="font-size:26.7396px;">42 600</text>
<text transform="matrix(1 0 0 1 -457.4995 78.2553)" class="st3 st6" style="font-size:14.5852px;">lasta</text>
<text transform="matrix(1 0 0 1 -458.1011 62.3974)" class="st1 st6" style="font-size:26.7396px;">78 600</text>
<text transform="matrix(1 0 0 1 -457.0986 108.5443)" class="st1 st6" style="font-size:26.7396px;">91 400</text>
<text transform="matrix(1 0 0 1 -457.0337 123.7524)" class="st3 st6" style="font-size:14.5852px;">aikuista</text>
<g>
	<text transform="matrix(1 0 0 1 -249.51 377.8382)" class="st3 st6 st21">koululaiselle </text>
	<text transform="matrix(1 0 0 1 -250.2526 358.2678)" class="st2 st6 st22">19 000</text>
</g>
<g>
	<text transform="matrix(1 0 0 1 -144.8796 359.0698)" class="st2 st6 st22">12 100</text>
	<text transform="matrix(1 0 0 1 -143.643 377.8382)" class="st3 st6 st21">aikuiselle</text>
</g>
<g>
	<text transform="matrix(1 0 0 1 -373.7935 108.5443)" class="st1 st6" style="font-size:26.7396px;">53 500</text>
	<text transform="matrix(1 0 0 1 -374.9028 124.4018)"><tspan x="0" y="0" class="st1 st6" style="font-size:12.1544px;"> </tspan><tspan x="2.4" y="0" class="st3 st6" style="font-size:14.5852px;">naista</tspan></text>
</g>
<g>
	<text transform="matrix(1 0 0 1 -296.7847 108.5443)" class="st1 st6" style="font-size:26.7396px;">37 900 </text>
	<text transform="matrix(1 0 0 1 -295.7969 123.7524)" class="st3 st6" style="font-size:14.5852px;">miestä</text>
</g>
<text transform="matrix(1 0 0 1 -459.9901 223.3235)" class="st3 st6" style="font-size:24px;">varhaiskasvatuskeskusta</text>
<rect x="-460" y="158.2" class="st5" width="129.5" height="71.5"/>
<text transform="matrix(1 0 0 1 -459.99 175.6037)"><tspan x="0" y="0" class="st3 st6" style="font-size:24px;">Perustimme </tspan><tspan x="0" y="24" class="st3 st6" style="font-size:24px;">tai tuimme </tspan></text>
<text transform="matrix(1 0 0 1 -340.4456 199.7894)" class="st2 st6" style="font-size:60px;">554</text>
<rect x="-461.5" y="331" class="st5" width="208.5" height="60.6"/>
<text transform="matrix(1 0 0 1 -461.5 342.5542)"><tspan x="0" y="0" class="st3 st6 st21">Suomessa Globaalikoulumme </tspan><tspan x="0" y="18" class="st3 st6 st21">tarjosi opetusta globaalin </tspan><tspan x="0" y="36" class="st3 st6 st21">vastuun kysymyksistä</tspan></text>
<rect x="-459" y="254.8" class="st5" width="217.3" height="85.3"/>
<text transform="matrix(1 0 0 1 -459.0003 266.3642)"><tspan x="0" y="0" class="st3 st6 st21">Paransimme opettajien osaamista ja </tspan><tspan x="0" y="18" class="st3 st6 st21">lasten ja nuorten osallistumista </tspan><tspan x="0" y="36" class="st3 st6 st21">kouluhallintoon </tspan><tspan x="101.7" y="36" class="st1 st6 st21">170</tspan><tspan x="118.3" y="36" class="st3 st6 st21"> koulussa.</tspan></text>
<rect x="-209" y="21.2" class="st5" width="164.5" height="162.4"/>
<text transform="matrix(1 0 0 1 -209.0453 57.4184)"><tspan x="0" y="0" class="st2 st6" style="font-size:15px;">Tuimme </tspan><tspan x="42.6" y="0" class="st3 st6" style="font-size:50px;">44 500</tspan><tspan x="152.9" y="0" class="st13 st6" style="font-size:40px;"> </tspan><tspan x="0" y="17" class="st2 st6" style="font-size:15px;">alle kuusivuotiaan lapsen </tspan><tspan x="0" y="34" class="st2 st6" style="font-size:15px;">varhaiskasvatusta kotona ja </tspan><tspan x="0" y="51" class="st2 st6" style="font-size:15px;">varhaiskasvatuskeskuksissa </tspan><tspan x="0" y="68" class="st2 st6" style="font-size:15px;">kuudessa maassa.  </tspan></text>
<text transform="matrix(1 0 0 1 -205.1395 212.3735)" class="st3 st6" style="font-size:24px;">tyttöä </text>
<text transform="matrix(1 0 0 1 -205.83 186.1293)" class="st1 st6" style="font-size:35.8224px;">11 100</text>
<text transform="matrix(1 0 0 1 -124.8163 212.3735)" class="st3 st6" style="font-size:24px;">poikaa</text>
<text transform="matrix(1 0 0 1 -126.3475 186.1293)" class="st1 st6" style="font-size:35.8224px;">6 800 </text>
<text transform="matrix(1 0 0 1 -205.3137 240.8736)"><tspan x="0" y="0" class="st3 st6" style="font-size:19px;">sai meiltä koulutusta </tspan><tspan x="0" y="20" class="st3 st6" style="font-size:19px;">oikeuksistaan ja </tspan><tspan x="0" y="40" class="st3 st6" style="font-size:19px;">lasten suojelusta </tspan><tspan x="0" y="60" class="st3 st6" style="font-size:19px;">väkivallalta.</tspan></text>
<g>
	<text transform="matrix(1 0 0 1 -295.6421 77.6054)" class="st3 st6" style="font-size:14.5852px;">poikaa</text>
	<text transform="matrix(1 0 0 1 -296.7852 62.3974)" class="st1 st6" style="font-size:26.7396px;">36 000 </text>
</g>
<g>
	<path class="st4" d="M-730.7,321.8c0.2,0,0.5,0,0.8-0.1c-1.2,0-2.4,0.1-3.1,0.1l1.1,0.1c0.1,0,0.3,0,0.5,0c-0.2,0.1,0.6,0,1.6,0
		C-730.2,321.8-730.5,321.8-730.7,321.8z"/>
	<path class="st4" d="M-886.2,79.7c0.3-0.2-2.9-0.2-4.4-0.3c-3.6,0.3-7.2,0.5-5.8,0.5c-0.6,0-1.5,0-1.9,0c0.3,0,0.7,0.1,1.1,0.1
		c0.5,0,1.1,0,1.7-0.1l0.5,0c0.2,0,0.5,0,0.7,0c0.8,0,1.6-0.1,2.1-0.1c0-0.1-0.6-0.1-0.6-0.2c1.7,0,4.9-0.1,5.9,0.1
		c-0.2,0-0.5,0-0.8,0.1c1.2,0,2.4-0.1,3.1-0.1l-1.1-0.1C-885.9,79.6-886,79.6-886.2,79.7z"/>
	<path class="st4" d="M-723.3,321.5c-0.8,0-1.6,0.1-2.1,0.1c0,0,0,0,0.1,0c2.8-0.1,5.2-0.1,4.1-0.1c0.6,0,1.2-0.1,0.8-0.1
		c-0.5,0-1.1,0-1.7,0.1l-0.5,0C-722.8,321.5-723,321.5-723.3,321.5z"/>
	<path class="st4" d="M-907,72.4v257.3h197.3V72.4H-907z M-715.4,257.3c0,9.2-0.2,19.2-0.4,29.6c0,0.5,0,0.9,0,1.4
		c-0.1,5.4-0.2,10.9-0.3,16.3l0.1-0.2c-0.4,6.2,0,6.8-0.4,13.7c0,1,0,1.9,0,2.9c-1.2,0-2.5,0-3.7,0c-0.7,0-1.4,0-2.2,0
		c0.2,0.1,0.9,0.2,2.3,0.2l0.7-0.1c0.8,0,0.6,0.1,0.4,0.2c0.1,0-0.1,0.1-0.3,0.1c-0.1,0-0.1,0.1,0.5,0.1c1,0-7.5,0.4-7.6,0.5
		c0.7,0.1-0.3,0.2-2.1,0.2c-0.5-0.1-1.3,0.1-2,0.1c0.3,0,0.5,0,0.8-0.1c-0.3,0-0.6,0-0.8,0.1c-1.3,0-2.5-0.1-1.7-0.2
		c-2.7,0.1-6.9,0-7.7,0.1c-1.7-0.1-6.7,0-7.1-0.3c2.2,0,4.3,0.1,6.5-0.1c-1.9-0.2-3.4,0.1-4.5-0.2c-2.3-0.2-3,0.2-4,0.2
		c-3-0.1-6.6-0.2-9.5-0.3c-2.1,0-4.2,0.1-6.3,0.1c3.7,0.2,7.5,0.3,10.8,0.5c-1.8-0.1-3.9,0-5.8,0.1c0.9-0.1,0.2-0.3-0.4-0.3l-3.3,0
		l0.4,0l-3.3,0c1.5,0.1,0.4,0.3-2.2,0.3l-0.9-0.1c-1.9,0.1-19.7,1-21.6,1.1c-1.2-0.1-1.9,0-2.9,0l0,0c0.2-0.3-4.8,0.1-4.9-0.3
		c-1.7,0-3.3,0-3.6,0.1c-4.7,0.1-6.9-0.5-11.9-0.2l-0.5-0.3c-3.4,0-1.5,0.2-6.1,0.1c-1.2-0.1-4.4-0.3-7-0.4
		c-10.8,0-21.5-0.3-32.2-0.4c-3.6,0-7.2,0-10.7,0c1.2,0.2,5.6,0,5.3,0.3c-5.3,0-10.7,0-16.4,0c-6.7,0-13.6,0-20.6,0
		c0-8.3,0-16.7,0-25.1c0-6.5,0-12.9,0.1-19.2c-0.1-9.1-0.1-18.4-0.2-27.3c-0.1-21.1,0.2-43.1-0.1-63.3c0.1-14.3,0.2-28.5,0.3-42.6
		c0-0.1,0-0.2,0-0.3c0-9.2,0.2-19.2,0.4-29.6c0-0.5,0-0.9,0-1.4c0.1-5.4,0.2-10.9,0.3-16.3l-0.1,0.2c0.4-6.2,0-6.8,0.4-13.7
		c0-1,0-1.9,0-2.9c1.2,0,2.5,0,3.7,0c0.7,0,1.4,0,2.2,0c-0.2-0.1-0.9-0.2-2.3-0.2l-0.7,0.1c-0.8,0-0.6-0.1-0.4-0.2
		c-0.1,0,0.1-0.1,0.3-0.1c0.1,0,0.1-0.1-0.5-0.1c-1,0,3.9-0.3,8.1-0.6c-0.5,0-0.7-0.1-0.6-0.2c-0.7-0.1,0.4-0.2,2.2-0.2
		c0.5,0.1,1.3,0.1,2,0.1c-0.3,0-0.5,0-0.8,0.1c0.3,0,0.6,0,0.8-0.1c1.3,0,2.5,0.1,1.7,0.2c2.7-0.1,6.9,0,7.7-0.1
		c1.7,0.1,6.7,0,7.1,0.3c-2.2,0-4.3-0.1-6.5,0.1c1.9,0.2,3.3-0.1,4.5,0.2c2.3,0.2,3-0.2,4-0.2c3,0.1,6.6,0.2,9.5,0.3
		c2.1,0,4.2-0.1,6.3-0.1c-3.7-0.2-7.5-0.4-10.8-0.5c1.8,0.1,3.9,0,5.8-0.1c-0.9,0.1-0.2,0.3,0.4,0.3l3.3,0l-0.4,0l3.3,0
		c-1.5-0.1-0.4-0.3,2.2-0.3l0.9,0.1c1.9-0.1,19.7-1,21.6-1.1c1.2,0.1,1.9,0,2.9,0l0,0c-0.2,0.3,4.8-0.1,4.9,0.3c1.7,0,3.4,0,3.6-0.1
		c4.7-0.1,6.9,0.5,11.9,0.2l0.5,0.3c3.4,0,1.5-0.2,6.1-0.1c1.2,0.1,4.4,0.3,7,0.4c10.8,0,21.5,0.3,32.2,0.4c3.6,0,7.2,0,10.7,0
		c-1.2-0.2-5.6,0-5.3-0.3c5.3,0,10.7,0,16.4,0c6.7,0,13.6,0,20.6,0c0,8.3,0,16.7,0,25.1c0,6.5,0,12.9-0.1,19.2
		c0.1,9.1,0.1,18.4,0.2,27.3c0.1,21.1-0.2,43.1,0.1,63.3c-0.1,14.3-0.2,28.5-0.3,42.6C-715.4,257.1-715.4,257.2-715.4,257.3z"/>
</g>
<path class="st0" d="M5.7,0.8c0.4,0,1.4,0,2.1,0c-1.5,0,2.5-0.1,6.5-0.3c1.7,0,5.2,0,4.9,0.1c0.2,0,0.4,0,0.5,0l1.2,0
	c-0.7,0-2.1,0-3.4,0.1c0.3,0,0.6,0,0.9,0c-1.1-0.1-4.6,0-6.5,0c0,0.1,0.7,0.1,0.7,0.1c-0.6,0-1.5,0-2.4,0.1c-0.3,0-0.6,0-0.8,0
	l-0.5,0c-0.6,0-1.3,0-1.9,0C6.4,0.8,6,0.8,5.7,0.8 M202.9,115.1c1.5,0-2.8,0-6.8,0.1c-1.7,0-4.8,0.1-4.5,0c-0.2,0-0.4,0-0.5,0
	l-1.2,0c0.7,0,2.1,0,3.4-0.1c-0.3,0-0.6,0-0.9,0c1.1,0.1,4.6,0,6.5,0c0-0.1-0.7-0.1-0.7-0.1c0.6,0,1.5,0,2.4-0.1c0.3,0,0.6,0,0.8,0
	l0.5,0c0.6,0,1.3,0,1.9,0C204.3,115.1,203.6,115.1,202.9,115.1 M1.4,31.4C1.2,38.1,1.1,44.8,1,51.5c0.3,9.6,0.1,20,0.2,30
	c0.1,4.2,0.2,8.6,0.2,12.9c-0.1,3-0.1,6-0.1,9.1c0,4,0,8,0,11.9c7.8,0,15.4,0,22.9,0c6.3,0,12.4,0,18.2,0c0.2-0.1-4.6,0-6-0.1
	c3.9,0,7.9,0,11.9,0c11.9,0.1,23.9,0.2,35.9,0.2c2.9,0,6.5,0.1,7.8,0.2c5.1,0.1,3-0.1,6.8-0.1l0.5,0.1c5.5-0.1,8,0.2,13.2,0.1
	c0.3-0.1,2.2-0.1,4-0.1c0.1,0.2,5.7,0,5.4,0.1l0.1,0c1.1,0,1.9,0,3.3,0c2.1-0.1,21.9-0.5,24-0.5l1,0c3,0,4.2-0.1,2.5-0.1l3.6,0
	l-0.4,0l3.6,0c0.7,0,1.4,0.1,0.4,0.2c2.1-0.1,4.4-0.1,6.4-0.1c-3.7-0.1-7.9-0.1-12-0.2c2.3,0,4.7,0,7,0c3.2,0.1,7.2,0.1,10.6,0.2
	c1.1,0,1.9-0.2,4.4-0.1c1.2,0.1,2.9,0,5,0.1c-2.4,0.1-4.8,0-7.2,0c0.4,0.1,6,0.1,7.9,0.1c0.9,0,5.6,0,8.6,0
	c-0.8,0.1,0.4,0.1,1.9,0.1c0.3,0,0.6,0,0.9,0c-0.3,0-0.6,0-0.9,0c0.8,0,1.6-0.1,2.2,0c2,0,3.2,0,2.4-0.1c0.1,0,9.6-0.2,8.5-0.2
	c-0.6,0-0.7,0-0.5-0.1c0.3,0,0.4,0,0.3,0c0.3,0,0.5-0.1-0.4-0.1l-0.8,0c-1.5,0-2.3,0-2.6-0.1c0.8,0,1.6,0,2.4,0c1.4,0,2.7,0,4.1,0
	c0-0.5,0-0.9,0-1.4c0.5-3.3,0-3.5,0.5-6.5l-0.1,0.1c0.1-2.6,0.2-5.2,0.3-7.7c0-0.2,0-0.4,0-0.7c0.3-4.9,0.5-9.7,0.4-14
	c0-0.1,0-0.1,0-0.2c0.2-6.7,0.3-13.4,0.4-20.2c-0.3-9.6-0.1-20-0.2-30c-0.1-4.2-0.2-8.6-0.2-12.9c0.1-3,0.1-6,0.1-9.1
	c0-4,0-8,0-11.9c-7.8,0-15.4,0-22.9,0c-6.3,0-12.3,0-18.2,0c-0.2,0.1,4.6,0,6,0.1c-3.9,0-7.9,0-11.9,0c-11.9-0.1-23.9-0.2-35.9-0.2
	c-2.9,0-6.5-0.1-7.8-0.2c-5.1-0.1-3,0.1-6.8,0.1l-0.5-0.1c-5.5,0.1-8-0.2-13.2-0.1c-0.3,0.1-2.2,0.1-4,0.1c-0.1-0.2-5.7,0-5.4-0.1
	l-0.1,0c-1.1,0-1.9,0-3.3,0c-2.1,0.1-21.9,0.5-24,0.5l-1,0c-3,0-4.2,0.1-2.5,0.1l-3.6,0l0.4,0l-3.6,0c-0.7,0-1.4-0.1-0.4-0.2
	c-2.1,0.1-4.4,0.1-6.4,0.1c3.7,0.1,7.9,0.1,12,0.2c-2.3,0-4.7,0-7,0c-3.2-0.1-7.2-0.1-10.6-0.2c-1.1,0-1.9,0.2-4.4,0.1
	c-1.2-0.1-2.9,0-5-0.1c2.4-0.1,4.8,0,7.2,0c-0.4-0.1-6-0.1-7.9-0.1c-0.9,0-5.6,0-8.6,0c0.8-0.1-0.4-0.1-1.9-0.1c-0.3,0-0.6,0-0.9,0
	c0.3,0,0.6,0,0.9,0c-0.8,0-1.6,0-2.2,0c-2,0-3.3,0-2.5,0.1c-0.1,0,0.2,0.1,0.7,0.1C9.4,0.7,3.9,0.8,5,0.8c0.6,0,0.7,0,0.5,0.1
	c-0.3,0-0.4,0-0.3,0C5,0.9,4.8,1,5.6,1l0.8,0C8,0.9,8.8,1,9,1C8.2,1,7.4,1,6.6,1C5.3,1,3.9,1,2.5,1c0,0.5,0,0.9,0,1.4
	C2,5.6,2.4,5.9,2,8.9l0.1-0.1c-0.1,2.6-0.2,5.2-0.3,7.7c0,0.2,0,0.4,0,0.7c-0.3,4.9-0.5,9.7-0.4,14C1.4,31.2,1.4,31.3,1.4,31.4"/>
<rect x="11.8" y="12.3" class="st5" width="292.6" height="13.9"/>
<text transform="matrix(1 0 0 1 11.7646 22.5961)" class="st3 st6 st7">Työhömme ohjelmamaissa osallistui </text>
<rect x="11.2" y="38" class="st5" width="227.5" height="63.1"/>
<text transform="matrix(1 0 0 1 83.3291 64.4501)" class="st3 st6 st8">tyttöä </text>
<text transform="matrix(1 0 0 1 82.8896 50.9364)" class="st1 st6 st9">42 600</text>
<text transform="matrix(1 0 0 1 12.5039 64.4501)" class="st3 st6 st8">lasta</text>
<text transform="matrix(1 0 0 1 11.9912 50.9364)" class="st1 st6 st9">78 600</text>
<text transform="matrix(1 0 0 1 12.8457 90.2611)" class="st1 st6 st9">91 400</text>
<text transform="matrix(1 0 0 1 12.9004 103.2211)" class="st3 st6 st8">aikuista</text>
<g>
	<text transform="matrix(1 0 0 1 83.835 90.2611)" class="st1 st6 st9">53 500</text>
	<text transform="matrix(1 0 0 1 82.8896 103.7743)"><tspan x="0" y="0" class="st1 st6 st10"> </tspan><tspan x="2.1" y="0" class="st3 st6 st8">naista</tspan></text>
</g>
<g>
	<text transform="matrix(1 0 0 1 149.459 90.2611)" class="st1 st6 st9">37 900 </text>
	<text transform="matrix(1 0 0 1 150.3008 103.2211)" class="st3 st6 st8">miestä</text>
</g>
<g>
	<text transform="matrix(1 0 0 1 150.4326 63.8959)" class="st3 st6 st8">poikaa</text>
	<text transform="matrix(1 0 0 1 149.459 50.9364)" class="st1 st6 st9">36 000 </text>
</g>
<path class="st1" d="M4.7,123.1c0.4,0,1.4,0,2.1,0c-1.5,0,2.5-0.2,6.5-0.3c1.7,0.1,5.2,0.1,4.9,0.2c0.2,0,0.4,0,0.5,0l1.2,0
	c-0.7,0-2.1,0.1-3.4,0.1c0.3,0,0.6,0,0.9,0c-1.1-0.1-4.6,0-6.6,0c0,0.1,0.7,0.1,0.7,0.1c-0.6,0-1.5,0.1-2.4,0.1c-0.3,0-0.6,0-0.8,0
	l-0.5,0c-0.6,0-1.3,0-1.9,0C5.5,123.1,5.1,123.1,4.7,123.1 M203,280.7c1.5,0-2.8,0-6.8,0.2c-1.7-0.1-4.9,0.1-4.6,0
	c-0.2,0-0.4,0-0.5,0l-1.2,0c0.7,0,2.1-0.1,3.4-0.1c-0.3,0-0.6,0-0.9,0c1.1,0.1,4.6,0,6.6,0c0-0.1-0.7-0.1-0.7-0.1
	c0.6,0,1.5-0.1,2.4-0.1c0.3,0,0.6,0,0.8,0l0.5,0c0.6,0,1.3,0,1.9,0C204.4,280.7,203.7,280.7,203,280.7 M0.4,165.2
	C0.2,174.4,0.1,183.7,0,193c0.3,13.2,0.1,27.6,0.2,41.3c0.1,5.9,0.2,11.9,0.2,17.8c-0.1,4.1-0.1,8.3-0.1,12.5c0,5.5,0,11,0,16.4
	c7.8,0,15.5,0,23,0c6.3,0,12.4,0,18.3,0c0.2-0.2-4.7,0-6-0.2c3.9,0,7.9,0,12,0c12,0.1,24,0.3,36,0.3c2.9,0.1,6.5,0.2,7.8,0.2
	c5.2,0.1,3.1-0.1,6.8-0.1l0.5,0.2c5.5-0.2,8.1,0.2,13.3,0.1c0.3-0.1,2.2-0.1,4-0.1c0.1,0.2,5.7,0,5.4,0.2l0.1,0c1.1,0,1.9,0,3.3,0
	c2.1-0.1,22-0.7,24.1-0.7l1,0c3,0,4.2-0.2,2.5-0.2l3.7,0l-0.4,0l3.6,0c0.7,0,1.4,0.1,0.4,0.2c2.1-0.1,4.4-0.1,6.4-0.1
	c-3.7-0.1-7.9-0.2-12.1-0.3c2.3,0,4.7,0,7-0.1c3.3,0.1,7.3,0.2,10.6,0.2c1.1,0,1.9-0.2,4.4-0.1c1.2,0.2,2.9,0,5,0.1
	c-2.4,0.1-4.8,0-7.3,0c0.4,0.2,6,0.1,7.9,0.2c0.9-0.1,5.7,0,8.7-0.1c-0.9,0.1,0.4,0.1,1.9,0.2c0.3,0,0.6,0,0.9,0c-0.3,0-0.6,0-0.9,0
	c0.8,0,1.6-0.1,2.2-0.1c2,0,3.2-0.1,2.4-0.1c0.1,0,9.7-0.3,8.5-0.3c-0.6,0-0.7,0-0.5-0.1c0.3,0,0.4,0,0.3-0.1c0.3,0,0.5-0.1-0.4-0.1
	l-0.8,0.1c-1.5,0-2.3,0-2.6-0.1c0.8,0,1.6,0,2.4,0c1.4,0,2.8,0,4.1,0c0-0.6,0-1.2,0-1.9c0.5-4.5,0-4.9,0.5-8.9l-0.1,0.1
	c0.1-3.6,0.2-7.1,0.3-10.7c0-0.3,0-0.6,0-0.9c0.3-6.8,0.5-13.4,0.4-19.3c0-0.1,0-0.1,0-0.2c0.2-9.2,0.3-18.5,0.4-27.8
	c-0.3-13.2-0.1-27.6-0.2-41.3c-0.1-5.9-0.2-11.9-0.2-17.8c0.1-4.1,0.1-8.3,0.1-12.5c0-5.5,0-11,0-16.4c-7.8,0-15.5,0-23,0
	c-6.3,0-12.4,0-18.3,0c-0.2,0.2,4.7,0,6,0.2c-3.9,0-7.9,0-12,0c-12-0.1-24-0.3-36-0.3c-2.9-0.1-6.5-0.2-7.8-0.2
	c-5.2-0.1-3.1,0.1-6.8,0.1l-0.5-0.2c-5.5,0.2-8.1-0.2-13.3-0.1c-0.3,0.1-2.2,0.1-4,0.1c-0.1-0.2-5.7,0-5.4-0.2l-0.1,0
	c-1.1,0-1.9,0-3.3,0c-2.1,0.1-22,0.7-24.1,0.7l-1,0c-3,0-4.2,0.2-2.5,0.2l-3.7,0l0.4,0l-3.6,0c-0.7,0-1.4-0.1-0.4-0.2
	c-2.1,0.1-4.4,0.1-6.4,0.1c3.7,0.1,7.9,0.2,12.1,0.3c-2.3,0-4.7,0-7,0.1c-3.3-0.1-7.3-0.2-10.6-0.2c-1.1,0-1.9,0.2-4.4,0.1
	c-1.2-0.2-2.9,0-5-0.1c2.4-0.1,4.8,0,7.3,0c-0.4-0.2-6-0.1-7.9-0.2c-0.9,0.1-5.7,0-8.7,0.1c0.9-0.1-0.4-0.1-1.9-0.2
	c-0.3,0-0.6,0-0.9,0c0.3,0,0.6,0,0.9,0c-0.8,0-1.6,0-2.2-0.1c-2,0-3.3,0.1-2.5,0.1c-0.1,0,0.2,0.1,0.7,0.1
	c-4.8,0.2-10.3,0.4-9.1,0.4c0.6,0,0.7,0,0.5,0.1c-0.3,0-0.4,0-0.3,0.1c-0.3,0-0.5,0.1,0.4,0.1l0.8-0.1c1.5,0,2.3,0,2.6,0.1
	c-0.8,0-1.6,0-2.4,0c-1.4,0-2.8,0-4.1,0c0,0.6,0,1.2,0,1.9c-0.5,4.5,0,4.9-0.5,8.9l0.1-0.1c-0.1,3.6-0.2,7.1-0.3,10.7
	c0,0.3,0,0.6,0,0.9C0.5,152.4,0.3,159,0.4,165C0.4,165,0.4,165.1,0.4,165.2"/>
<rect x="11.2" y="142.4" class="st5" width="194.1" height="191.6"/>
<text transform="matrix(1 0 0 1 11.1992 185.0727)"><tspan x="0" y="0" class="st2 st6 st11">Tuimme </tspan><tspan x="50.2" y="0" class="st3 st6 st12">44 500</tspan><tspan x="180.3" y="0" class="st13 st6 st14"> </tspan><tspan x="0" y="20.1" class="st2 st6 st11">alle kuusivuotiaan lapsen </tspan><tspan x="0" y="40.1" class="st2 st6 st11">varhaiskasvatusta kotona ja </tspan><tspan x="0" y="60.2" class="st2 st6 st11">varhaiskasvatuskeskuksissa </tspan><tspan x="0" y="80.2" class="st2 st6 st11">kuudessa maassa.  </tspan></text>
<path class="st1" d="M208.2,289.6c0,0.2,0,0.5,0,0.7c0-0.5,0.2,0.9,0.5,2.3c-0.1,0.6-0.1,1.8-0.2,1.7c0,0.1,0,0.1,0,0.2l-0.1,0.4
	c0-0.3-0.1-0.7-0.1-1.2c0,0.1,0,0.2,0.1,0.3c0.1-0.4,0.1-1.6,0-2.3c-0.1,0-0.1,0.2-0.2,0.2c0-0.2-0.1-0.5-0.1-0.8c0-0.1,0-0.2,0-0.3
	l0-0.2c0-0.2,0-0.4,0-0.7C208.2,289.8,208.2,289.7,208.2,289.6 M2.2,358.9c0,0.5,0-1-0.2-2.4c0.1-0.6-0.2-1.7,0-1.6
	c0-0.1,0-0.1,0-0.2l0.1-0.4c0,0.3,0.1,0.7,0.1,1.2c0-0.1,0-0.2-0.1-0.3c-0.1,0.4-0.1,1.6,0,2.3c0.1,0,0.1-0.2,0.2-0.2
	c0,0.2,0.1,0.5,0.1,0.8c0,0.1,0,0.2,0,0.3l0,0.2c0,0.2,0,0.4,0,0.7C2.3,359.4,2.2,359.1,2.2,358.9 M153.2,288.1
	c-12.1-0.1-24.2-0.1-36.4-0.1c-17.3,0.1-36,0-54,0.1c-7.6,0-15.5,0.1-23.3,0.1c-5.4,0-10.9,0-16.4,0c-7.2,0-14.4,0-21.4,0
	c0,2.7,0,5.4,0,8.1c0,2.2,0,4.3,0,6.4c0.3,0.1,0-1.6,0.2-2.1c0,1.4,0,2.8,0,4.2c-0.1,4.2-0.3,8.4-0.4,12.6c-0.1,1-0.2,2.3-0.3,2.7
	c-0.1,1.8,0.1,1.1,0.1,2.4l-0.3,0.2c0.2,1.9-0.3,2.8-0.2,4.6c0.1,0.1,0.1,0.8,0.1,1.4c-0.3,0,0,2-0.2,1.9l0,0c0,0.4,0,0.7,0,1.1
	c0.1,0.7,0.9,7.7,1,8.4l0,0.3c0,1,0.2,1.5,0.3,0.9l0,1.3l0-0.1l0,1.3c0,0.2-0.2,0.5-0.3,0.1c0.1,0.7,0.1,1.5,0.1,2.3
	c0.1-1.3,0.2-2.8,0.4-4.2c0,0.8,0.1,1.6,0.1,2.5c-0.1,1.1-0.2,2.5-0.3,3.7c0,0.4,0.3,0.7,0.2,1.6c-0.2,0.4,0,1-0.1,1.7
	c-0.1-0.9-0.1-1.7-0.1-2.5c-0.3,0.1-0.2,2.1-0.2,2.8c0.1,0.3,0,2,0.1,3c-0.2-0.3-0.2,0.2-0.2,0.7c0,0.1,0,0.2,0,0.3
	c0-0.1,0-0.2,0-0.3c0,0.3,0.1,0.6,0.1,0.8c0,0.7,0.1,1.1,0.2,0.8c0.1,0.1,0.4,3.4,0.4,3c0-0.2,0.1-0.2,0.1-0.2c0,0.1,0,0.1,0.1,0.1
	c0.1,0.1,0.1,0.2,0.1-0.1l-0.1-0.3c0-0.5,0.1-0.8,0.1-0.9c0,0.3,0,0.6,0,0.8c0,0.5,0,1,0,1.4c0.8,0,1.6,0,2.4,0
	c5.9,0.2,6.4,0,11.7,0.2l-0.2,0c4.6,0,9.3,0.1,13.9,0.1c0.4,0,0.8,0,1.2,0c8.9,0.1,17.5,0.2,25.3,0.2c0.1,0,0.2,0,0.3,0
	c12.1,0.1,24.2,0.1,36.4,0.1c17.3-0.1,36,0,54-0.1c7.6,0,15.5-0.1,23.3-0.1c5.4,0,10.9,0,16.4,0c7.2,0,14.4,0,21.4,0
	c0-2.7,0-5.4,0-8.1c0-2.2,0-4.3,0-6.4c-0.3-0.1,0,1.6-0.2,2.1c0-1.4,0-2.8,0-4.2c0.1-4.2,0.3-8.4,0.4-12.6c0.1-1,0.2-2.3,0.3-2.7
	c0.1-1.8-0.1-1.1-0.1-2.4l0.3-0.2c-0.2-1.9,0.3-2.8,0.2-4.6c-0.1-0.1-0.1-0.8-0.1-1.4c0.3,0,0-2,0.2-1.9l0,0c0-0.4,0-0.7,0-1.1
	c-0.1-0.7-0.9-7.7-1-8.4l0-0.3c0-1-0.2-1.5-0.3-0.9l0-1.3l0,0.1l0-1.3c0-0.2,0.2-0.5,0.3-0.1c-0.1-0.7-0.1-1.5-0.1-2.3
	c-0.1,1.3-0.2,2.8-0.4,4.2c0-0.8-0.1-1.6-0.1-2.5c0.1-1.1,0.2-2.5,0.3-3.7c0-0.4-0.3-0.7-0.2-1.6c0.2-0.4,0-1,0.1-1.7
	c0.1,0.9,0.1,1.7,0.1,2.5c0.3-0.1,0.2-2.1,0.2-2.8c-0.1-0.3,0-2-0.1-3c0.2,0.3,0.2-0.2,0.2-0.7c0-0.1,0-0.2,0-0.3c0,0.1,0,0.2,0,0.3
	c0-0.3,0-0.6,0.1-0.8c0-0.7-0.1-1.2-0.2-0.9c-0.1-0.1-0.1,0.1-0.1,0.2c-0.2-1.7-0.5-3.6-0.5-3.2c0,0.2-0.1,0.2-0.1,0.2
	c0-0.1,0-0.1-0.1-0.1c-0.1-0.1-0.1-0.2-0.1,0.1l0.1,0.3c0,0.5-0.1,0.8-0.1,0.9c0-0.3,0-0.6,0-0.8c0-0.5,0-1,0-1.4
	c-0.8,0-1.6,0-2.4,0c-5.9-0.2-6.4,0-11.7-0.2l0.2,0c-4.6,0-9.3-0.1-13.9-0.1c-0.4,0-0.8,0-1.2,0c-8.9-0.1-17.5-0.2-25.3-0.2
	C153.4,288,153.3,288.1,153.2,288.1"/>
<text transform="matrix(1 0 0 1 10.1348 352.4223)" class="st3 st6 st15">varhaiskasvatuskeskusta</text>
<rect x="10.1" y="296.9" class="st5" width="110.3" height="60.9"/>
<text transform="matrix(1 0 0 1 10.1348 311.7572)"><tspan x="0" y="0" class="st3 st6 st15">Perustimme </tspan><tspan x="0" y="20.5" class="st3 st6 st15">tai tuimme </tspan></text>
<text transform="matrix(1 0 0 1 112.0059 332.3666)" class="st2 st6 st16">554</text>
<path class="st0" d="M5.7,368.2c0.4,0,1.4,0,2.1,0c-1.5,0,2.5-0.1,6.5-0.2c1.7,0,5.2,0,4.9,0.1c0.2,0,0.4,0,0.5,0l1.2,0
	c-0.7,0-2.1,0-3.4,0.1c0.3,0,0.6,0,0.9,0c-1.1-0.1-4.6,0-6.5,0c0,0.1,0.7,0.1,0.6,0.1c-0.6,0-1.5,0-2.4,0c-0.3,0-0.6,0-0.8,0l-0.5,0
	c-0.6,0-1.3,0-1.9,0C6.4,368.2,6,368.2,5.7,368.2 M202.5,479.2c1.5,0-2.8,0-6.8,0.1c-1.7,0-4.8,0.1-4.5,0c-0.2,0-0.4,0-0.5,0l-1.2,0
	c0.7,0,2.1,0,3.4-0.1c-0.3,0-0.6,0-0.9,0c1.1,0.1,4.6,0,6.5,0c0-0.1-0.7-0.1-0.6-0.1c0.6,0,1.5,0,2.4,0c0.3,0,0.6,0,0.8,0l0.5,0
	c0.6,0,1.3,0,1.9,0C203.8,479.1,203.1,479.2,202.5,479.2 M1.3,397.8c-0.2,6.5-0.3,13-0.4,19.6c0.3,9.3,0.1,19.4,0.2,29.1
	c0.1,4.1,0.2,8.4,0.2,12.6c-0.1,2.9-0.1,5.9-0.1,8.8c0,3.9,0,7.7,0,11.5c7.8,0,15.4,0,22.9,0c6.2,0,12.3,0,18.2,0
	c0.2-0.1-4.6,0-5.9-0.1c3.9,0,7.9,0,11.9,0c11.9,0.1,23.8,0.2,35.8,0.2c2.9,0,6.4,0.1,7.8,0.2c5.1,0.1,3-0.1,6.8-0.1l0.5,0.1
	c5.5-0.1,8,0.2,13.2,0.1c0.3-0.1,2.2-0.1,4-0.1c0.1,0.1,5.7,0,5.4,0.1l0.1,0c1.1,0,1.9,0,3.2,0c2.1-0.1,21.8-0.5,23.9-0.5l1,0
	c2.9,0,4.2-0.1,2.5-0.1l3.6,0l-0.4,0l3.6,0c0.7,0,1.4,0.1,0.4,0.1c2-0.1,4.3-0.1,6.4-0.1c-3.7-0.1-7.9-0.1-12-0.2c2.3,0,4.6,0,7,0
	c3.2,0.1,7.2,0.1,10.6,0.2c1.1,0,1.9-0.2,4.4-0.1c1.2,0.1,2.9,0,5,0.1c-2.4,0.1-4.8,0-7.2,0c0.4,0.1,6,0.1,7.9,0.1
	c0.9,0,5.6,0,8.6,0c-0.8,0.1,0.4,0.1,1.9,0.1c0.3,0,0.6,0,0.9,0c-0.3,0-0.6,0-0.9,0c0.8,0,1.6-0.1,2.2,0c2,0,3.2,0,2.4-0.1
	c0.1,0,9.6-0.2,8.4-0.2c-0.6,0-0.7,0-0.5-0.1c0.3,0,0.4,0,0.3,0c0.3,0,0.5-0.1-0.4-0.1l-0.8,0c-1.5,0-2.3,0-2.6-0.1
	c0.8,0,1.6,0,2.4,0c1.4,0,2.7,0,4.1,0c0-0.4,0-0.9,0-1.3c0.5-3.2,0-3.4,0.5-6.3l-0.1,0.1c0.1-2.5,0.2-5,0.3-7.5c0-0.2,0-0.4,0-0.6
	c0.3-4.8,0.5-9.4,0.4-13.6c0-0.1,0-0.1,0-0.2c0.2-6.5,0.3-13,0.4-19.6c-0.3-9.3-0.1-19.4-0.2-29.1c-0.1-4.1-0.2-8.4-0.2-12.6
	c0.1-2.9,0.1-5.9,0.1-8.8c0-3.9,0-7.7,0-11.5c-7.8,0-15.4,0-22.9,0c-6.2,0-12.3,0-18.2,0c-0.2,0.1,4.6,0,5.9,0.1
	c-3.9,0-7.9,0-11.9,0c-11.9-0.1-23.8-0.2-35.8-0.2c-2.9,0-6.4-0.1-7.8-0.2c-5.1-0.1-3,0.1-6.8,0.1l-0.5-0.1c-5.5,0.1-8-0.2-13.2-0.1
	c-0.3,0.1-2.2,0.1-4,0.1c-0.1-0.1-5.7,0-5.4-0.1l-0.1,0c-1.1,0-1.9,0-3.2,0c-2.1,0.1-21.8,0.5-23.9,0.5l-1,0c-2.9,0-4.2,0.1-2.5,0.1
	l-3.6,0l0.4,0l-3.6,0c-0.7,0-1.4-0.1-0.4-0.1c-2,0.1-4.3,0.1-6.4,0.1c3.7,0.1,7.9,0.1,12,0.2c-2.3,0-4.6,0-7,0
	C46,368.1,42,368,38.6,368c-1.1,0-1.9,0.2-4.4,0.1c-1.2-0.1-2.9,0-5-0.1c2.4-0.1,4.8,0,7.2,0c-0.4-0.1-6-0.1-7.9-0.1
	c-0.9,0-5.6,0-8.6,0c0.8-0.1-0.4-0.1-1.9-0.1c-0.3,0-0.6,0-0.9,0c0.3,0,0.6,0,0.9,0c-0.8,0-1.6,0-2.2,0c-2,0-3.3,0-2.5,0.1
	c-0.1,0,0.2,0.1,0.7,0.1c-4.7,0.1-10.2,0.3-9.1,0.3c0.6,0,0.7,0,0.5,0.1c-0.3,0-0.4,0-0.3,0c-0.3,0-0.5,0.1,0.4,0.1l0.8,0
	c1.5,0,2.3,0,2.6,0.1c-0.8,0-1.6,0-2.4,0c-1.4,0-2.7,0-4.1,0c0,0.4,0,0.9,0,1.3c-0.5,3.2,0,3.4-0.5,6.3l0.1-0.1
	c-0.1,2.5-0.2,5-0.3,7.5c0,0.2,0,0.4,0,0.6c-0.3,4.8-0.5,9.4-0.4,13.6C1.3,397.7,1.3,397.8,1.3,397.8"/>
<text transform="matrix(1 0 0 1 16.6396 429.6654)" class="st3 st6 st17">tyttöä </text>
<text transform="matrix(1 0 0 1 15.9961 405.1918)" class="st1 st6 st18">11 100</text>
<text transform="matrix(1 0 0 1 111.5449 429.6654)" class="st3 st6 st17">poikaa</text>
<text transform="matrix(1 0 0 1 110.1172 405.1918)" class="st1 st6 st18">6 800 </text>
<rect x="12" y="442.4" class="st5" width="202.5" height="27"/>
<text transform="matrix(1 0 0 1 12.0012 452.5828)"><tspan x="0" y="0" class="st3 st6 st19">sai meiltä koulutusta oikeuksistaan  </tspan><tspan x="0" y="15" class="st3 st6 st19">ja lasten suojelusta väkivallalta.</tspan></text>
<path class="st2" d="M209.4,487.4c0,0.1,0,0.4,0,0.6c0-0.4,0.2,0.7,0.5,1.9c-0.1,0.5-0.1,1.5-0.2,1.4c0,0.1,0,0.1,0,0.2l-0.1,0.4
	c0-0.2-0.1-0.6-0.1-1c0,0.1,0,0.2,0.1,0.3c0.1-0.3,0.1-1.3,0-1.9c-0.1,0-0.1,0.2-0.2,0.2c0-0.2-0.1-0.4-0.1-0.7c0-0.1,0-0.2,0-0.2
	l0-0.2c0-0.2,0-0.4,0-0.5C209.3,487.6,209.3,487.5,209.4,487.4 M1.5,544.7c0,0.4,0-0.8-0.2-2c0.1-0.5-0.2-1.4,0-1.3
	c0-0.1,0-0.1,0-0.2l0.1-0.4c0,0.2,0.1,0.6,0.1,1c0-0.1,0-0.2-0.1-0.3c-0.1,0.3-0.1,1.3,0,1.9c0.1,0,0.1-0.2,0.2-0.2
	c0,0.2,0.1,0.4,0.1,0.7c0,0.1,0,0.2,0,0.2l0,0.2c0,0.2,0,0.4,0,0.5C1.5,545.1,1.5,544.9,1.5,544.7 M153.8,486.1
	c-12.2,0-24.4-0.1-36.7-0.1c-17.4,0.1-36.4,0-54.5,0c-7.7,0-15.7,0-23.5,0.1c-5.4,0-11,0-16.5,0c-7.2,0-14.5,0-21.6,0
	c0,2.3,0,4.5,0,6.7c0,1.8,0,3.6,0,5.3c0.3,0.1,0-1.3,0.2-1.7c0,1.1,0,2.3,0,3.5c-0.1,3.5-0.3,6.9-0.4,10.4c-0.1,0.8-0.2,1.9-0.3,2.3
	c-0.1,1.5,0.1,0.9,0.1,2l-0.3,0.1c0.2,1.6-0.3,2.3-0.2,3.8c0.1,0.1,0.1,0.6,0.1,1.2c-0.3,0,0,1.6-0.2,1.6l0,0c0,0.3,0,0.6,0,0.9
	c0.1,0.6,0.9,6.3,1,7l0,0.3c0,0.9,0.2,1.2,0.3,0.7l0,1.1l0-0.1l0,1.1c0,0.2-0.2,0.4-0.3,0.1c0.1,0.6,0.2,1.3,0.1,1.9
	c0.1-1.1,0.3-2.3,0.4-3.5c0,0.7,0.1,1.4,0.1,2c-0.1,0.9-0.2,2.1-0.3,3.1c0,0.3,0.3,0.5,0.2,1.3c-0.2,0.4,0,0.8-0.1,1.4
	c-0.1-0.7-0.1-1.4-0.1-2.1c-0.3,0.1-0.2,1.7-0.2,2.3c0.1,0.3,0,1.6,0.1,2.5c-0.2-0.2-0.2,0.1-0.2,0.6c0,0.1,0,0.2,0,0.3
	c0-0.1,0-0.2,0-0.3c0,0.2,0.1,0.5,0.1,0.6c0,0.6,0.1,0.9,0.2,0.7c0.1,0,0.4,2.8,0.4,2.5c0-0.2,0.1-0.2,0.1-0.2c0,0.1,0,0.1,0.1,0.1
	c0.1,0.1,0.1,0.1,0.1-0.1l-0.1-0.2c0-0.4,0.1-0.7,0.1-0.7c0,0.2,0,0.5,0,0.7c0,0.4,0,0.8,0,1.2c0.8,0,1.6,0,2.5,0
	c5.9,0.1,6.4,0,11.8,0.1l-0.2,0c4.7,0,9.4,0.1,14.1,0.1c0.4,0,0.8,0,1.2,0c9,0.1,17.6,0.1,25.5,0.1c0.1,0,0.2,0,0.3,0
	c12.2,0,24.4,0.1,36.7,0.1c17.4-0.1,36.4,0,54.5,0c7.7,0,15.7,0,23.5-0.1c5.4,0,11,0,16.5,0c7.2,0,14.5,0,21.6,0c0-2.3,0-4.5,0-6.7
	c0-1.8,0-3.6,0-5.3c-0.3-0.1,0,1.3-0.2,1.7c0-1.1,0-2.3,0-3.5c0.1-3.5,0.3-6.9,0.4-10.4c0.1-0.8,0.2-1.9,0.3-2.3
	c0.1-1.5-0.1-0.9-0.1-2l0.3-0.1c-0.2-1.6,0.3-2.3,0.2-3.8c-0.1-0.1-0.1-0.6-0.1-1.2c0.3,0,0-1.6,0.2-1.6l0,0c0-0.3,0-0.6,0-0.9
	c-0.1-0.6-0.9-6.3-1-7l0-0.3c0-0.9-0.2-1.2-0.3-0.7l0-1.1l0,0.1l0-1.1c0-0.2,0.2-0.4,0.3-0.1c-0.1-0.6-0.2-1.3-0.1-1.9
	c-0.1,1.1-0.3,2.3-0.4,3.5c0-0.7-0.1-1.4-0.1-2c0.1-0.9,0.2-2.1,0.3-3.1c0-0.3-0.3-0.5-0.2-1.3c0.2-0.4,0-0.8,0.1-1.4
	c0.1,0.7,0.1,1.4,0.1,2.1c0.3-0.1,0.2-1.7,0.2-2.3c-0.1-0.3,0-1.6-0.1-2.5c0.2,0.2,0.2-0.1,0.2-0.6c0-0.1,0-0.2,0-0.3
	c0,0.1,0,0.2,0,0.3c0-0.2,0-0.5,0.1-0.6c0-0.6-0.1-1-0.2-0.7c-0.1,0-0.1,0-0.1,0.2c-0.2-1.4-0.5-3-0.5-2.6c0,0.2-0.1,0.2-0.1,0.2
	c0-0.1,0-0.1-0.1-0.1c-0.1-0.1-0.1-0.1-0.1,0.1l0.1,0.2c0,0.4-0.1,0.7-0.1,0.7c0-0.2,0-0.5,0-0.7c0-0.4,0-0.8,0-1.2
	c-0.8,0-1.6,0-2.5,0c-5.9-0.1-6.4,0-11.8-0.1l0.2,0c-4.7,0-9.4-0.1-14.1-0.1c-0.4,0-0.8,0-1.2,0c-9-0.1-17.6-0.1-25.5-0.1
	C154,486.1,153.9,486.1,153.8,486.1"/>
<rect x="10.3" y="497.1" class="st5" width="186.9" height="73.4"/>
<text transform="matrix(1 0 0 1 10.3184 507.0248)"><tspan x="0" y="0" class="st3 st6 st20">Paransimme opettajien osaamista ja </tspan><tspan x="0" y="15.5" class="st3 st6 st20">lasten ja nuorten osallistumista </tspan><tspan x="0" y="31" class="st3 st6 st20">kouluhallintoon </tspan><tspan x="87.5" y="31" class="st1 st6 st20">170</tspan><tspan x="101.7" y="31" class="st3 st6 st20"> koulussa.</tspan></text>
<path class="st1" d="M209.4,557.1c0,0.3,0,0.8,0,1.2c0-0.9,0.2,1.5,0.5,3.8c-0.1,1-0.1,3.1-0.2,2.9c0,0.1,0,0.2,0,0.3l-0.1,0.7
	c0-0.4-0.1-1.2-0.1-2c0,0.2,0,0.4,0.1,0.5c0.1-0.7,0.1-2.7,0-3.9c-0.1,0-0.1,0.4-0.2,0.4c0-0.4-0.1-0.9-0.1-1.4c0-0.2,0-0.3,0-0.5
	l0-0.3c0-0.4,0-0.8,0-1.1C209.3,557.5,209.3,557.3,209.4,557.1 M1.7,673.9c0,0.9,0-1.7-0.2-4c0.1-1-0.2-2.9,0-2.7c0-0.1,0-0.2,0-0.3
	l0.1-0.7c0,0.4,0.1,1.2,0.1,2c0-0.2,0-0.4-0.1-0.5c-0.1,0.7-0.1,2.7,0,3.9c0.1,0,0.1-0.4,0.2-0.4c0,0.4,0.1,0.9,0.1,1.4
	c0,0.2,0,0.3,0,0.5l0,0.3c0,0.4,0,0.8,0,1.1C1.8,674.7,1.7,674.3,1.7,673.9 M153.9,554.5c-12.2-0.1-24.4-0.2-36.6-0.2
	c-17.4,0.2-36.3,0-54.4,0.1c-7.7,0-15.7,0.1-23.5,0.1c-5.4,0-11-0.1-16.5-0.1c-7.2,0-14.5,0-21.6,0c0,4.6,0,9.1,0,13.6
	c0,3.7,0,7.3,0,10.8c0.3,0.1,0-2.7,0.2-3.5c0,2.3,0,4.7,0,7.1c-0.1,7.1-0.3,14.1-0.4,21.2c-0.1,1.7-0.2,3.8-0.3,4.6
	c-0.1,3,0.1,1.8,0.1,4l-0.3,0.3c0.2,3.3-0.3,4.8-0.2,7.8c0.1,0.2,0.1,1.3,0.1,2.4c-0.3,0.1,0,3.4-0.2,3.2l0,0c0,0.7,0,1.1,0,1.9
	c0.1,1.2,0.9,12.9,1,14.2l0,0.6c0,1.8,0.2,2.5,0.3,1.5l0,2.2l0-0.2l0,2.1c0,0.4-0.2,0.8-0.3,0.2c0.1,1.2,0.2,2.6,0.1,3.8
	c0.1-2.2,0.3-4.7,0.4-7.1c0,1.4,0.1,2.8,0.1,4.1c-0.1,1.9-0.2,4.3-0.3,6.3c0,0.7,0.3,1.1,0.2,2.6c-0.2,0.7,0,1.7-0.1,2.9
	c-0.1-1.4-0.1-2.8-0.1-4.3c-0.3,0.2-0.2,3.5-0.2,4.7c0.1,0.5,0,3.3,0.1,5.1c-0.2-0.5-0.2,0.3-0.2,1.1c0,0.2,0,0.3,0,0.5
	c0-0.2,0-0.4,0-0.5c0,0.5,0.1,1,0.1,1.3c0,1.2,0.1,1.9,0.2,1.4c0.1,0.1,0.4,5.7,0.4,5c0-0.4,0.1-0.4,0.1-0.3c0,0.2,0,0.2,0.1,0.2
	c0.1,0.2,0.1,0.3,0.1-0.2l-0.1-0.5c0-0.9,0.1-1.4,0.1-1.5c0,0.5,0,0.9,0,1.4c0,0.8,0,1.6,0,2.4c0.8,0,1.6,0,2.5,0
	c5.9,0.3,6.4,0,11.8,0.3l-0.2-0.1c4.7,0.1,9.4,0.1,14,0.2c0.4,0,0.8,0,1.2,0c9,0.2,17.6,0.3,25.5,0.3c0.1,0,0.2,0,0.3,0
	c12.2,0.1,24.4,0.2,36.6,0.2c17.4-0.2,36.3,0,54.4-0.1c7.7,0,15.7-0.1,23.5-0.1c5.4,0,11,0.1,16.5,0.1c7.2,0,14.5,0,21.6,0
	c0-4.6,0-9.1,0-13.6c0-3.7,0-7.3,0-10.8c-0.3-0.1,0,2.7-0.2,3.5c0-2.3,0-4.7,0-7.1c0.1-7.1,0.3-14.1,0.4-21.2
	c0.1-1.7,0.2-3.8,0.3-4.6c0.1-3-0.1-1.8-0.1-4l0.3-0.3c-0.2-3.3,0.3-4.8,0.2-7.8c-0.1-0.2-0.1-1.3-0.1-2.4c0.3-0.1,0-3.4,0.2-3.2
	l0,0c0-0.7,0-1.1,0-1.9c-0.1-1.2-0.9-12.9-1-14.2l0-0.6c0-1.7-0.2-2.5-0.3-1.5l0-2.2l0,0.2l0-2.1c0-0.4,0.2-0.8,0.3-0.2
	c-0.1-1.2-0.2-2.6-0.1-3.8c-0.1,2.2-0.3,4.7-0.4,7.1c0-1.4-0.1-2.8-0.1-4.1c0.1-1.9,0.2-4.3,0.3-6.3c0-0.7-0.3-1.1-0.2-2.6
	c0.2-0.7,0-1.7,0.1-2.9c0.1,1.4,0.1,2.8,0.1,4.3c0.3-0.2,0.2-3.5,0.2-4.7c-0.1-0.5,0-3.3-0.1-5.1c0.2,0.5,0.2-0.3,0.2-1.1
	c0-0.2,0-0.4,0-0.5c0,0.2,0,0.4,0,0.5c0-0.5,0-0.9,0.1-1.3c0-1.2-0.1-1.9-0.2-1.5c-0.1-0.1-0.1,0.1-0.1,0.4
	c-0.2-2.8-0.5-6.1-0.5-5.4c0,0.4-0.1,0.4-0.1,0.3c0-0.2,0-0.2-0.1-0.2c-0.1-0.2-0.1-0.3-0.1,0.2l0.1,0.5c0,0.9-0.1,1.4-0.1,1.5
	c0-0.5,0-0.9,0-1.4c0-0.8,0-1.6,0-2.4c-0.8,0-1.6,0-2.5,0c-5.9-0.3-6.4,0-11.8-0.3l0.2,0.1c-4.7-0.1-9.4-0.1-14-0.2
	c-0.4,0-0.8,0-1.2,0c-9-0.2-17.6-0.3-25.5-0.3C154.1,554.5,154,554.5,153.9,554.5"/>
<g>
	<text transform="matrix(1 0 0 1 9.4146 669.1659)" class="st3 st6 st21">koululaiselle </text>
	<text transform="matrix(1 0 0 1 8.672 649.5955)" class="st2 st6 st22">19 000</text>
</g>
<g>
	<text transform="matrix(1 0 0 1 114.045 650.3975)" class="st2 st6 st22">12 100</text>
	<text transform="matrix(1 0 0 1 115.2816 669.1658)" class="st3 st6 st21">aikuiselle</text>
</g>
<rect x="9.7" y="563.8" class="st5" width="208.5" height="60.6"/>
<text transform="matrix(1 0 0 1 9.7375 575.3818)"><tspan x="0" y="0" class="st3 st6 st21">Suomessa Globaalikoulumme </tspan><tspan x="0" y="18" class="st3 st6 st21">tarjosi opetusta globaalin </tspan><tspan x="0" y="36" class="st3 st6 st21">vastuun kysymyksistä</tspan></text>
</svg>
