<?xml version="1.0" encoding="utf-8"?>
<!-- Generator: Adobe Illustrator 22.0.1, SVG Export Plug-In . SVG Version: 6.00 Build 0)  -->
<svg version="1.1" id="Layer_2" xmlns="http://www.w3.org/2000/svg" xmlns:xlink="http://www.w3.org/1999/xlink" x="0px" y="0px"
	 viewBox="0 0 211 314.9" style="enable-background:new 0 0 211 314.9;" xml:space="preserve">
<style type="text/css">
	.st0{fill:#EC008C;}
	.st1{fill:#74CEE2;}
	.st2{fill:#0079C1;}
	.st3{fill:#FFFFFF;}
	.st4{fill:none;}
	.st5{font-family:'Veneer';}
	.st6{font-size:18.3483px;}
	.st7{font-size:19.8264px;}
	.st8{font-size:44.6095px;}
	.st9{font-size:23.0671px;}
	.st10{font-size:14.4169px;}
	.st11{fill:#E0ECF8;}
</style>
<path class="st0" d="M-1163,3.6c0.5,0,1.7,0,2.5,0c-1.8,0,2.9-0.2,7.6-0.3c2,0.1,6.1,0.1,5.7,0.1c0.3,0,0.5,0,0.6,0l1.4,0
	c-0.9,0-2.4,0.1-4,0.1c0.4,0,0.7,0,1.1,0c-1.3-0.1-5.4,0-7.7,0c0,0.1,0.8,0.1,0.8,0.1c-0.7,0-1.8,0-2.8,0.1c-0.3,0-0.7,0-1,0l-0.6,0
	c-0.7,0-1.5,0-2.2,0C-1162.1,3.6-1162.6,3.6-1163,3.6 M-931.5,137.7c1.8,0-3.3,0-8,0.1c-2-0.1-5.7,0.1-5.3,0c-0.3,0-0.5,0-0.6,0
	l-1.4,0c0.9,0,2.4-0.1,4-0.1c-0.4,0-0.7,0-1.1,0c1.3,0.1,5.4,0,7.7,0c0-0.1-0.8-0.1-0.8-0.1c0.7,0,1.8,0,2.8-0.1c0.3,0,0.7,0,1,0
	l0.6,0c0.7,0,1.5,0,2.2,0C-929.9,137.7-930.7,137.7-931.5,137.7 M-1168.1,39.4c-0.2,7.9-0.3,15.7-0.5,23.7
	c0.4,11.3,0.1,23.5,0.2,35.2c0.1,5,0.2,10.1,0.3,15.2c-0.1,3.5-0.1,7.1-0.1,10.7c0,4.7,0,9.3,0,14c9.1,0,18.1,0,26.9,0
	c7.3,0,14.5,0,21.4,0c0.3-0.2-5.4,0-7-0.1c4.6,0,9.3,0,14,0c14,0.1,28,0.2,42.1,0.2c3.4,0.1,7.6,0.1,9.1,0.2c6,0.1,3.6-0.1,8-0.1
	l0.6,0.2c6.5-0.1,9.4,0.2,15.5,0.1c0.3-0.1,2.5-0.1,4.7-0.1c0.1,0.2,6.7,0,6.3,0.2l0.1,0c1.3,0,2.2,0,3.8,0
	c2.5-0.1,25.7-0.6,28.2-0.6l1.2,0c3.5,0,5-0.1,2.9-0.2l4.3,0l-0.5,0l4.3,0c0.8,0,1.7,0.1,0.5,0.2c2.4-0.1,5.1-0.1,7.5-0.1
	c-4.3-0.1-9.3-0.2-14.1-0.3c2.7,0,5.5,0,8.2-0.1c3.8,0.1,8.5,0.1,12.4,0.2c1.3,0,2.2-0.2,5.2-0.1c1.5,0.1,3.4,0,5.8,0.1
	c-2.8,0.1-5.6,0-8.5,0c0.5,0.2,7,0.1,9.3,0.2c1.1-0.1,6.6,0,10.1,0c-1,0.1,0.5,0.1,2.3,0.1c0.3,0,0.7,0,1.1,0c-0.4,0-0.7,0-1,0
	c0.9,0,1.9-0.1,2.6,0c2.4,0,3.8-0.1,2.8-0.1c0.2,0,11.3-0.3,9.9-0.3c-0.7,0-0.8,0-0.6-0.1c0.3,0,0.5,0,0.4,0c0.3,0,0.6-0.1-0.5-0.1
	l-1,0c-1.8,0-2.7,0-3-0.1c0.9,0,1.9,0,2.8,0c1.6,0,3.2,0,4.8,0c0-0.5,0-1.1,0-1.6c0.6-3.8,0.1-4.2,0.6-7.6l-0.2,0.1
	c0.1-3,0.2-6,0.4-9.1c0-0.3,0-0.5,0-0.8c0.3-5.8,0.6-11.4,0.5-16.5c0-0.1,0-0.1,0-0.2c0.2-7.9,0.3-15.7,0.5-23.7
	c-0.4-11.3-0.1-23.5-0.2-35.2c-0.1-5-0.2-10.1-0.3-15.2c0.1-3.5,0.1-7.1,0.1-10.7c0-4.7,0-9.3,0-14c-9.1,0-18.1,0-26.9,0
	c-7.3,0-14.5,0-21.4,0c-0.3,0.2,5.4,0,7,0.1c-4.6,0-9.3,0-14,0c-14-0.1-28-0.2-42.1-0.2c-3.4-0.1-7.6-0.1-9.1-0.2
	c-6-0.1-3.6,0.1-8,0.1l-0.6-0.2c-6.5,0.1-9.4-0.2-15.5-0.1c-0.3,0.1-2.5,0.1-4.7,0.1c-0.1-0.2-6.7,0-6.3-0.2l-0.1,0
	c-1.3,0-2.2,0-3.8,0c-2.5,0.1-25.7,0.6-28.2,0.6l-1.2,0c-3.5,0-5,0.1-2.9,0.2l-4.3,0l0.5,0l-4.3,0c-0.8,0-1.7-0.1-0.5-0.2
	c-2.4,0.1-5.1,0.1-7.5,0.1c4.3,0.1,9.3,0.2,14.1,0.3c-2.7,0-5.5,0-8.2,0.1c-3.8-0.1-8.5-0.1-12.4-0.2c-1.3,0-2.2,0.2-5.2,0.1
	c-1.5-0.1-3.4,0-5.8-0.1c2.8-0.1,5.6,0,8.5,0c-0.5-0.2-7-0.1-9.3-0.2c-1.1,0.1-6.6,0-10.1,0c1-0.1-0.5-0.1-2.3-0.1
	c-0.3,0-0.7,0-1.1,0c0.4,0,0.7,0,1,0c-0.9,0-1.9,0-2.6-0.1c-2.4,0-3.9,0-2.9,0.1c-0.2,0,0.2,0.1,0.8,0.1c-5.6,0.1-12,0.3-10.7,0.3
	c0.7,0,0.8,0,0.6,0.1c-0.3,0-0.5,0-0.4,0c-0.3,0-0.6,0.1,0.5,0.1l1,0c1.8,0,2.7,0,3,0.1c-0.9,0-1.9,0-2.8,0c-1.6,0-3.2,0-4.8,0
	c0,0.5,0,1.1,0,1.6c-0.6,3.8-0.1,4.2-0.6,7.6l0.2-0.1c-0.1,3-0.2,6-0.4,9.1c0,0.3,0,0.5,0,0.8c-0.3,5.8-0.6,11.4-0.5,16.5
	C-1168.1,39.3-1168.1,39.4-1168.1,39.4"/>
<path class="st1" d="M-743,322.9c0.1,0.1,0,0.4,0,0.7c0-0.5,0.5,0.8,0.9,2c-0.2,0.5-0.2,1.6-0.4,1.5c0,0.1,0.1,0.1,0.1,0.2l-0.1,0.4
	c-0.1-0.2-0.2-0.6-0.2-1.1c0,0.1,0.1,0.2,0.1,0.3c0.2-0.3,0.1-1.4,0.1-2.1c-0.2,0-0.2,0.2-0.3,0.2c-0.1-0.2-0.1-0.5-0.2-0.7
	c0-0.1,0-0.2,0-0.3l0-0.2c-0.1-0.2-0.1-0.4-0.1-0.6C-743.1,323.2-743,323-743,322.9 M-1165.5,384.8c0,0.5,0-0.9-0.4-2.1
	c0.2-0.5-0.3-1.5-0.1-1.4c0-0.1-0.1-0.1-0.1-0.2l0.1-0.4c0.1,0.2,0.2,0.6,0.2,1.1c0-0.1-0.1-0.2-0.1-0.3c-0.2,0.3-0.1,1.4-0.1,2.1
	c0.2,0,0.2-0.2,0.3-0.2c0.1,0.2,0.1,0.5,0.2,0.7c0,0.1,0,0.2,0,0.3l0,0.2c0,0.2,0.1,0.4,0.1,0.6
	C-1165.4,385.2-1165.5,385-1165.5,384.8 M-855.8,321.6c-24.8-0.1-49.6-0.1-74.6-0.1c-35.5,0.1-73.9,0-110.8,0.1
	c-15.7,0-31.9,0.1-47.8,0.1c-11,0-22.3,0-33.6,0c-14.7,0-29.4,0-44,0c0,2.4,0,4.8,0,7.2c0,2,0,3.9-0.1,5.7c0.5,0.1,0-1.5,0.4-1.9
	c0,1.2,0,2.5,0,3.7c-0.3,3.7-0.7,7.5-0.8,11.2c-0.2,0.9-0.5,2-0.6,2.4c-0.2,1.6,0.3,1,0.2,2.1l-0.5,0.2c0.4,1.7-0.6,2.5-0.4,4.1
	c0.2,0.1,0.2,0.7,0.2,1.3c-0.6,0,0,1.8-0.5,1.7l0,0c0,0.3,0,0.6-0.1,1c0.2,0.7,1.8,6.9,2,7.5l-0.1,0.3c0,0.9,0.4,1.3,0.5,0.8l0,1.1
	l0-0.1l0,1.1c-0.1,0.2-0.3,0.4-0.6,0.1c0.2,0.6,0.3,1.4,0.2,2c0.2-1.1,0.5-2.5,0.8-3.8c0.1,0.7,0.1,1.5,0.2,2.2
	c-0.2,1-0.4,2.3-0.6,3.3c0,0.4,0.7,0.6,0.4,1.4c-0.4,0.4,0,0.9-0.3,1.6c-0.2-0.8-0.1-1.5-0.1-2.3c-0.5,0.1-0.4,1.9-0.5,2.5
	c0.2,0.3,0,1.8,0.1,2.7c-0.3-0.3-0.4,0.1-0.4,0.6c0,0.1,0.1,0.2,0.1,0.3c0-0.1-0.1-0.2-0.1-0.3c0,0.2,0.2,0.5,0.1,0.7
	c-0.1,0.6,0.2,1,0.3,0.8c0.1,0,0.9,3,0.9,2.7c0-0.2,0.1-0.2,0.2-0.2c0,0.1,0.1,0.1,0.2,0.1c0.1,0.1,0.2,0.2,0.3-0.1l-0.1-0.3
	c0-0.5,0.1-0.7,0.3-0.8c0,0.2,0,0.5,0,0.8c0,0.4,0,0.9,0,1.3c1.7,0,3.3,0,5,0c12.1,0.2,13.1,0,24,0.2l-0.3,0c9.5,0,19,0.1,28.6,0.1
	c0.8,0,1.6,0,2.5,0c18.3,0.1,35.9,0.2,51.9,0.1c0.2,0,0.4,0,0.6,0c24.8,0.1,49.6,0.1,74.6,0.1c35.5-0.1,73.9,0,110.8-0.1
	c15.7,0,31.9-0.1,47.8-0.1c11,0,22.3,0,33.6,0c14.7,0,29.5,0,44,0c0-2.4,0-4.8,0-7.2c0-2,0-3.9,0.1-5.7c-0.5-0.1,0,1.5-0.4,1.9
	c0-1.2,0-2.5,0-3.7c0.3-3.7,0.7-7.5,0.8-11.2c0.2-0.9,0.5-2,0.6-2.4c0.2-1.6-0.3-1-0.2-2.1l0.5-0.2c-0.4-1.7,0.6-2.5,0.4-4.1
	c-0.2-0.1-0.2-0.7-0.2-1.3c0.6,0,0-1.8,0.5-1.7l0,0c0-0.3,0-0.6,0.1-1c-0.2-0.7-1.8-6.9-2-7.5l0.1-0.3c0-0.9-0.4-1.3-0.5-0.8l0-1.1
	l0,0.1l0-1.1c0.1-0.2,0.3-0.4,0.6-0.1c-0.2-0.6-0.3-1.4-0.2-2c-0.2,1.1-0.5,2.5-0.8,3.8c-0.1-0.7-0.1-1.5-0.2-2.2
	c0.2-1,0.4-2.3,0.6-3.3c0-0.4-0.7-0.6-0.4-1.4c0.4-0.4,0-0.9,0.3-1.6c0.2,0.8,0.1,1.5,0.1,2.3c0.5-0.1,0.4-1.9,0.5-2.5
	c-0.2-0.3,0-1.8-0.1-2.7c0.3,0.3,0.4-0.1,0.4-0.6c0-0.1-0.1-0.2-0.1-0.3c0,0.1,0.1,0.2,0.1,0.3c0-0.2,0.1-0.5,0.2-0.7
	c0.1-0.6-0.1-1-0.3-0.8c-0.1,0-0.2,0.1-0.3,0.2c-0.5-1.5-1-3.2-1-2.8c0,0.2-0.1,0.2-0.2,0.2c0-0.1-0.1-0.1-0.2-0.1
	c-0.1-0.1-0.2-0.2-0.3,0.1l0.1,0.3c0,0.5-0.1,0.7-0.3,0.8c0-0.2,0-0.5,0-0.8c0-0.4,0-0.9,0-1.3c-1.7,0-3.3,0-5,0
	c-12.1-0.2-13.1,0-24-0.2l0.3,0c-9.5,0-19-0.1-28.6-0.1c-0.8,0-1.6,0-2.5,0c-18.3-0.1-35.9-0.2-51.9-0.1
	C-855.5,321.6-855.7,321.6-855.8,321.6"/>
<path class="st2" d="M-925,243.5c0,0.1,0,0.5,0,0.7c0-0.5,0.3,0.8,0.5,2.2c-0.1,0.6-0.1,1.7-0.3,1.6c0,0.1,0,0.1,0,0.2l-0.1,0.4
	c-0.1-0.3-0.1-0.7-0.1-1.2c0,0.1,0,0.2,0.1,0.3c0.1-0.4,0.1-1.6,0.1-2.2c-0.1,0-0.1,0.2-0.2,0.2c0-0.2-0.1-0.5-0.1-0.8
	c0-0.1,0-0.2,0-0.3l0-0.2c0-0.2,0-0.4-0.1-0.6C-925.1,243.8-925.1,243.7-925,243.5 M-1166.8,310.1c0,0.5,0-1-0.2-2.3
	c0.1-0.6-0.2-1.6,0-1.5c0-0.1,0-0.1,0-0.2l0.1-0.4c0.1,0.3,0.1,0.7,0.1,1.2c0-0.1,0-0.2-0.1-0.3c-0.1,0.4-0.1,1.6-0.1,2.2
	c0.1,0,0.1-0.2,0.2-0.2c0,0.2,0.1,0.5,0.1,0.8c0,0.1,0,0.2,0,0.3l0,0.2c0,0.2,0,0.4,0.1,0.6
	C-1166.7,310.6-1166.8,310.4-1166.8,310.1 M-989.6,242.1c-14.2-0.1-28.4-0.1-42.7-0.1c-20.3,0.1-42.3,0-63.4,0.1
	c-9,0-18.2,0.1-27.4,0.1c-6.3,0-12.8,0-19.2,0c-8.4,0-16.9,0-25.2,0c0,2.6,0,5.2,0,7.7c0,2.1,0,4.2,0,6.2c0.3,0.1,0-1.6,0.3-2
	c0,1.3,0,2.7,0,4c-0.1,4-0.4,8.1-0.4,12.1c-0.1,1-0.3,2.2-0.4,2.6c-0.1,1.7,0.2,1,0.1,2.3l-0.3,0.2c0.3,1.9-0.3,2.7-0.2,4.5
	c0.1,0.1,0.1,0.7,0.1,1.4c-0.3,0,0,1.9-0.3,1.8l0,0c0,0.4,0,0.6,0,1.1c0.1,0.7,1,7.4,1.1,8.1l-0.1,0.3c0,1,0.3,1.4,0.3,0.8l0,1.2
	l0-0.1l0,1.2c0,0.2-0.2,0.5-0.3,0.1c0.1,0.7,0.2,1.5,0.1,2.2c0.1-1.2,0.3-2.7,0.5-4.1c0,0.8,0.1,1.6,0.1,2.4
	c-0.1,1.1-0.2,2.4-0.3,3.6c0,0.4,0.4,0.6,0.2,1.5c-0.3,0.4,0,1-0.2,1.7c-0.1-0.8-0.1-1.6-0.1-2.4c-0.3,0.1-0.2,2-0.3,2.7
	c0.1,0.3,0,1.9,0.1,2.9c-0.2-0.3-0.2,0.1-0.2,0.7c0,0.1,0,0.2,0.1,0.3c0-0.1,0-0.2-0.1-0.3c0,0.3,0.1,0.5,0.1,0.7
	c0,0.7,0.1,1.1,0.2,0.8c0.1,0,0.5,3.2,0.5,2.9c0-0.2,0.1-0.2,0.1-0.2c0,0.1,0,0.1,0.1,0.1c0.1,0.1,0.1,0.2,0.2-0.1l-0.1-0.3
	c0-0.5,0.1-0.8,0.2-0.9c0,0.3,0,0.5,0,0.8c0,0.5,0,0.9,0,1.4c1,0,1.9,0,2.9,0c6.9,0.2,7.5,0,13.7,0.2l-0.2,0
	c5.4,0,10.9,0.1,16.3,0.1c0.5,0,0.9,0,1.4,0c10.4,0.1,20.5,0.2,29.7,0.1c0.1,0,0.2,0,0.3,0c14.2,0.1,28.4,0.1,42.7,0.1
	c20.3-0.1,42.3,0,63.4-0.1c9,0,18.2-0.1,27.4-0.1c6.3,0,12.8,0,19.2,0c8.4,0,16.9,0,25.2,0c0-2.6,0-5.2,0-7.7c0-2.1,0-4.2,0-6.2
	c-0.3-0.1,0,1.6-0.3,2c0-1.3,0-2.7,0-4c0.1-4,0.4-8.1,0.4-12.1c0.1-1,0.3-2.2,0.4-2.6c0.1-1.7-0.2-1-0.1-2.3l0.3-0.2
	c-0.3-1.9,0.3-2.7,0.2-4.5c-0.1-0.1-0.1-0.7-0.1-1.4c0.3,0,0-1.9,0.3-1.8l0,0c0-0.4,0-0.6,0-1.1c-0.1-0.7-1-7.4-1.1-8.1l0.1-0.3
	c0-1-0.3-1.4-0.3-0.8l0-1.2l0,0.1l0-1.2c0-0.2,0.2-0.5,0.3-0.1c-0.1-0.7-0.2-1.5-0.1-2.2c-0.1,1.2-0.3,2.7-0.5,4.1
	c0-0.8-0.1-1.6-0.1-2.4c0.1-1.1,0.2-2.4,0.3-3.6c0-0.4-0.4-0.6-0.2-1.5c0.3-0.4,0-1,0.2-1.7c0.1,0.8,0.1,1.6,0.1,2.4
	c0.3-0.1,0.2-2,0.3-2.7c-0.1-0.3,0-1.9-0.1-2.9c0.2,0.3,0.2-0.1,0.2-0.7c0-0.1,0-0.2-0.1-0.3c0,0.1,0,0.2,0.1,0.3
	c0-0.3,0-0.5,0.1-0.7c0-0.7-0.1-1.1-0.2-0.8c-0.1,0-0.1,0.1-0.1,0.2c-0.3-1.6-0.5-3.5-0.6-3.1c0,0.2-0.1,0.2-0.1,0.2
	c0-0.1,0-0.1-0.1-0.1c-0.1-0.1-0.1-0.2-0.2,0.1l0.1,0.3c0,0.5-0.1,0.8-0.2,0.9c0-0.3,0-0.5,0-0.8c0-0.5,0-0.9,0-1.4
	c-1,0-1.9,0-2.9,0c-6.9-0.2-7.5,0-13.7-0.2l0.2,0c-5.4,0-10.9-0.1-16.3-0.1c-0.5,0-0.9,0-1.4,0c-10.4-0.1-20.5-0.2-29.7-0.1
	C-989.4,242.1-989.5,242.1-989.6,242.1"/>
<path class="st1" d="M-912,4.9c0.4,0,1.2,0,1.8,0c-1.3,0,2.1-0.2,5.5-0.3c1.4,0.1,4.4,0.1,4.1,0.1c0.2,0,0.3,0,0.4,0l1,0
	c-0.6,0-1.8,0.1-2.9,0.1c0.3,0,0.5,0,0.8,0c-0.9-0.1-3.9,0-5.6,0c0,0.1,0.6,0.1,0.6,0.1c-0.5,0-1.3,0-2,0.1c-0.2,0-0.5,0-0.7,0
	l-0.4,0c-0.5,0-1.1,0-1.6,0C-911.4,4.9-911.7,4.9-912,4.9 M-744,138.5c1.3,0-2.4,0-5.8,0.1c-1.4-0.1-4.1,0.1-3.9,0
	c-0.2,0-0.3,0-0.4,0l-1,0c0.6,0,1.8-0.1,2.9-0.1c-0.3,0-0.5,0-0.8,0c0.9,0.1,3.9,0,5.6,0c0-0.1-0.6-0.1-0.6-0.1c0.5,0,1.3,0,2-0.1
	c0.2,0,0.5,0,0.7,0l0.4,0c0.5,0,1.1,0,1.6,0C-742.8,138.5-743.4,138.5-744,138.5 M-915.7,40.6c-0.1,7.8-0.3,15.7-0.3,23.6
	c0.3,11.2,0.1,23.4,0.1,35c0.1,5,0.1,10.1,0.2,15.1c-0.1,3.5-0.1,7.1-0.1,10.6c0,4.6,0,9.3,0,13.9c6.6,0,13.2,0,19.5,0
	c5.3,0,10.5,0,15.5,0c0.2-0.2-3.9,0-5.1-0.1c3.3,0,6.7,0,10.2,0c10.1,0.1,20.3,0.2,30.5,0.2c2.5,0.1,5.5,0.1,6.6,0.2
	c4.4,0.1,2.6-0.1,5.8-0.1l0.4,0.2c4.7-0.1,6.9,0.2,11.3,0.1c0.2-0.1,1.8-0.1,3.4-0.1c0.1,0.2,4.8,0,4.6,0.2l0,0c0.9,0,1.6,0,2.8,0
	c1.8-0.1,18.6-0.6,20.5-0.6l0.8,0c2.5,0,3.6-0.1,2.1-0.2l3.1,0l-0.4,0l3.1,0c0.6,0,1.2,0.1,0.3,0.2c1.7-0.1,3.7-0.1,5.5-0.1
	c-3.1-0.1-6.7-0.2-10.3-0.3c2,0,4,0,6-0.1c2.8,0.1,6.2,0.1,9,0.2c1,0,1.6-0.2,3.8-0.1c1.1,0.1,2.4,0,4.2,0.1c-2.1,0.1-4.1,0-6.2,0
	c0.4,0.2,5.1,0.1,6.7,0.2c0.8-0.1,4.8,0,7.3,0c-0.7,0.1,0.4,0.1,1.6,0.1c0.2,0,0.5,0,0.8,0c-0.3,0-0.5,0-0.8,0c0.7,0,1.4-0.1,1.9,0
	c1.7,0,2.7,0,2-0.1c0.1,0,8.2-0.3,7.2-0.3c-0.5,0-0.6,0-0.5-0.1c0.2,0,0.4,0,0.3,0c0.2,0,0.4-0.1-0.3-0.1l-0.7,0c-1.3,0-2,0-2.2-0.1
	c0.7,0,1.4,0,2,0c1.2,0,2.3,0,3.5,0c0-0.5,0-1.1,0-1.6c0.4-3.8,0-4.1,0.4-7.6l-0.1,0.1c0.1-3,0.2-6,0.3-9c0-0.3,0-0.5,0-0.8
	c0.2-5.8,0.4-11.3,0.4-16.4c0-0.1,0-0.1,0-0.2c0.1-7.8,0.3-15.7,0.3-23.6c-0.3-11.2-0.1-23.4-0.1-35c-0.1-5-0.1-10.1-0.2-15.1
	c0.1-3.5,0.1-7.1,0.1-10.6c0-4.6,0-9.3,0-13.9c-6.6,0-13.2,0-19.5,0c-5.3,0-10.5,0-15.5,0c-0.2,0.2,3.9,0,5.1,0.1
	c-3.3,0-6.7,0-10.2,0c-10.1-0.1-20.3-0.2-30.5-0.2c-2.5,0-5.5-0.1-6.6-0.2c-4.4-0.1-2.6,0.1-5.8,0.1l-0.4-0.2
	c-4.7,0.1-6.9-0.2-11.3-0.1c-0.2,0.1-1.8,0.1-3.4,0.1c-0.1-0.2-4.8,0-4.6-0.2l0,0c-0.9,0-1.6,0-2.8,0c-1.8,0.1-18.6,0.6-20.5,0.6
	l-0.8,0c-2.5,0-3.6,0.1-2.1,0.2l-3.1,0l0.4,0l-3.1,0c-0.6,0-1.2-0.1-0.3-0.2c-1.7,0.1-3.7,0.1-5.5,0.1c3.1,0.1,6.7,0.2,10.3,0.3
	c-2,0-4,0-6,0.1c-2.8-0.1-6.2-0.1-9-0.2c-1,0-1.6,0.2-3.8,0.1c-1.1-0.1-2.4,0-4.2-0.1c2.1-0.1,4.1,0,6.2,0c-0.4-0.2-5.1-0.1-6.7-0.2
	c-0.8,0.1-4.8,0-7.3,0c0.7-0.1-0.4-0.1-1.6-0.1c-0.2,0-0.5,0-0.8,0c0.3,0,0.5,0,0.8,0c-0.7,0-1.4,0-1.9-0.1c-1.7,0-2.8,0-2.1,0.1
	c-0.1,0,0.1,0.1,0.6,0.1c-4,0.1-8.7,0.3-7.7,0.3c0.5,0,0.6,0,0.5,0.1c-0.2,0-0.4,0-0.3,0c-0.2,0-0.4,0.1,0.3,0.1l0.7,0
	c1.3,0,2,0,2.2,0.1c-0.7,0-1.4,0-2,0c-1.2,0-2.3,0-3.5,0c0,0.5,0,1.1,0,1.6c-0.4,3.8,0,4.1-0.4,7.6l0.1-0.1c-0.1,3-0.2,6-0.3,9
	c0,0.3,0,0.5,0,0.8c-0.2,5.8-0.4,11.3-0.4,16.4C-915.7,40.4-915.7,40.5-915.7,40.6"/>
<path class="st0" d="M-912.1,148.8c0.4,0,1.2,0,1.8,0c-1.3,0,2.1-0.2,5.5-0.4c1.4,0.1,4.4,0.1,4.1,0.2c0.2,0,0.3,0,0.4,0l1,0
	c-0.6,0-1.7,0.1-2.9,0.1c0.3,0,0.5,0,0.8,0c-0.9-0.1-3.9,0-5.5,0c0,0.1,0.6,0.1,0.5,0.1c-0.5,0-1.3,0.1-2,0.1c-0.2,0-0.5,0-0.7,0
	l-0.4,0c-0.5,0-1.1,0-1.6,0C-911.4,148.8-911.8,148.8-912.1,148.8 M-745.7,311.8c1.3,0-2.4,0-5.7,0.2c-1.4-0.1-4.1,0.1-3.8,0
	c-0.2,0-0.3,0-0.4,0l-1,0c0.6,0,1.7-0.1,2.9-0.1c-0.3,0-0.5,0-0.8,0c0.9,0.1,3.9,0,5.5,0c0-0.1-0.6-0.1-0.5-0.1c0.5,0,1.3-0.1,2-0.1
	c0.2,0,0.5,0,0.7,0l0.4,0c0.5,0,1.1,0,1.6,0C-744.6,311.7-745.1,311.8-745.7,311.8 M-915.7,192.3c-0.1,9.5-0.2,19.1-0.3,28.8
	c0.3,13.7,0.1,28.5,0.1,42.7c0.1,6.1,0.1,12.3,0.2,18.4c-0.1,4.3-0.1,8.6-0.1,13c0,5.7,0,11.4,0,17c6.6,0,13,0,19.3,0
	c5.3,0,10.4,0,15.4,0c0.2-0.2-3.9,0-5-0.2c3.3,0,6.7,0,10.1,0c10,0.1,20.1,0.3,30.2,0.3c2.4,0.1,5.4,0.2,6.6,0.2
	c4.3,0.1,2.6-0.1,5.7-0.1l0.4,0.2c4.6-0.2,6.8,0.2,11.2,0.1c0.2-0.1,1.8-0.1,3.4-0.1c0.1,0.2,4.8,0,4.6,0.2l0,0c0.9,0,1.6,0,2.7,0
	c1.8-0.1,18.4-0.7,20.2-0.8l0.8,0c2.5,0,3.6-0.2,2.1-0.2l3.1,0l-0.4,0l3.1,0c0.6,0,1.2,0.1,0.3,0.2c1.7-0.1,3.7-0.1,5.4-0.1
	c-3.1-0.1-6.7-0.2-10.1-0.3c2,0,3.9,0,5.9-0.1c2.7,0.1,6.1,0.2,8.9,0.2c0.9,0,1.6-0.3,3.7-0.1c1,0.2,2.4,0,4.2,0.1c-2,0.1-4,0-6.1,0
	c0.4,0.2,5,0.1,6.7,0.2c0.8-0.1,4.8,0,7.3-0.1c-0.7,0.1,0.4,0.1,1.6,0.2c0.2,0,0.5,0,0.8,0c-0.3,0-0.5,0-0.7,0
	c0.7,0,1.4-0.1,1.9-0.1c1.7,0,2.7-0.1,2-0.1c0.1,0,8.1-0.3,7.1-0.3c-0.5,0-0.6,0-0.5-0.1c0.2,0,0.4,0,0.3-0.1c0.2,0,0.4-0.1-0.3-0.1
	l-0.7,0.1c-1.3,0-1.9,0-2.2-0.1c0.7,0,1.3,0,2,0c1.2,0,2.3,0,3.5,0c0-0.6,0-1.3,0-1.9c0.4-4.7,0-5.1,0.4-9.2l-0.1,0.1
	c0.1-3.7,0.2-7.3,0.3-11c0-0.3,0-0.6,0-0.9c0.2-7,0.4-13.8,0.4-20c0-0.1,0-0.2,0-0.2c0.1-9.5,0.2-19.1,0.3-28.8
	c-0.3-13.7-0.1-28.5-0.1-42.7c-0.1-6.1-0.1-12.3-0.2-18.4c0.1-4.3,0.1-8.6,0.1-13c0-5.7,0-11.4,0-17c-6.6,0-13,0-19.3,0
	c-5.3,0-10.4,0-15.4,0c-0.2,0.2,3.9,0,5,0.2c-3.3,0-6.7,0-10.1,0c-10-0.1-20.1-0.3-30.2-0.3c-2.4-0.1-5.4-0.2-6.6-0.2
	c-4.3-0.1-2.6,0.1-5.7,0.1l-0.4-0.2c-4.6,0.2-6.8-0.2-11.2-0.1c-0.2,0.1-1.8,0.1-3.4,0.1c-0.1-0.2-4.8,0-4.6-0.2l0,0
	c-0.9,0-1.6,0-2.7,0c-1.8,0.1-18.4,0.7-20.2,0.8l-0.8,0c-2.5,0-3.6,0.2-2.1,0.2l-3.1,0l0.4,0l-3.1,0c-0.6,0-1.2-0.1-0.3-0.2
	c-1.7,0.1-3.7,0.1-5.4,0.1c3.1,0.1,6.7,0.2,10.1,0.3c-2,0-3.9,0-5.9,0.1c-2.7-0.1-6.1-0.2-8.9-0.2c-0.9,0-1.6,0.3-3.7,0.1
	c-1-0.2-2.4,0-4.2-0.1c2-0.1,4-0.1,6.1,0c-0.4-0.2-5-0.1-6.7-0.2c-0.8,0.1-4.8,0-7.3,0.1c0.7-0.1-0.4-0.1-1.6-0.2
	c-0.2,0-0.5,0-0.8,0c0.3,0,0.5,0,0.7,0c-0.7,0-1.4,0-1.9-0.1c-1.7,0-2.8,0.1-2.1,0.1c-0.1,0,0.1,0.1,0.6,0.1c-4,0.2-8.6,0.4-7.7,0.4
	c0.5,0,0.6,0,0.5,0.1c-0.2,0-0.4,0-0.3,0.1c-0.2,0-0.4,0.1,0.3,0.1l0.7-0.1c1.3,0,1.9,0,2.2,0.1c-0.7,0-1.3,0-2,0
	c-1.2,0-2.3,0-3.5,0c0,0.6,0,1.3,0,1.9c-0.4,4.7,0,5.1-0.4,9.2l0.1-0.1c-0.1,3.7-0.2,7.3-0.3,11c0,0.3,0,0.6,0,0.9
	c-0.2,7-0.4,13.8-0.4,20C-915.7,192.2-915.7,192.3-915.7,192.3"/>
<path class="st1" d="M-925,149.6c0,0.2,0,0.6,0,0.9c0-0.6,0.3,1,0.5,2.7c-0.1,0.7-0.1,2.1-0.3,2c0,0.1,0,0.2,0,0.2l-0.1,0.5
	c-0.1-0.3-0.1-0.9-0.1-1.4c0,0.1,0,0.3,0.1,0.4c0.1-0.5,0.1-1.9,0.1-2.7c-0.1,0-0.1,0.3-0.2,0.3c0-0.3-0.1-0.6-0.1-1
	c0-0.1,0-0.2,0-0.3l0-0.2c0-0.2,0-0.5-0.1-0.8C-925.1,149.9-925.1,149.7-925,149.6 M-1166.8,230.9c0,0.6,0-1.2-0.2-2.8
	c0.1-0.7-0.2-2,0-1.9c0-0.1,0-0.2,0-0.2l0.1-0.5c0.1,0.3,0.1,0.9,0.1,1.4c0-0.1,0-0.3-0.1-0.4c-0.1,0.5-0.1,1.9-0.1,2.7
	c0.1,0,0.1-0.3,0.2-0.3c0,0.3,0.1,0.6,0.1,1c0,0.1,0,0.2,0,0.3l0,0.2c0,0.2,0,0.5,0.1,0.8C-1166.7,231.5-1166.8,231.2-1166.8,230.9
	 M-989.6,147.8c-14.2-0.1-28.4-0.1-42.7-0.2c-20.3,0.1-42.3,0-63.4,0.1c-9,0-18.2,0.1-27.4,0.1c-6.3,0-12.8,0-19.2,0
	c-8.4,0-16.9,0-25.2,0c0,3.2,0,6.4,0,9.4c0,2.6,0,5.1,0,7.5c0.3,0.1,0-1.9,0.3-2.5c0,1.6,0,3.3,0,4.9c-0.1,4.9-0.4,9.8-0.4,14.8
	c-0.1,1.2-0.3,2.7-0.4,3.2c-0.1,2.1,0.2,1.3,0.1,2.8l-0.3,0.2c0.3,2.3-0.3,3.3-0.2,5.5c0.1,0.1,0.1,0.9,0.1,1.7
	c-0.3,0,0,2.3-0.3,2.2l0,0c0,0.5,0,0.8,0,1.3c0.1,0.9,1,9,1.1,9.9l-0.1,0.4c0,1.2,0.3,1.7,0.3,1l0,1.5l0-0.2l0,1.5
	c0,0.3-0.2,0.6-0.3,0.2c0.1,0.8,0.2,1.8,0.1,2.6c0.1-1.5,0.3-3.3,0.5-5c0,1,0.1,1.9,0.1,2.9c-0.1,1.3-0.2,3-0.3,4.4
	c0,0.5,0.4,0.8,0.2,1.8c-0.3,0.5,0,1.2-0.2,2c-0.1-1-0.1-2-0.1-3c-0.3,0.2-0.2,2.5-0.3,3.3c0.1,0.4,0,2.3,0.1,3.6
	c-0.2-0.4-0.2,0.2-0.2,0.8c0,0.1,0,0.2,0.1,0.4c0-0.1,0-0.2-0.1-0.4c0,0.3,0.1,0.7,0.1,0.9c0,0.8,0.1,1.3,0.2,1
	c0.1,0.1,0.5,4,0.5,3.5c0-0.3,0.1-0.3,0.1-0.2c0,0.1,0,0.2,0.1,0.1c0.1,0.1,0.1,0.2,0.2-0.2l-0.1-0.3c0-0.6,0.1-0.9,0.2-1.1
	c0,0.3,0,0.7,0,1c0,0.6,0,1.1,0,1.7c1,0,1.9,0,2.9,0c6.9,0.2,7.5,0,13.7,0.2l-0.2-0.1c5.4,0,10.9,0.1,16.3,0.1c0.5,0,0.9,0,1.4,0
	c10.4,0.1,20.5,0.2,29.7,0.2c0.1,0,0.2,0,0.3,0c14.2,0.1,28.4,0.1,42.7,0.2c20.3-0.1,42.3,0,63.4-0.1c9,0,18.2-0.1,27.4-0.1
	c6.3,0,12.8,0,19.2,0c8.4,0,16.9,0,25.2,0c0-3.2,0-6.4,0-9.4c0-2.6,0-5.1,0-7.5c-0.3-0.1,0,1.9-0.3,2.5c0-1.6,0-3.3,0-4.9
	c0.1-4.9,0.4-9.8,0.4-14.8c0.1-1.2,0.3-2.7,0.4-3.2c0.1-2.1-0.2-1.3-0.1-2.8l0.3-0.2c-0.3-2.3,0.3-3.3,0.2-5.5
	c-0.1-0.1-0.1-0.9-0.1-1.7c0.3,0,0-2.3,0.3-2.2l0,0c0-0.5,0-0.8,0-1.3c-0.1-0.9-1-9-1.1-9.9l0.1-0.4c0-1.2-0.3-1.7-0.3-1l0-1.5
	l0,0.2l0-1.5c0-0.3,0.2-0.6,0.3-0.2c-0.1-0.8-0.2-1.8-0.1-2.6c-0.1,1.5-0.3,3.3-0.5,5c0-1-0.1-1.9-0.1-2.9c0.1-1.3,0.2-3,0.3-4.4
	c0-0.5-0.4-0.8-0.2-1.8c0.3-0.5,0-1.2,0.2-2c0.1,1,0.1,2,0.1,3c0.3-0.2,0.2-2.5,0.3-3.3c-0.1-0.4,0-2.3-0.1-3.6
	c0.2,0.4,0.2-0.2,0.2-0.8c0-0.1,0-0.2-0.1-0.4c0,0.1,0,0.2,0.1,0.4c0-0.3,0-0.7,0.1-0.9c0-0.8-0.1-1.4-0.2-1
	c-0.1-0.1-0.1,0.1-0.1,0.3c-0.3-2-0.5-4.2-0.6-3.7c0,0.3-0.1,0.3-0.1,0.2c0-0.1,0-0.2-0.1-0.1c-0.1-0.1-0.1-0.2-0.2,0.2l0.1,0.3
	c0,0.6-0.1,0.9-0.2,1.1c0-0.3,0-0.7,0-1c0-0.6,0-1.1,0-1.7c-1,0-1.9,0-2.9,0c-6.9-0.2-7.5,0-13.7-0.2l0.2,0.1
	c-5.4,0-10.9-0.1-16.3-0.1c-0.5,0-0.9,0-1.4,0c-10.4-0.1-20.5-0.2-29.7-0.2C-989.4,147.8-989.5,147.8-989.6,147.8"/>
<rect x="-1155.9" y="17.1" class="st4" width="225.6" height="16.3"/>
<text transform="matrix(1 0 0 1 -1155.8662 29.1396)" class="st3 st5" style="font-size:16.611px;">Työhömme ohjelmamaissa osallistui </text>
<rect x="-1156.5" y="47.2" class="st4" width="266.9" height="74"/>
<text transform="matrix(1 0 0 1 -1071.8872 78.2553)" class="st3 st5" style="font-size:14.5852px;">tyttöä </text>
<text transform="matrix(1 0 0 1 -1072.4028 62.3974)" class="st1 st5" style="font-size:26.7396px;">42 600</text>
<text transform="matrix(1 0 0 1 -1154.9995 78.2553)" class="st3 st5" style="font-size:14.5852px;">lasta</text>
<text transform="matrix(1 0 0 1 -1155.6011 62.3974)" class="st1 st5" style="font-size:26.7396px;">78 600</text>
<text transform="matrix(1 0 0 1 -1154.5986 108.5443)" class="st1 st5" style="font-size:26.7396px;">91 400</text>
<text transform="matrix(1 0 0 1 -1154.5337 123.7524)" class="st3 st5" style="font-size:14.5852px;">aikuista</text>
<g>
	<text transform="matrix(1 0 0 1 -947.01 377.8382)" class="st3 st5" style="font-size:16px;">koululaiselle </text>
	<text transform="matrix(1 0 0 1 -947.7526 358.2678)" class="st2 st5" style="font-size:38px;">19 000</text>
</g>
<g>
	<text transform="matrix(1 0 0 1 -842.3796 359.0698)" class="st2 st5" style="font-size:38px;">12 100</text>
	<text transform="matrix(1 0 0 1 -841.1429 377.8382)" class="st3 st5" style="font-size:16px;">aikuiselle</text>
</g>
<g>
	<text transform="matrix(1 0 0 1 -1071.2935 108.5443)" class="st1 st5" style="font-size:26.7396px;">53 500</text>
	<text transform="matrix(1 0 0 1 -1072.4028 124.4018)"><tspan x="0" y="0" class="st1 st5" style="font-size:12.1544px;"> </tspan><tspan x="2.4" y="0" class="st3 st5" style="font-size:14.5852px;">naista</tspan></text>
</g>
<g>
	<text transform="matrix(1 0 0 1 -994.2847 108.5443)" class="st1 st5" style="font-size:26.7396px;">37 900 </text>
	<text transform="matrix(1 0 0 1 -993.2969 123.7524)" class="st3 st5" style="font-size:14.5852px;">miestä</text>
</g>
<text transform="matrix(1 0 0 1 -1157.4901 223.3235)" class="st3 st5" style="font-size:24px;">varhaiskasvatuskeskusta</text>
<rect x="-1157.5" y="158.2" class="st4" width="129.5" height="71.5"/>
<text transform="matrix(1 0 0 1 -1157.49 175.6037)"><tspan x="0" y="0" class="st3 st5" style="font-size:24px;">Perustimme </tspan><tspan x="0" y="24" class="st3 st5" style="font-size:24px;">tai tuimme </tspan></text>
<text transform="matrix(1 0 0 1 -1037.9456 199.7894)" class="st2 st5" style="font-size:60px;">554</text>
<rect x="-1159" y="331" class="st4" width="208.5" height="60.6"/>
<text transform="matrix(1 0 0 1 -1159 342.5542)"><tspan x="0" y="0" class="st3 st5" style="font-size:16px;">Suomessa Globaalikoulumme </tspan><tspan x="0" y="18" class="st3 st5" style="font-size:16px;">tarjosi opetusta globaalin </tspan><tspan x="0" y="36" class="st3 st5" style="font-size:16px;">vastuun kysymyksistä</tspan></text>
<rect x="-1156.5" y="254.8" class="st4" width="217.3" height="85.3"/>
<text transform="matrix(1 0 0 1 -1156.5002 266.3642)"><tspan x="0" y="0" class="st3 st5" style="font-size:16px;">Paransimme opettajien osaamista ja </tspan><tspan x="0" y="18" class="st3 st5" style="font-size:16px;">lasten ja nuorten osallistumista </tspan><tspan x="0" y="36" class="st3 st5" style="font-size:16px;">kouluhallintoon </tspan><tspan x="101.7" y="36" class="st1 st5" style="font-size:16px;">170</tspan><tspan x="118.3" y="36" class="st3 st5" style="font-size:16px;"> koulussa.</tspan></text>
<rect x="-906.5" y="21.2" class="st4" width="164.5" height="162.4"/>
<text transform="matrix(1 0 0 1 -906.5453 57.4184)"><tspan x="0" y="0" class="st2 st5" style="font-size:15px;">Tuimme </tspan><tspan x="42.6" y="0" class="st3 st5" style="font-size:50px;">44 500</tspan><tspan x="152.9" y="0" class="st5" style="fill:#FFFFFF;stroke:#000000;stroke-miterlimit:10; font-size:40px;"> </tspan><tspan x="0" y="17" class="st2 st5" style="font-size:15px;">alle kuusivuotiaan lapsen </tspan><tspan x="0" y="34" class="st2 st5" style="font-size:15px;">varhaiskasvatusta kotona ja </tspan><tspan x="0" y="51" class="st2 st5" style="font-size:15px;">varhaiskasvatuskeskuksissa </tspan><tspan x="0" y="68" class="st2 st5" style="font-size:15px;">kuudessa maassa.  </tspan></text>
<text transform="matrix(1 0 0 1 -902.6395 212.3735)" class="st3 st5" style="font-size:24px;">tyttöä </text>
<text transform="matrix(1 0 0 1 -903.33 186.1293)" class="st1 st5" style="font-size:35.8224px;">11 100</text>
<text transform="matrix(1 0 0 1 -822.3163 212.3735)" class="st3 st5" style="font-size:24px;">poikaa</text>
<text transform="matrix(1 0 0 1 -823.8475 186.1293)" class="st1 st5" style="font-size:35.8224px;">6 800 </text>
<text transform="matrix(1 0 0 1 -902.8137 240.8736)"><tspan x="0" y="0" class="st3 st5" style="font-size:19px;">sai meiltä koulutusta </tspan><tspan x="0" y="20" class="st3 st5" style="font-size:19px;">oikeuksistaan ja </tspan><tspan x="0" y="40" class="st3 st5" style="font-size:19px;">lasten suojelusta </tspan><tspan x="0" y="60" class="st3 st5" style="font-size:19px;">väkivallalta.</tspan></text>
<g>
	<text transform="matrix(1 0 0 1 -993.1421 77.6054)" class="st3 st5" style="font-size:14.5852px;">poikaa</text>
	<text transform="matrix(1 0 0 1 -994.2852 62.3974)" class="st1 st5" style="font-size:26.7396px;">36 000 </text>
</g>
<path class="st0" d="M-254.9,80c0,0.2,0,0.5,0,0.8c0-0.5,0.2,0.9,0.5,2.3c-0.1,0.6-0.1,1.9-0.2,1.8c0,0.1,0,0.1,0,0.2l-0.1,0.4
	c0-0.3-0.1-0.7-0.1-1.2c0,0.1,0,0.2,0.1,0.3c0.1-0.4,0.1-1.7,0-2.4c-0.1,0-0.1,0.3-0.2,0.2c0-0.2-0.1-0.5-0.1-0.9c0-0.1,0-0.2,0-0.3
	l0-0.2c0-0.2,0-0.5,0-0.7C-254.9,80.2-254.9,80.1-254.9,80 M-463.7,150.9c0,0.5,0-1-0.2-2.4c0.1-0.6-0.2-1.7,0-1.6
	c0-0.1,0-0.1,0-0.2l0.1-0.4c0,0.3,0.1,0.7,0.1,1.2c0-0.1,0-0.2-0.1-0.3c-0.1,0.4-0.1,1.7,0,2.4c0.1,0,0.1-0.3,0.2-0.2
	c0,0.2,0.1,0.5,0.1,0.9c0,0.1,0,0.2,0,0.3l0,0.2c0,0.2,0,0.5,0,0.7C-463.6,151.4-463.7,151.1-463.7,150.9 M-310.7,78.4
	c-12.2-0.1-24.5-0.1-36.8-0.1c-17.5,0.1-36.5,0-54.7,0.1c-7.8,0-15.8,0.1-23.6,0.1c-5.5,0-11,0-16.6,0c-7.3,0-14.6,0-21.7,0
	c0,2.8,0,5.6,0,8.2c0,2.3,0,4.4,0,6.6c0.3,0.1,0-1.7,0.2-2.1c0,1.4,0,2.8,0,4.3c-0.1,4.3-0.3,8.6-0.4,12.9c-0.1,1-0.2,2.3-0.3,2.8
	c-0.1,1.8,0.1,1.1,0.1,2.4l-0.3,0.2c0.2,2-0.3,2.9-0.2,4.8c0.1,0.1,0.1,0.8,0.1,1.4c-0.3,0,0,2-0.2,1.9l0,0c0,0.4,0,0.7,0,1.2
	c0.1,0.8,0.9,7.9,1,8.6l0,0.4c0,1.1,0.2,1.5,0.3,0.9l0,1.3l0-0.2l0,1.3c0,0.2-0.2,0.5-0.3,0.1c0.1,0.7,0.2,1.6,0.1,2.3
	c0.1-1.3,0.3-2.8,0.4-4.3c0,0.8,0.1,1.7,0.1,2.5c-0.1,1.2-0.2,2.6-0.3,3.8c0,0.4,0.3,0.7,0.2,1.6c-0.2,0.4,0,1-0.1,1.8
	c-0.1-0.9-0.1-1.7-0.1-2.6c-0.3,0.2-0.2,2.1-0.2,2.8c0.1,0.3,0,2,0.1,3.1c-0.2-0.3-0.2,0.2-0.2,0.7c0,0.1,0,0.2,0.1,0.3
	c0-0.1,0-0.2-0.1-0.3c0,0.3,0.1,0.6,0.1,0.8c0,0.7,0.1,1.2,0.2,0.9c0.1,0.1,0.4,3.5,0.4,3c0-0.2,0.1-0.2,0.1-0.2
	c0,0.1,0,0.2,0.1,0.1c0.1,0.1,0.1,0.2,0.1-0.1l-0.1-0.3c0-0.6,0.1-0.8,0.1-0.9c0,0.3,0,0.6,0,0.9c0,0.5,0,1,0,1.5c0.8,0,1.7,0,2.5,0
	c6,0.2,6.5,0,11.8,0.2l-0.2,0c4.7,0,9.4,0.1,14.1,0.1c0.4,0,0.8,0,1.2,0c9,0.1,17.7,0.2,25.6,0.2c0.1,0,0.2,0,0.3,0
	c12.2,0.1,24.5,0.1,36.8,0.1c17.5-0.1,36.5,0,54.7-0.1c7.8,0,15.8-0.1,23.6-0.1c5.5,0,11,0,16.6,0c7.3,0,14.6,0,21.7,0
	c0-2.8,0-5.6,0-8.2c0-2.2,0-4.4,0-6.6c-0.3-0.1,0,1.7-0.2,2.1c0-1.4,0-2.8,0-4.3c0.1-4.3,0.3-8.6,0.4-12.9c0.1-1,0.2-2.3,0.3-2.8
	c0.1-1.8-0.1-1.1-0.1-2.4l0.3-0.2c-0.2-2,0.3-2.9,0.2-4.8c-0.1-0.1-0.1-0.8-0.1-1.4c0.3,0,0-2,0.2-1.9l0,0c0-0.4,0-0.7,0-1.2
	c-0.1-0.8-0.9-7.9-1-8.6l0-0.4c0-1.1-0.2-1.5-0.3-0.9l0-1.3l0,0.2l0-1.3c0-0.2,0.2-0.5,0.3-0.1c-0.1-0.7-0.2-1.6-0.1-2.3
	c-0.1,1.3-0.3,2.8-0.4,4.3c0-0.8-0.1-1.7-0.1-2.5c0.1-1.2,0.2-2.6,0.3-3.8c0-0.4-0.3-0.7-0.2-1.6c0.2-0.4,0-1,0.1-1.8
	c0.1,0.9,0.1,1.7,0.1,2.6c0.3-0.2,0.2-2.1,0.2-2.8c-0.1-0.3,0-2-0.1-3.1c0.2,0.3,0.2-0.2,0.2-0.7c0-0.1,0-0.2,0-0.3
	c0,0.1,0,0.2,0,0.3c0-0.3,0-0.6,0.1-0.8c0-0.7-0.1-1.2-0.2-0.9c-0.1-0.1-0.1,0.1-0.1,0.2c-0.2-1.7-0.5-3.7-0.5-3.3
	c0,0.2-0.1,0.2-0.1,0.2c0-0.1,0-0.2-0.1-0.1c-0.1-0.1-0.1-0.2-0.1,0.1l0.1,0.3c0,0.6-0.1,0.8-0.1,0.9c0-0.3,0-0.6,0-0.9
	c0-0.5,0-1,0-1.5c-0.8,0-1.7,0-2.5,0c-6-0.2-6.5,0-11.8-0.2l0.2,0c-4.7,0-9.4-0.1-14.1-0.1c-0.4,0-0.8,0-1.2,0
	c-9-0.1-17.7-0.2-25.6-0.2C-310.5,78.4-310.6,78.4-310.7,78.4"/>
<path class="st2" d="M-34.2,2.3c0,0.1,0,0.5,0,0.7c0-0.5,0.2,0.8,0.4,2.2c-0.1,0.6-0.1,1.8-0.2,1.6c0,0.1,0,0.1,0,0.2l0,0.4
	c0-0.3-0.1-0.7-0.1-1.2c0,0.1,0,0.2,0.1,0.3c0.1-0.4,0-1.6,0-2.2c-0.1,0-0.1,0.2-0.1,0.2c0-0.2-0.1-0.5-0.1-0.8c0-0.1,0-0.2,0-0.3
	l0-0.2c0-0.2,0-0.4,0-0.6C-34.3,2.5-34.3,2.4-34.2,2.3 M-213.2,69.1c0,0.5,0-1-0.2-2.3c0.1-0.6-0.1-1.6,0-1.5c0-0.1,0-0.1,0-0.2
	l0-0.4c0,0.3,0.1,0.7,0.1,1.2c0-0.1,0-0.2-0.1-0.3c-0.1,0.4,0,1.6,0,2.2c0.1,0,0.1-0.2,0.1-0.2c0,0.2,0.1,0.5,0.1,0.8
	c0,0.1,0,0.2,0,0.3l0,0.2c0,0.2,0,0.4,0,0.6C-213.2,69.6-213.2,69.3-213.2,69.1 M-82,0.8c-10.5-0.1-21-0.1-31.6-0.1
	c-15,0.1-31.3,0-46.9,0.1c-6.6,0-13.5,0.1-20.3,0.1c-4.7,0-9.4,0-14.2,0c-6.2,0-12.5,0-18.6,0c0,2.6,0,5.2,0,7.8c0,2.1,0,4.2,0,6.2
	c0.2,0.1,0-1.6,0.2-2c0,1.3,0,2.7,0,4c-0.1,4-0.3,8.1-0.3,12.1c-0.1,1-0.2,2.2-0.3,2.6c-0.1,1.7,0.1,1,0.1,2.3l-0.2,0.2
	c0.2,1.9-0.3,2.7-0.2,4.5c0.1,0.1,0.1,0.7,0.1,1.4c-0.2,0,0,1.9-0.2,1.8l0,0c0,0.4,0,0.6,0,1.1c0.1,0.7,0.7,7.4,0.8,8.1l0,0.3
	c0,1,0.2,1.4,0.2,0.8l0,1.2l0-0.1l0,1.2c0,0.2-0.1,0.5-0.2,0.1c0.1,0.7,0.1,1.5,0.1,2.2c0.1-1.2,0.2-2.7,0.4-4.1
	c0,0.8,0,1.6,0.1,2.4c-0.1,1.1-0.2,2.4-0.3,3.6c0,0.4,0.3,0.6,0.2,1.5c-0.2,0.4,0,1-0.1,1.7c-0.1-0.8-0.1-1.6,0-2.5
	c-0.2,0.1-0.1,2-0.2,2.7c0.1,0.3,0,1.9,0.1,2.9c-0.1-0.3-0.2,0.2-0.2,0.7c0,0.1,0,0.2,0,0.3c0-0.1,0-0.2,0-0.3
	c0,0.3,0.1,0.5,0.1,0.7c0,0.7,0.1,1.1,0.1,0.8c0.1,0,0.4,3.3,0.4,2.9c0-0.2,0.1-0.2,0.1-0.2c0,0.1,0,0.1,0.1,0.1
	c0,0.1,0.1,0.2,0.1-0.1l-0.1-0.3c0-0.5,0.1-0.8,0.1-0.9c0,0.3,0,0.5,0,0.8c0,0.5,0,0.9,0,1.4c0.7,0,1.4,0,2.1,0
	c5.1,0.2,5.5,0,10.2,0.2l-0.1,0c4,0,8.1,0.1,12.1,0.1c0.3,0,0.7,0,1,0c7.7,0.1,15.2,0.2,22,0.1c0.1,0,0.2,0,0.2,0
	c10.5,0.1,21,0.1,31.6,0.1c15-0.1,31.3,0,46.9-0.1c6.6,0,13.5-0.1,20.3-0.1c4.7,0,9.4,0,14.2,0c6.2,0,12.5,0,18.6,0
	c0-2.6,0-5.2,0-7.8c0-2.1,0-4.2,0-6.2c-0.2-0.1,0,1.6-0.2,2c0-1.3,0-2.7,0-4c0.1-4,0.3-8.1,0.3-12.1c0.1-1,0.2-2.2,0.3-2.6
	c0.1-1.7-0.1-1-0.1-2.3l0.2-0.2c-0.2-1.9,0.3-2.7,0.2-4.5c-0.1-0.1-0.1-0.7-0.1-1.4c0.2,0,0-1.9,0.2-1.8l0,0c0-0.4,0-0.6,0-1.1
	c-0.1-0.7-0.7-7.4-0.8-8.1l0-0.3c0-1-0.2-1.4-0.2-0.8l0-1.2l0,0.1l0-1.2c0-0.2,0.1-0.5,0.2-0.1c-0.1-0.7-0.1-1.5-0.1-2.2
	c-0.1,1.2-0.2,2.7-0.4,4.1c0-0.8-0.1-1.6-0.1-2.4c0.1-1.1,0.2-2.4,0.3-3.6c0-0.4-0.3-0.6-0.2-1.5c0.2-0.4,0-1,0.1-1.7
	c0.1,0.8,0.1,1.6,0,2.5c0.2-0.1,0.1-2,0.2-2.7c-0.1-0.3,0-1.9-0.1-2.9c0.1,0.3,0.2-0.2,0.2-0.7c0-0.1,0-0.2,0-0.3c0,0.1,0,0.2,0,0.3
	c0-0.3,0-0.5,0.1-0.7c0-0.7-0.1-1.1-0.1-0.8c-0.1,0-0.1,0.1-0.1,0.2C-34,3.5-34.2,1.7-34.2,2c0,0.2-0.1,0.2-0.1,0.2
	c0-0.1,0-0.1-0.1-0.1c0-0.1-0.1-0.2-0.1,0.1l0.1,0.3c0,0.5-0.1,0.8-0.1,0.9c0-0.3,0-0.5,0-0.8c0-0.5,0-0.9,0-1.4c-0.7,0-1.4,0-2.1,0
	c-5.1-0.2-5.5,0-10.2-0.2l0.1,0c-4,0-8.1-0.1-12.1-0.1c-0.3,0-0.7,0-1,0c-7.7-0.1-15.2-0.2-22-0.1C-81.9,0.8-82,0.8-82,0.8"/>
<path class="st1" d="M-459.7,1.5c0.5,0,1.6,0,2.4,0c-1.8,0,2.9-0.1,7.5-0.2c2,0,6,0,5.7,0.1c0.3,0,0.5,0,0.6,0l1.4,0
	c-0.9,0-2.4,0-4,0c0.4,0,0.7,0,1.1,0c-1.3,0-5.4,0-7.6,0c0,0,0.8,0,0.8,0.1c-0.7,0-1.8,0-2.8,0c-0.3,0-0.6,0-1,0l-0.6,0
	c-0.7,0-1.5,0-2.2,0C-458.8,1.5-459.3,1.5-459.7,1.5 M-229.7,70.9c1.8,0-3.3,0-7.9,0.1c-2,0-5.7,0.1-5.3,0c-0.3,0-0.5,0-0.6,0
	l-1.4,0c0.9,0,2.4,0,4,0c-0.4,0-0.7,0-1.1,0c1.3,0,5.4,0,7.6,0c0,0-0.8,0-0.8-0.1c0.7,0,1.8,0,2.8,0c0.3,0,0.6,0,1,0l0.6,0
	c0.7,0,1.5,0,2.2,0C-228.1,70.9-228.9,70.9-229.7,70.9 M-464.7,20c-0.2,4.1-0.3,8.1-0.4,12.3c0.4,5.8,0.1,12.1,0.2,18.2
	c0.1,2.6,0.2,5.2,0.3,7.9c-0.1,1.8-0.1,3.7-0.1,5.5c0,2.4,0,4.8,0,7.2c9.1,0,18,0,26.7,0c7.3,0,14.4,0,21.2,0c0.3-0.1-5.4,0-6.9-0.1
	c4.6,0,9.2,0,13.9,0c13.9,0,27.8,0.1,41.8,0.1c3.4,0,7.5,0.1,9.1,0.1c6,0,3.5,0,7.9,0l0.6,0.1c6.4-0.1,9.4,0.1,15.4,0.1
	c0.3,0,2.5,0,4.7,0c0.1,0.1,6.6,0,6.3,0.1l0.1,0c1.3,0,2.2,0,3.8,0c2.5,0,25.5-0.3,28-0.3l1.2,0c3.4,0,4.9-0.1,2.9-0.1l4.2,0l-0.5,0
	l4.2,0c0.8,0,1.7,0.1,0.5,0.1c2.4,0,5.1-0.1,7.5,0c-4.3,0-9.2-0.1-14-0.1c2.7,0,5.4,0,8.2,0c3.8,0,8.4,0.1,12.3,0.1
	c1.3,0,2.2-0.1,5.2-0.1c1.4,0.1,3.3,0,5.8,0c-2.8,0-5.6,0-8.4,0c0.5,0.1,7,0.1,9.2,0.1c1.1,0,6.6,0,10.1,0c-1,0.1,0.5,0.1,2.3,0.1
	c0.3,0,0.7,0,1.1,0c-0.4,0-0.7,0-1,0c0.9,0,1.9,0,2.6,0c2.3,0,3.7,0,2.8-0.1c0.2,0,11.2-0.1,9.9-0.1c-0.7,0-0.8,0-0.6,0
	c0.3,0,0.5,0,0.4,0c0.3,0,0.6,0-0.5,0l-1,0c-1.8,0-2.7,0-3,0c0.9,0,1.9,0,2.8,0c1.6,0,3.2,0,4.8,0c0-0.3,0-0.6,0-0.8
	c0.6-2,0.1-2.2,0.6-3.9l-0.2,0.1c0.1-1.6,0.2-3.1,0.4-4.7c0-0.1,0-0.3,0-0.4c0.3-3,0.6-5.9,0.5-8.5c0,0,0-0.1,0-0.1
	c0.2-4.1,0.3-8.1,0.4-12.3c-0.4-5.8-0.1-12.1-0.2-18.2c-0.1-2.6-0.2-5.2-0.3-7.9c0.1-1.8,0.1-3.7,0.1-5.5c0-2.4,0-4.8,0-7.2
	c-9.1,0-18,0-26.7,0c-7.3,0-14.4,0-21.2,0c-0.3,0.1,5.4,0,6.9,0.1c-4.6,0-9.2,0-13.9,0c-13.9,0-27.8-0.1-41.8-0.1
	c-3.4,0-7.5-0.1-9.1-0.1c-6,0-3.5,0-7.9,0l-0.6-0.1c-6.4,0.1-9.4-0.1-15.4-0.1c-0.3,0-2.5,0-4.7,0c-0.1-0.1-6.6,0-6.3-0.1l-0.1,0
	c-1.3,0-2.2,0-3.8,0c-2.5,0-25.5,0.3-28,0.3l-1.2,0c-3.4,0-4.9,0.1-2.9,0.1l-4.2,0l0.5,0l-4.2,0c-0.8,0-1.7-0.1-0.5-0.1
	c-2.4,0-5.1,0.1-7.5,0c4.3,0,9.2,0.1,14,0.1c-2.7,0-5.4,0-8.2,0c-3.8,0-8.4-0.1-12.3-0.1c-1.3,0-2.2,0.1-5.2,0.1
	c-1.4-0.1-3.3,0-5.8,0c2.8,0,5.6,0,8.4,0c-0.5-0.1-7-0.1-9.2-0.1c-1.1,0-6.6,0-10,0c1-0.1-0.5-0.1-2.3-0.1c-0.3,0-0.7,0-1.1,0
	c0.4,0,0.7,0,1,0c-0.9,0-1.9,0-2.6,0c-2.3,0-3.8,0-2.9,0.1c-0.2,0,0.2,0,0.8,0c-5.5,0.1-11.9,0.2-10.6,0.2c0.7,0,0.8,0,0.6,0
	c-0.3,0-0.5,0-0.4,0c-0.3,0-0.6,0,0.5,0l1,0c1.8,0,2.7,0,3,0c-0.9,0-1.9,0-2.8,0c-1.6,0-3.2,0-4.8,0c0,0.3,0,0.6,0,0.8
	c-0.6,2-0.1,2.2-0.6,3.9l0.2-0.1c-0.1,1.6-0.2,3.1-0.4,4.7c0,0.1,0,0.3,0,0.4C-464.5,14.4-464.8,17.3-464.7,20
	C-464.7,20-464.7,20-464.7,20"/>
<rect x="-454.3" y="89.4" class="st4" width="239.1" height="69.5"/>
<text transform="matrix(1 0 0 1 -454.2725 102.6796)"><tspan x="0" y="0" class="st3 st5 st6">Tarjosimme </tspan><tspan x="82.5" y="0" class="st1 st5 st6">koulutusta </tspan><tspan x="0" y="20.6" class="st3 st5 st6">37 humanitaarisessa </tspan><tspan x="0" y="41.3" class="st3 st5 st6">ohjelmassa 29 maassa</tspan></text>
<path class="st0" d="M-35.2,80c0,0.2,0,0.5,0,0.8c0-0.5,0.2,0.9,0.5,2.3c-0.1,0.6-0.1,1.9-0.2,1.8c0,0.1,0,0.1,0,0.2l-0.1,0.4
	c0-0.3-0.1-0.7-0.1-1.2c0,0.1,0,0.2,0.1,0.3c0.1-0.4,0.1-1.7,0-2.4c-0.1,0-0.1,0.3-0.2,0.2c0-0.2-0.1-0.5-0.1-0.9c0-0.1,0-0.2,0-0.3
	l0-0.2c0-0.2,0-0.5,0-0.7C-35.3,80.2-35.2,80.1-35.2,80 M-244,150.9c0,0.5,0-1-0.2-2.4c0.1-0.6-0.2-1.7,0-1.6c0-0.1,0-0.1,0-0.2
	l0.1-0.4c0,0.3,0.1,0.7,0.1,1.2c0-0.1,0-0.2-0.1-0.3c-0.1,0.4-0.1,1.7,0,2.4c0.1,0,0.1-0.3,0.2-0.2c0,0.2,0.1,0.5,0.1,0.9
	c0,0.1,0,0.2,0,0.3l0,0.2c0,0.2,0,0.5,0,0.7C-244,151.4-244,151.1-244,150.9 M-91,78.4c-12.2-0.1-24.5-0.1-36.8-0.1
	c-17.5,0.1-36.5,0-54.7,0.1c-7.8,0-15.8,0.1-23.6,0.1c-5.5,0-11,0-16.6,0c-7.3,0-14.6,0-21.7,0c0,2.8,0,5.6,0,8.2c0,2.3,0,4.4,0,6.6
	c0.3,0.1,0-1.7,0.2-2.1c0,1.4,0,2.8,0,4.3c-0.1,4.3-0.3,8.6-0.4,12.9c-0.1,1-0.2,2.3-0.3,2.8c-0.1,1.8,0.1,1.1,0.1,2.4l-0.3,0.2
	c0.2,2-0.3,2.9-0.2,4.8c0.1,0.1,0.1,0.8,0.1,1.4c-0.3,0,0,2-0.2,1.9l0,0c0,0.4,0,0.7,0,1.2c0.1,0.8,0.9,7.9,1,8.6l0,0.4
	c0,1.1,0.2,1.5,0.3,0.9l0,1.3l0-0.2l0,1.3c0,0.2-0.2,0.5-0.3,0.1c0.1,0.7,0.2,1.6,0.1,2.3c0.1-1.3,0.3-2.8,0.4-4.3
	c0,0.8,0.1,1.7,0.1,2.5c-0.1,1.2-0.2,2.6-0.3,3.8c0,0.4,0.3,0.7,0.2,1.6c-0.2,0.4,0,1-0.1,1.8c-0.1-0.9-0.1-1.7-0.1-2.6
	c-0.3,0.2-0.2,2.1-0.2,2.8c0.1,0.3,0,2,0.1,3.1c-0.2-0.3-0.2,0.2-0.2,0.7c0,0.1,0,0.2,0.1,0.3c0-0.1,0-0.2-0.1-0.3
	c0,0.3,0.1,0.6,0.1,0.8c0,0.7,0.1,1.2,0.2,0.9c0.1,0.1,0.4,3.5,0.4,3c0-0.2,0.1-0.2,0.1-0.2c0,0.1,0,0.2,0.1,0.1
	c0.1,0.1,0.1,0.2,0.1-0.1l-0.1-0.3c0-0.6,0.1-0.8,0.1-0.9c0,0.3,0,0.6,0,0.9c0,0.5,0,1,0,1.5c0.8,0,1.7,0,2.5,0
	c6,0.2,6.5,0,11.8,0.2l-0.2,0c4.7,0,9.4,0.1,14.1,0.1c0.4,0,0.8,0,1.2,0c9,0.1,17.7,0.2,25.6,0.2c0.1,0,0.2,0,0.3,0
	c12.2,0.1,24.5,0.1,36.8,0.1c17.5-0.1,36.5,0,54.7-0.1c7.8,0,15.8-0.1,23.6-0.1c5.5,0,11,0,16.6,0c7.3,0,14.6,0,21.7,0
	c0-2.8,0-5.6,0-8.2c0-2.2,0-4.4,0-6.6c-0.3-0.1,0,1.7-0.2,2.1c0-1.4,0-2.8,0-4.3c0.1-4.3,0.3-8.6,0.4-12.9c0.1-1,0.2-2.3,0.3-2.8
	c0.1-1.8-0.1-1.1-0.1-2.4l0.3-0.2c-0.2-2,0.3-2.9,0.2-4.8c-0.1-0.1-0.1-0.8-0.1-1.4c0.3,0,0-2,0.2-1.9l0,0c0-0.4,0-0.7,0-1.2
	c-0.1-0.8-0.9-7.9-1-8.6l0-0.4c0-1.1-0.2-1.5-0.3-0.9l0-1.3l0,0.2l0-1.3c0-0.2,0.2-0.5,0.3-0.1c-0.1-0.7-0.2-1.6-0.1-2.3
	c-0.1,1.3-0.3,2.8-0.4,4.3c0-0.8-0.1-1.7-0.1-2.5c0.1-1.2,0.2-2.6,0.3-3.8c0-0.4-0.3-0.7-0.2-1.6c0.2-0.4,0-1,0.1-1.8
	c0.1,0.9,0.1,1.7,0.1,2.6c0.3-0.2,0.2-2.1,0.2-2.8c-0.1-0.3,0-2-0.1-3.1c0.2,0.3,0.2-0.2,0.2-0.7c0-0.1,0-0.2,0-0.3
	c0,0.1,0,0.2,0,0.3c0-0.3,0-0.6,0.1-0.8c0-0.7-0.1-1.2-0.2-0.9c-0.1-0.1-0.1,0.1-0.1,0.2c-0.2-1.7-0.5-3.7-0.5-3.3
	c0,0.2-0.1,0.2-0.1,0.2c0-0.1,0-0.2-0.1-0.1c-0.1-0.1-0.1-0.2-0.1,0.1l0.1,0.3c0,0.6-0.1,0.8-0.1,0.9c0-0.3,0-0.6,0-0.9
	c0-0.5,0-1,0-1.5c-0.8,0-1.7,0-2.5,0c-6-0.2-6.5,0-11.8-0.2l0.2,0c-4.7,0-9.4-0.1-14.1-0.1c-0.4,0-0.8,0-1.2,0
	c-9-0.1-17.7-0.2-25.6-0.2C-90.8,78.4-90.9,78.4-91,78.4"/>
<rect x="-234.6" y="89.4" class="st4" width="239.1" height="69.5"/>
<text transform="matrix(1 0 0 1 -234.6025 102.6796)"><tspan x="0" y="0" class="st3 st5 st6">Paransimme </tspan><tspan x="84.3" y="0" class="st1 st5 st6">lastensuojelua  </tspan><tspan x="0" y="20.6" class="st3 st5 st6">41 humanitaarisessa  </tspan><tspan x="0" y="41.3" class="st3 st5 st6">ohjelmassa 29 maassa</tspan></text>
<rect x="-201.7" y="8.6" class="st4" width="154" height="50.4"/>
<text transform="matrix(1 0 0 1 -201.6748 37.0297)"><tspan x="0" y="0" class="st3 st5" style="font-size:17.4592px;">Autoimme </tspan><tspan x="64.3" y="0" class="st1 st5" style="font-size:39.2833px;">89</tspan><tspan x="95" y="0" class="st3 st5" style="font-size:17.4592px;"> </tspan><tspan x="0" y="19.6" class="st3 st5" style="font-size:17.4592px;">kriisissä </tspan></text>
<path class="st2" d="M206.9,70.2c0,0.2,0,0.5,0,0.8c0-0.6,0.2,1,0.5,2.5c-0.1,0.7-0.1,2-0.2,1.9c0,0.1,0,0.2,0,0.2l-0.1,0.5
	c0-0.3-0.1-0.8-0.1-1.3c0,0.1,0,0.2,0.1,0.3c0.1-0.4,0.1-1.8,0-2.5c-0.1,0-0.1,0.3-0.2,0.3c0-0.2-0.1-0.6-0.1-0.9c0-0.1,0-0.2,0-0.3
	l0-0.2c0-0.2,0-0.5,0-0.7C206.9,70.5,206.9,70.4,206.9,70.2 M2.9,146.1c0,0.6,0-1.1-0.2-2.6c0.1-0.7-0.2-1.9,0-1.7
	c0-0.1,0-0.2,0-0.2l0.1-0.5c0,0.3,0.1,0.8,0.1,1.3c0-0.1,0-0.2-0.1-0.3c-0.1,0.4-0.1,1.8,0,2.5c0.1,0,0.1-0.3,0.2-0.3
	c0,0.2,0.1,0.6,0.1,0.9c0,0.1,0,0.2,0,0.3l0,0.2c0,0.2,0,0.5,0,0.7C2.9,146.6,2.9,146.4,2.9,146.1 M152.4,68.6
	c-12-0.1-23.9-0.1-36-0.1c-17.1,0.1-35.7,0-53.5,0.1c-7.6,0-15.4,0.1-23.1,0.1c-5.3,0-10.8,0-16.2,0c-7.1,0-14.2,0-21.2,0
	c0,3,0,5.9,0,8.8c0,2.4,0,4.8,0,7c0.3,0.1,0-1.8,0.2-2.3c0,1.5,0,3,0,4.6c-0.1,4.6-0.3,9.2-0.4,13.8c-0.1,1.1-0.2,2.5-0.3,3
	c-0.1,2,0.1,1.2,0.1,2.6l-0.3,0.2c0.2,2.1-0.3,3.1-0.2,5.1c0.1,0.1,0.1,0.8,0.1,1.5c-0.3,0,0,2.2-0.2,2.1l0,0c0,0.4,0,0.7,0,1.3
	c0.1,0.8,0.8,8.4,1,9.2l0,0.4c0,1.1,0.2,1.6,0.3,1l0,1.4l0-0.2l0,1.4c0,0.3-0.2,0.5-0.3,0.2c0.1,0.8,0.1,1.7,0.1,2.5
	c0.1-1.4,0.2-3,0.4-4.6c0,0.9,0.1,1.8,0.1,2.7c-0.1,1.2-0.2,2.8-0.3,4.1c0,0.4,0.3,0.7,0.2,1.7c-0.2,0.5,0,1.1-0.1,1.9
	c-0.1-0.9-0.1-1.8-0.1-2.8c-0.2,0.2-0.2,2.3-0.2,3c0.1,0.3,0,2.2,0.1,3.3c-0.2-0.3-0.2,0.2-0.2,0.7c0,0.1,0,0.2,0,0.4
	c0-0.1,0-0.2,0-0.3c0,0.3,0.1,0.6,0.1,0.8c0,0.8,0.1,1.2,0.2,0.9c0.1,0.1,0.4,3.7,0.4,3.3c0-0.2,0.1-0.3,0.1-0.2
	c0,0.1,0,0.2,0.1,0.1c0.1,0.1,0.1,0.2,0.1-0.2l-0.1-0.3c0-0.6,0.1-0.9,0.1-1c0,0.3,0,0.6,0,0.9c0,0.5,0,1.1,0,1.6c0.8,0,1.6,0,2.4,0
	c5.8,0.2,6.3,0,11.6,0.2l-0.2-0.1c4.6,0,9.2,0.1,13.8,0.1c0.4,0,0.8,0,1.2,0c8.8,0.1,17.3,0.2,25,0.2c0.1,0,0.2,0,0.3,0
	c12,0.1,23.9,0.1,36,0.1c17.1-0.1,35.7,0,53.5-0.1c7.6,0,15.4-0.1,23.1-0.1c5.3,0,10.8,0,16.2,0c7.1,0,14.2,0,21.2,0
	c0-3,0-5.9,0-8.8c0-2.4,0-4.8,0-7c-0.3-0.1,0,1.8-0.2,2.3c0-1.5,0-3,0-4.6c0.1-4.6,0.3-9.2,0.4-13.8c0.1-1.1,0.2-2.5,0.3-3
	c0.1-2-0.1-1.2-0.1-2.6l0.3-0.2c-0.2-2.1,0.3-3.1,0.2-5.1c-0.1-0.1-0.1-0.8-0.1-1.5c0.3,0,0-2.2,0.2-2.1l0,0c0-0.4,0-0.7,0-1.3
	c-0.1-0.8-0.8-8.4-1-9.2l0-0.4c0-1.1-0.2-1.6-0.3-1l0-1.4l0,0.2l0-1.4c0-0.3,0.2-0.5,0.3-0.2c-0.1-0.8-0.1-1.7-0.1-2.5
	c-0.1,1.4-0.2,3-0.4,4.6c0-0.9-0.1-1.8-0.1-2.7c0.1-1.2,0.2-2.8,0.3-4.1c0-0.4-0.3-0.7-0.2-1.7c0.2-0.5,0-1.1,0.1-1.9
	c0.1,0.9,0.1,1.8,0.1,2.8c0.3-0.2,0.2-2.3,0.2-3c-0.1-0.3,0-2.2-0.1-3.3c0.2,0.3,0.2-0.2,0.2-0.7c0-0.1,0-0.2,0-0.4
	c0,0.1,0,0.2,0,0.3c0-0.3,0-0.6,0.1-0.8c0-0.8-0.1-1.3-0.2-1c-0.1-0.1-0.1,0.1-0.1,0.3c-0.2-1.8-0.5-3.9-0.5-3.5
	c0,0.2-0.1,0.3-0.1,0.2c0-0.1,0-0.2-0.1-0.1c-0.1-0.1-0.1-0.2-0.1,0.2l0.1,0.3c0,0.6-0.1,0.9-0.1,1c0-0.3,0-0.6,0-0.9
	c0-0.5,0-1.1,0-1.6c-0.8,0-1.6,0-2.4,0c-5.8-0.2-6.3,0-11.6-0.2l0.2,0.1c-4.6,0-9.2-0.1-13.8-0.1c-0.4,0-0.8,0-1.2,0
	c-8.8-0.1-17.3-0.2-25-0.2C152.6,68.5,152.5,68.6,152.4,68.6"/>
<rect x="16.5" y="77.4" class="st4" width="174.9" height="57.2"/>
<text transform="matrix(1 0 0 1 16.5381 109.6894)"><tspan x="0" y="0" class="st3 st5 st7">Autoimme </tspan><tspan x="73" y="0" class="st1 st5 st8">89</tspan><tspan x="107.9" y="0" class="st3 st5 st7"> </tspan><tspan x="0" y="22.3" class="st3 st5 st7">kriisissä </tspan></text>
<rect x="-454.5" y="16" class="st4" width="226" height="48.7"/>
<text transform="matrix(1 0 0 1 -454.4863 35.5492)"><tspan x="0" y="0" class="st2 st5" style="font-size:27.0203px;">Tuimme </tspan><tspan x="76.7" y="0" class="st3 st5" style="font-size:27.0203px;">2,2 miljoonaa</tspan><tspan x="210.1" y="0" class="st2 st5" style="font-size:16.8877px;"> </tspan><tspan x="0" y="20.3" class="st2 st5" style="font-size:16.8877px;">ihmistä kriiseissä ja katastrofeissa </tspan></text>
<path class="st1" d="M5.7,1.3c0.4,0,1.4,0,2.1,0c-1.5,0,2.5-0.1,6.4-0.1c1.7,0,5.2,0,4.8,0.1c0.2,0,0.4,0,0.5,0l1.2,0
	c-0.7,0-2.1,0-3.4,0c0.3,0,0.6,0,0.9,0c-1.1,0-4.6,0-6.5,0c0,0,0.7,0,0.6,0c-0.6,0-1.5,0-2.4,0c-0.3,0-0.6,0-0.8,0l-0.5,0
	c-0.6,0-1.3,0-1.9,0C6.4,1.3,6,1.3,5.7,1.3 M202,60.5c1.5,0-2.8,0-6.8,0.1c-1.7,0-4.8,0-4.5,0c-0.2,0-0.4,0-0.5,0l-1.2,0
	c0.7,0,2.1,0,3.4,0c-0.3,0-0.6,0-0.9,0c1.1,0,4.6,0,6.5,0c0,0-0.7,0-0.6,0c0.6,0,1.5,0,2.4,0c0.3,0,0.6,0,0.8,0l0.5,0
	c0.6,0,1.3,0,1.9,0C203.4,60.5,202.7,60.5,202,60.5 M1.4,17.1C1.2,20.6,1.1,24,1,27.6c0.3,5,0.1,10.4,0.2,15.5
	c0.1,2.2,0.2,4.5,0.2,6.7c-0.1,1.5-0.1,3.1-0.1,4.7c0,2.1,0,4.1,0,6.2c7.7,0,15.4,0,22.8,0c6.2,0,12.3,0,18.1,0
	c0.2-0.1-4.6,0-5.9-0.1c3.9,0,7.9,0,11.9,0c11.9,0,23.8,0.1,35.7,0.1c2.9,0,6.4,0.1,7.7,0.1c5.1,0,3,0,6.8,0l0.5,0.1
	c5.5-0.1,8,0.1,13.2,0.1c0.3,0,2.2,0,4,0c0.1,0.1,5.6,0,5.4,0.1l0.1,0c1.1,0,1.9,0,3.2,0c2.1,0,21.8-0.2,23.9-0.3l1,0
	c2.9,0,4.2-0.1,2.5-0.1l3.6,0l-0.4,0l3.6,0c0.7,0,1.4,0,0.4,0.1c2,0,4.3,0,6.4,0c-3.6,0-7.9-0.1-12-0.1c2.3,0,4.6,0,7,0
	c3.2,0,7.2,0.1,10.5,0.1c1.1,0,1.9-0.1,4.4-0.1c1.2,0.1,2.8,0,4.9,0c-2.4,0-4.8,0-7.2,0c0.4,0.1,5.9,0,7.9,0.1c0.9,0,5.6,0,8.6,0
	c-0.8,0,0.4,0.1,1.9,0.1c0.3,0,0.6,0,0.9,0c-0.3,0-0.6,0-0.9,0c0.8,0,1.6,0,2.2,0c2,0,3.2,0,2.4,0c0.1,0,9.6-0.1,8.4-0.1
	c-0.6,0-0.7,0-0.5,0c0.3,0,0.4,0,0.3,0c0.3,0,0.5,0-0.4,0l-0.8,0c-1.5,0-2.3,0-2.6,0c0.8,0,1.6,0,2.4,0c1.4,0,2.7,0,4.1,0
	c0-0.2,0-0.5,0-0.7c0.5-1.7,0-1.8,0.5-3.4l-0.1,0c0.1-1.3,0.2-2.7,0.3-4c0-0.1,0-0.2,0-0.3c0.3-2.6,0.5-5,0.4-7.3c0,0,0-0.1,0-0.1
	c0.2-3.5,0.3-7,0.4-10.5c-0.3-5-0.1-10.4-0.2-15.5c-0.1-2.2-0.2-4.5-0.2-6.7c0.1-1.5,0.1-3.1,0.1-4.7c0-2.1,0-4.1,0-6.2
	c-7.7,0-15.4,0-22.8,0c-6.2,0-12.3,0-18.1,0c-0.2,0.1,4.6,0,5.9,0.1c-3.9,0-7.9,0-11.9,0c-11.9,0-23.8-0.1-35.7-0.1
	C123,1,119.5,1,118.2,1c-5.1,0-3,0-6.8,0l-0.5-0.1c-5.5,0.1-8-0.1-13.2-0.1c-0.3,0-2.2,0-4,0c-0.1-0.1-5.6,0-5.4-0.1l-0.1,0
	c-1.1,0-1.9,0-3.2,0c-2.1,0-21.8,0.2-23.9,0.3l-1,0c-2.9,0-4.2,0.1-2.5,0.1l-3.6,0l0.4,0l-3.6,0c-0.7,0-1.4,0-0.4-0.1
	c-2,0-4.3,0-6.4,0c3.6,0,7.9,0.1,12,0.1c-2.3,0-4.6,0-7,0c-3.2,0-7.2-0.1-10.5-0.1c-1.1,0-1.9,0.1-4.4,0.1c-1.2-0.1-2.8,0-4.9,0
	c2.4,0,4.8,0,7.2,0c-0.4-0.1-5.9,0-7.9-0.1c-0.9,0-5.6,0-8.6,0c0.8,0-0.4-0.1-1.9-0.1c-0.3,0-0.6,0-0.9,0c0.3,0,0.6,0,0.9,0
	c-0.8,0-1.6,0-2.2,0c-2,0-3.3,0-2.5,0c-0.1,0,0.2,0,0.7,0C9.3,1.2,3.9,1.3,5,1.3c0.6,0,0.7,0,0.5,0c-0.3,0-0.4,0-0.3,0
	c-0.3,0-0.5,0,0.4,0l0.8,0c1.5,0,2.3,0,2.6,0c-0.8,0-1.6,0-2.4,0c-1.4,0-2.7,0-4.1,0c0,0.2,0,0.5,0,0.7C2,3.8,2.4,3.9,2,5.4l0.1,0
	C2,6.7,1.9,8.1,1.8,9.4c0,0.1,0,0.2,0,0.3C1.5,12.3,1.3,14.8,1.4,17.1C1.4,17,1.4,17.1,1.4,17.1"/>
<rect x="10.1" y="13.6" class="st4" width="192.9" height="41.5"/>
<text transform="matrix(1 0 0 1 10.124 30.3324)"><tspan x="0" y="0" class="st2 st5 st9">Tuimme </tspan><tspan x="65.5" y="0" class="st3 st5 st9">2,2 miljoonaa</tspan><tspan x="179.4" y="0" class="st2 st5 st10"> </tspan><tspan x="0" y="17.3" class="st2 st5 st10">ihmistä kriiseissä ja katastrofeissa </tspan></text>
<g>
	<path class="st11" d="M-1428.2,321.8c0.2,0,0.5,0,0.8-0.1c-1.2,0-2.4,0.1-3.1,0.1l1.1,0.1c0.1,0,0.3,0,0.5,0c-0.2,0.1,0.6,0,1.6,0
		C-1427.7,321.8-1428,321.8-1428.2,321.8z"/>
	<path class="st11" d="M-1583.7,79.7c0.3-0.2-2.9-0.2-4.4-0.3c-3.6,0.3-7.2,0.5-5.8,0.5c-0.6,0-1.5,0-1.9,0c0.3,0,0.7,0.1,1.1,0.1
		c0.5,0,1.1,0,1.7-0.1l0.5,0c0.2,0,0.5,0,0.7,0c0.8,0,1.6-0.1,2.1-0.1c0-0.1-0.6-0.1-0.6-0.2c1.7,0,4.9-0.1,5.9,0.1
		c-0.2,0-0.5,0-0.8,0.1c1.2,0,2.4-0.1,3.1-0.1l-1.1-0.1C-1583.4,79.6-1583.5,79.6-1583.7,79.7z"/>
	<path class="st11" d="M-1420.8,321.5c-0.8,0-1.6,0.1-2.1,0.1c0,0,0,0,0.1,0c2.8-0.1,5.2-0.1,4.1-0.1c0.6,0,1.2-0.1,0.8-0.1
		c-0.5,0-1.1,0-1.7,0.1l-0.5,0C-1420.3,321.5-1420.5,321.5-1420.8,321.5z"/>
	<path class="st11" d="M-1604.5,72.4v257.3h197.3V72.4H-1604.5z M-1412.9,257.3c0,9.2-0.2,19.2-0.4,29.6c0,0.5,0,0.9,0,1.4
		c-0.1,5.4-0.2,10.9-0.3,16.3l0.1-0.2c-0.4,6.2,0,6.8-0.4,13.7c0,1,0,1.9,0,2.9c-1.2,0-2.5,0-3.7,0c-0.7,0-1.4,0-2.2,0
		c0.2,0.1,0.9,0.2,2.3,0.2l0.7-0.1c0.8,0,0.6,0.1,0.4,0.2c0.1,0-0.1,0.1-0.3,0.1c-0.1,0-0.1,0.1,0.5,0.1c1,0-7.5,0.4-7.6,0.5
		c0.7,0.1-0.3,0.2-2.1,0.2c-0.5-0.1-1.3,0.1-2,0.1c0.3,0,0.5,0,0.8-0.1c-0.3,0-0.6,0-0.8,0.1c-1.3,0-2.5-0.1-1.7-0.2
		c-2.7,0.1-6.9,0-7.7,0.1c-1.7-0.1-6.7,0-7.1-0.3c2.2,0,4.3,0.1,6.5-0.1c-1.9-0.2-3.4,0.1-4.5-0.2c-2.3-0.2-3,0.2-4,0.2
		c-3-0.1-6.6-0.2-9.5-0.3c-2.1,0-4.2,0.1-6.3,0.1c3.7,0.2,7.5,0.3,10.8,0.5c-1.8-0.1-3.9,0-5.8,0.1c0.9-0.1,0.2-0.3-0.4-0.3l-3.3,0
		l0.4,0l-3.3,0c1.5,0.1,0.4,0.3-2.2,0.3l-0.9-0.1c-1.9,0.1-19.7,1-21.6,1.1c-1.2-0.1-1.9,0-2.9,0l0,0c0.2-0.3-4.8,0.1-4.9-0.3
		c-1.7,0-3.3,0-3.6,0.1c-4.7,0.1-6.9-0.5-11.9-0.2l-0.5-0.3c-3.4,0-1.5,0.2-6.1,0.1c-1.2-0.1-4.4-0.3-7-0.4
		c-10.8,0-21.5-0.3-32.2-0.4c-3.6,0-7.2,0-10.7,0c1.2,0.2,5.6,0,5.3,0.3c-5.3,0-10.7,0-16.4,0c-6.7,0-13.6,0-20.6,0
		c0-8.3,0-16.7,0-25.1c0-6.5,0-12.9,0.1-19.2c-0.1-9.1-0.1-18.4-0.2-27.3c-0.1-21.1,0.2-43.1-0.1-63.3c0.1-14.3,0.2-28.5,0.3-42.6
		c0-0.1,0-0.2,0-0.3c0-9.2,0.2-19.2,0.4-29.6c0-0.5,0-0.9,0-1.4c0.1-5.4,0.2-10.9,0.3-16.3l-0.1,0.2c0.4-6.2,0-6.8,0.4-13.7
		c0-1,0-1.9,0-2.9c1.2,0,2.5,0,3.7,0c0.7,0,1.4,0,2.2,0c-0.2-0.1-0.9-0.2-2.3-0.2l-0.7,0.1c-0.8,0-0.6-0.1-0.4-0.2
		c-0.1,0,0.1-0.1,0.3-0.1c0.1,0,0.1-0.1-0.5-0.1c-1,0,3.9-0.3,8.1-0.6c-0.5,0-0.7-0.1-0.6-0.2c-0.7-0.1,0.4-0.2,2.2-0.2
		c0.5,0.1,1.3,0.1,2,0.1c-0.3,0-0.5,0-0.8,0.1c0.3,0,0.6,0,0.8-0.1c1.3,0,2.5,0.1,1.7,0.2c2.7-0.1,6.9,0,7.7-0.1
		c1.7,0.1,6.7,0,7.1,0.3c-2.2,0-4.3-0.1-6.5,0.1c1.9,0.2,3.3-0.1,4.5,0.2c2.3,0.2,3-0.2,4-0.2c3,0.1,6.6,0.2,9.5,0.3
		c2.1,0,4.2-0.1,6.3-0.1c-3.7-0.2-7.5-0.4-10.8-0.5c1.8,0.1,3.9,0,5.8-0.1c-0.9,0.1-0.2,0.3,0.4,0.3l3.3,0l-0.4,0l3.3,0
		c-1.5-0.1-0.4-0.3,2.2-0.3l0.9,0.1c1.9-0.1,19.7-1,21.6-1.1c1.2,0.1,1.9,0,2.9,0l0,0c-0.2,0.3,4.8-0.1,4.9,0.3c1.7,0,3.4,0,3.6-0.1
		c4.7-0.1,6.9,0.5,11.9,0.2l0.5,0.3c3.4,0,1.5-0.2,6.1-0.1c1.2,0.1,4.4,0.3,7,0.4c10.8,0,21.5,0.3,32.2,0.4c3.6,0,7.2,0,10.7,0
		c-1.2-0.2-5.6,0-5.3-0.3c5.3,0,10.7,0,16.4,0c6.7,0,13.6,0,20.6,0c0,8.3,0,16.7,0,25.1c0,6.5,0,12.9-0.1,19.2
		c0.1,9.1,0.1,18.4,0.2,27.3c0.1,21.1-0.2,43.1,0.1,63.3c-0.1,14.3-0.2,28.5-0.3,42.6C-1412.9,257.1-1412.9,257.2-1412.9,257.3z"/>
</g>
<path class="st0" d="M-691.8,0.8c0.4,0,1.4,0,2.1,0c-1.5,0,2.5-0.1,6.5-0.3c1.7,0,5.2,0,4.9,0.1c0.2,0,0.4,0,0.5,0l1.2,0
	c-0.7,0-2.1,0-3.4,0.1c0.3,0,0.6,0,0.9,0c-1.1-0.1-4.6,0-6.5,0c0,0.1,0.7,0.1,0.7,0.1c-0.6,0-1.5,0-2.4,0.1c-0.3,0-0.6,0-0.8,0
	l-0.5,0c-0.6,0-1.3,0-1.9,0C-691.1,0.8-691.5,0.8-691.8,0.8 M-494.6,115.1c1.5,0-2.8,0-6.8,0.1c-1.7,0-4.8,0.1-4.5,0
	c-0.2,0-0.4,0-0.5,0l-1.2,0c0.7,0,2.1,0,3.4-0.1c-0.3,0-0.6,0-0.9,0c1.1,0.1,4.6,0,6.5,0c0-0.1-0.7-0.1-0.7-0.1c0.6,0,1.5,0,2.4-0.1
	c0.3,0,0.6,0,0.8,0l0.5,0c0.6,0,1.3,0,1.9,0C-493.2,115.1-493.9,115.1-494.6,115.1 M-696.1,31.4c-0.2,6.7-0.3,13.4-0.4,20.2
	c0.3,9.6,0.1,20,0.2,30c0.1,4.2,0.2,8.6,0.2,12.9c-0.1,3-0.1,6-0.1,9.1c0,4,0,8,0,11.9c7.8,0,15.4,0,22.9,0c6.3,0,12.4,0,18.2,0
	c0.2-0.1-4.6,0-6-0.1c3.9,0,7.9,0,11.9,0c11.9,0.1,23.9,0.2,35.9,0.2c2.9,0,6.5,0.1,7.8,0.2c5.1,0.1,3-0.1,6.8-0.1l0.5,0.1
	c5.5-0.1,8,0.2,13.2,0.1c0.3-0.1,2.2-0.1,4-0.1c0.1,0.2,5.7,0,5.4,0.1l0.1,0c1.1,0,1.9,0,3.3,0c2.1-0.1,21.9-0.5,24-0.5l1,0
	c3,0,4.2-0.1,2.5-0.1l3.6,0l-0.4,0l3.6,0c0.7,0,1.4,0.1,0.4,0.2c2.1-0.1,4.4-0.1,6.4-0.1c-3.7-0.1-7.9-0.1-12-0.2c2.3,0,4.7,0,7,0
	c3.2,0.1,7.2,0.1,10.6,0.2c1.1,0,1.9-0.2,4.4-0.1c1.2,0.1,2.9,0,5,0.1c-2.4,0.1-4.8,0-7.2,0c0.4,0.1,6,0.1,7.9,0.1
	c0.9,0,5.6,0,8.6,0c-0.8,0.1,0.4,0.1,1.9,0.1c0.3,0,0.6,0,0.9,0c-0.3,0-0.6,0-0.9,0c0.8,0,1.6-0.1,2.2,0c2,0,3.2,0,2.4-0.1
	c0.1,0,9.6-0.2,8.5-0.2c-0.6,0-0.7,0-0.5-0.1c0.3,0,0.4,0,0.3,0c0.3,0,0.5-0.1-0.4-0.1l-0.8,0c-1.5,0-2.3,0-2.6-0.1
	c0.8,0,1.6,0,2.4,0c1.4,0,2.7,0,4.1,0c0-0.5,0-0.9,0-1.4c0.5-3.3,0-3.5,0.5-6.5l-0.1,0.1c0.1-2.6,0.2-5.2,0.3-7.7c0-0.2,0-0.4,0-0.7
	c0.3-4.9,0.5-9.7,0.4-14c0-0.1,0-0.1,0-0.2c0.2-6.7,0.3-13.4,0.4-20.2c-0.3-9.6-0.1-20-0.2-30c-0.1-4.2-0.2-8.6-0.2-12.9
	c0.1-3,0.1-6,0.1-9.1c0-4,0-8,0-11.9c-7.8,0-15.4,0-22.9,0c-6.3,0-12.3,0-18.2,0c-0.2,0.1,4.6,0,6,0.1c-3.9,0-7.9,0-11.9,0
	C-547.1,0.6-559,0.5-571,0.4c-2.9,0-6.5-0.1-7.8-0.2c-5.1-0.1-3,0.1-6.8,0.1l-0.5-0.1c-5.5,0.1-8-0.2-13.2-0.1
	c-0.3,0.1-2.2,0.1-4,0.1c-0.1-0.2-5.7,0-5.4-0.1l-0.1,0c-1.1,0-1.9,0-3.3,0c-2.1,0.1-21.9,0.5-24,0.5l-1,0c-3,0-4.2,0.1-2.5,0.1
	l-3.6,0l0.4,0l-3.6,0c-0.7,0-1.4-0.1-0.4-0.2c-2.1,0.1-4.4,0.1-6.4,0.1c3.7,0.1,7.9,0.1,12,0.2c-2.3,0-4.7,0-7,0
	c-3.2-0.1-7.2-0.1-10.6-0.2c-1.1,0-1.9,0.2-4.4,0.1c-1.2-0.1-2.9,0-5-0.1c2.4-0.1,4.8,0,7.2,0c-0.4-0.1-6-0.1-7.9-0.1
	c-0.9,0-5.6,0-8.6,0c0.8-0.1-0.4-0.1-1.9-0.1c-0.3,0-0.6,0-0.9,0c0.3,0,0.6,0,0.9,0c-0.8,0-1.6,0-2.2,0c-2,0-3.3,0-2.5,0.1
	c-0.1,0,0.2,0.1,0.7,0.1c-4.8,0.1-10.2,0.3-9.1,0.3c0.6,0,0.7,0,0.5,0.1c-0.3,0-0.4,0-0.3,0c-0.3,0-0.5,0.1,0.4,0.1l0.8,0
	c1.5,0,2.3,0,2.6,0.1c-0.8,0-1.6,0-2.4,0c-1.4,0-2.7,0-4.1,0c0,0.5,0,0.9,0,1.4c-0.5,3.3,0,3.5-0.5,6.5l0.1-0.1
	c-0.1,2.6-0.2,5.2-0.3,7.7c0,0.2,0,0.4,0,0.7c-0.3,4.9-0.5,9.7-0.4,14C-696.1,31.2-696.1,31.3-696.1,31.4"/>
<rect x="-686.3" y="38" class="st4" width="227.5" height="63.1"/>
<text transform="matrix(1 0 0 1 -614.1709 64.4501)" class="st3 st5" style="font-size:12.429px;">tyttöä </text>
<text transform="matrix(1 0 0 1 -614.6104 50.9364)" class="st1 st5" style="font-size:22.7865px;">42 600</text>
<text transform="matrix(1 0 0 1 -684.9961 64.4501)" class="st3 st5" style="font-size:12.429px;">lasta</text>
<text transform="matrix(1 0 0 1 -685.5088 50.9364)" class="st1 st5" style="font-size:22.7865px;">78 600</text>
<text transform="matrix(1 0 0 1 -684.6543 90.2611)" class="st1 st5" style="font-size:22.7865px;">91 400</text>
<text transform="matrix(1 0 0 1 -684.5996 103.2211)" class="st3 st5" style="font-size:12.429px;">aikuista</text>
<g>
	<text transform="matrix(1 0 0 1 -613.665 90.2611)" class="st1 st5" style="font-size:22.7865px;">53 500</text>
	<text transform="matrix(1 0 0 1 -614.6104 103.7743)"><tspan x="0" y="0" class="st1 st5" style="font-size:10.3575px;"> </tspan><tspan x="2.1" y="0" class="st3 st5" style="font-size:12.429px;">naista</tspan></text>
</g>
<g>
	<text transform="matrix(1 0 0 1 -548.041 90.2611)" class="st1 st5" style="font-size:22.7865px;">37 900 </text>
	<text transform="matrix(1 0 0 1 -547.1992 103.2211)" class="st3 st5" style="font-size:12.429px;">miestä</text>
</g>
<g>
	<text transform="matrix(1 0 0 1 -547.0674 63.8959)" class="st3 st5" style="font-size:12.429px;">poikaa</text>
	<text transform="matrix(1 0 0 1 -548.041 50.9364)" class="st1 st5" style="font-size:22.7865px;">36 000 </text>
</g>
<path class="st1" d="M-692.8,123.1c0.4,0,1.4,0,2.1,0c-1.5,0,2.5-0.2,6.5-0.3c1.7,0.1,5.2,0.1,4.9,0.2c0.2,0,0.4,0,0.5,0l1.2,0
	c-0.7,0-2.1,0.1-3.4,0.1c0.3,0,0.6,0,0.9,0c-1.1-0.1-4.6,0-6.6,0c0,0.1,0.7,0.1,0.7,0.1c-0.6,0-1.5,0.1-2.4,0.1c-0.3,0-0.6,0-0.8,0
	l-0.5,0c-0.6,0-1.3,0-1.9,0C-692,123.1-692.4,123.1-692.8,123.1 M-494.5,280.7c1.5,0-2.8,0-6.8,0.2c-1.7-0.1-4.9,0.1-4.6,0
	c-0.2,0-0.4,0-0.5,0l-1.2,0c0.7,0,2.1-0.1,3.4-0.1c-0.3,0-0.6,0-0.9,0c1.1,0.1,4.6,0,6.6,0c0-0.1-0.7-0.1-0.7-0.1
	c0.6,0,1.5-0.1,2.4-0.1c0.3,0,0.6,0,0.8,0l0.5,0c0.6,0,1.3,0,1.9,0C-493.1,280.7-493.8,280.7-494.5,280.7 M-697.1,165.2
	c-0.2,9.2-0.3,18.5-0.4,27.8c0.3,13.2,0.1,27.6,0.2,41.3c0.1,5.9,0.2,11.9,0.2,17.8c-0.1,4.1-0.1,8.3-0.1,12.5c0,5.5,0,11,0,16.4
	c7.8,0,15.5,0,23,0c6.3,0,12.4,0,18.3,0c0.2-0.2-4.7,0-6-0.2c3.9,0,7.9,0,12,0c12,0.1,24,0.3,36,0.3c2.9,0.1,6.5,0.2,7.8,0.2
	c5.2,0.1,3.1-0.1,6.8-0.1l0.5,0.2c5.5-0.2,8.1,0.2,13.3,0.1c0.3-0.1,2.2-0.1,4-0.1c0.1,0.2,5.7,0,5.4,0.2l0.1,0c1.1,0,1.9,0,3.3,0
	c2.1-0.1,22-0.7,24.1-0.7l1,0c3,0,4.2-0.2,2.5-0.2l3.7,0l-0.4,0l3.6,0c0.7,0,1.4,0.1,0.4,0.2c2.1-0.1,4.4-0.1,6.4-0.1
	c-3.7-0.1-7.9-0.2-12.1-0.3c2.3,0,4.7,0,7-0.1c3.3,0.1,7.3,0.2,10.6,0.2c1.1,0,1.9-0.2,4.4-0.1c1.2,0.2,2.9,0,5,0.1
	c-2.4,0.1-4.8,0-7.3,0c0.4,0.2,6,0.1,7.9,0.2c0.9-0.1,5.7,0,8.7-0.1c-0.9,0.1,0.4,0.1,1.9,0.2c0.3,0,0.6,0,0.9,0c-0.3,0-0.6,0-0.9,0
	c0.8,0,1.6-0.1,2.2-0.1c2,0,3.2-0.1,2.4-0.1c0.1,0,9.7-0.3,8.5-0.3c-0.6,0-0.7,0-0.5-0.1c0.3,0,0.4,0,0.3-0.1c0.3,0,0.5-0.1-0.4-0.1
	l-0.8,0.1c-1.5,0-2.3,0-2.6-0.1c0.8,0,1.6,0,2.4,0c1.4,0,2.8,0,4.1,0c0-0.6,0-1.2,0-1.9c0.5-4.5,0-4.9,0.5-8.9l-0.1,0.1
	c0.1-3.6,0.2-7.1,0.3-10.7c0-0.3,0-0.6,0-0.9c0.3-6.8,0.5-13.4,0.4-19.3c0-0.1,0-0.1,0-0.2c0.2-9.2,0.3-18.5,0.4-27.8
	c-0.3-13.2-0.1-27.6-0.2-41.3c-0.1-5.9-0.2-11.9-0.2-17.8c0.1-4.1,0.1-8.3,0.1-12.5c0-5.5,0-11,0-16.4c-7.8,0-15.5,0-23,0
	c-6.3,0-12.4,0-18.3,0c-0.2,0.2,4.7,0,6,0.2c-3.9,0-7.9,0-12,0c-12-0.1-24-0.3-36-0.3c-2.9-0.1-6.5-0.2-7.8-0.2
	c-5.2-0.1-3.1,0.1-6.8,0.1l-0.5-0.2c-5.5,0.2-8.1-0.2-13.3-0.1c-0.3,0.1-2.2,0.1-4,0.1c-0.1-0.2-5.7,0-5.4-0.2l-0.1,0
	c-1.1,0-1.9,0-3.3,0c-2.1,0.1-22,0.7-24.1,0.7l-1,0c-3,0-4.2,0.2-2.5,0.2l-3.7,0l0.4,0l-3.6,0c-0.7,0-1.4-0.1-0.4-0.2
	c-2.1,0.1-4.4,0.1-6.4,0.1c3.7,0.1,7.9,0.2,12.1,0.3c-2.3,0-4.7,0-7,0.1c-3.3-0.1-7.3-0.2-10.6-0.2c-1.1,0-1.9,0.2-4.4,0.1
	c-1.2-0.2-2.9,0-5-0.1c2.4-0.1,4.8,0,7.3,0c-0.4-0.2-6-0.1-7.9-0.2c-0.9,0.1-5.7,0-8.7,0.1c0.9-0.1-0.4-0.1-1.9-0.2
	c-0.3,0-0.6,0-0.9,0c0.3,0,0.6,0,0.9,0c-0.8,0-1.6,0-2.2-0.1c-2,0-3.3,0.1-2.5,0.1c-0.1,0,0.2,0.1,0.7,0.1
	c-4.8,0.2-10.3,0.4-9.1,0.4c0.6,0,0.7,0,0.5,0.1c-0.3,0-0.4,0-0.3,0.1c-0.3,0-0.5,0.1,0.4,0.1l0.8-0.1c1.5,0,2.3,0,2.6,0.1
	c-0.8,0-1.6,0-2.4,0c-1.4,0-2.8,0-4.1,0c0,0.6,0,1.2,0,1.9c-0.5,4.5,0,4.9-0.5,8.9l0.1-0.1c-0.1,3.6-0.2,7.1-0.3,10.7
	c0,0.3,0,0.6,0,0.9c-0.3,6.8-0.5,13.4-0.4,19.3C-697.1,165-697.1,165.1-697.1,165.2"/>
<rect x="-686.3" y="142.4" class="st4" width="194.1" height="191.6"/>
<text transform="matrix(1 0 0 1 -686.3008 185.0727)"><tspan x="0" y="0" class="st2 st5" style="font-size:17.695px;">Tuimme </tspan><tspan x="50.2" y="0" class="st3 st5" style="font-size:58.9833px;">44 500</tspan><tspan x="180.3" y="0" class="st5" style="fill:#FFFFFF;stroke:#000000;stroke-miterlimit:10; font-size:47.1867px;"> </tspan><tspan x="0" y="20.1" class="st2 st5" style="font-size:17.695px;">alle kuusivuotiaan lapsen </tspan><tspan x="0" y="40.1" class="st2 st5" style="font-size:17.695px;">varhaiskasvatusta kotona ja </tspan><tspan x="0" y="60.2" class="st2 st5" style="font-size:17.695px;">varhaiskasvatuskeskuksissa </tspan><tspan x="0" y="80.2" class="st2 st5" style="font-size:17.695px;">kuudessa maassa.  </tspan></text>
<path class="st1" d="M-489.3,289.6c0,0.2,0,0.5,0,0.7c0-0.5,0.2,0.9,0.5,2.3c-0.1,0.6-0.1,1.8-0.2,1.7c0,0.1,0,0.1,0,0.2l-0.1,0.4
	c0-0.3-0.1-0.7-0.1-1.2c0,0.1,0,0.2,0.1,0.3c0.1-0.4,0.1-1.6,0-2.3c-0.1,0-0.1,0.2-0.2,0.2c0-0.2-0.1-0.5-0.1-0.8c0-0.1,0-0.2,0-0.3
	l0-0.2c0-0.2,0-0.4,0-0.7C-489.3,289.8-489.3,289.7-489.3,289.6 M-695.3,358.9c0,0.5,0-1-0.2-2.4c0.1-0.6-0.2-1.7,0-1.6
	c0-0.1,0-0.1,0-0.2l0.1-0.4c0,0.3,0.1,0.7,0.1,1.2c0-0.1,0-0.2-0.1-0.3c-0.1,0.4-0.1,1.6,0,2.3c0.1,0,0.1-0.2,0.2-0.2
	c0,0.2,0.1,0.5,0.1,0.8c0,0.1,0,0.2,0,0.3l0,0.2c0,0.2,0,0.4,0,0.7C-695.2,359.4-695.3,359.1-695.3,358.9 M-544.3,288.1
	c-12.1-0.1-24.2-0.1-36.4-0.1c-17.3,0.1-36,0-54,0.1c-7.6,0-15.5,0.1-23.3,0.1c-5.4,0-10.9,0-16.4,0c-7.2,0-14.4,0-21.4,0
	c0,2.7,0,5.4,0,8.1c0,2.2,0,4.3,0,6.4c0.3,0.1,0-1.6,0.2-2.1c0,1.4,0,2.8,0,4.2c-0.1,4.2-0.3,8.4-0.4,12.6c-0.1,1-0.2,2.3-0.3,2.7
	c-0.1,1.8,0.1,1.1,0.1,2.4l-0.3,0.2c0.2,1.9-0.3,2.8-0.2,4.6c0.1,0.1,0.1,0.8,0.1,1.4c-0.3,0,0,2-0.2,1.9l0,0c0,0.4,0,0.7,0,1.1
	c0.1,0.7,0.9,7.7,1,8.4l0,0.3c0,1,0.2,1.5,0.3,0.9l0,1.3l0-0.1l0,1.3c0,0.2-0.2,0.5-0.3,0.1c0.1,0.7,0.1,1.5,0.1,2.3
	c0.1-1.3,0.2-2.8,0.4-4.2c0,0.8,0.1,1.6,0.1,2.5c-0.1,1.1-0.2,2.5-0.3,3.7c0,0.4,0.3,0.7,0.2,1.6c-0.2,0.4,0,1-0.1,1.7
	c-0.1-0.9-0.1-1.7-0.1-2.5c-0.3,0.1-0.2,2.1-0.2,2.8c0.1,0.3,0,2,0.1,3c-0.2-0.3-0.2,0.2-0.2,0.7c0,0.1,0,0.2,0,0.3
	c0-0.1,0-0.2,0-0.3c0,0.3,0.1,0.6,0.1,0.8c0,0.7,0.1,1.1,0.2,0.8c0.1,0.1,0.4,3.4,0.4,3c0-0.2,0.1-0.2,0.1-0.2c0,0.1,0,0.1,0.1,0.1
	c0.1,0.1,0.1,0.2,0.1-0.1l-0.1-0.3c0-0.5,0.1-0.8,0.1-0.9c0,0.3,0,0.6,0,0.8c0,0.5,0,1,0,1.4c0.8,0,1.6,0,2.4,0
	c5.9,0.2,6.4,0,11.7,0.2l-0.2,0c4.6,0,9.3,0.1,13.9,0.1c0.4,0,0.8,0,1.2,0c8.9,0.1,17.5,0.2,25.3,0.2c0.1,0,0.2,0,0.3,0
	c12.1,0.1,24.2,0.1,36.4,0.1c17.3-0.1,36,0,54-0.1c7.6,0,15.5-0.1,23.3-0.1c5.4,0,10.9,0,16.4,0c7.2,0,14.4,0,21.4,0
	c0-2.7,0-5.4,0-8.1c0-2.2,0-4.3,0-6.4c-0.3-0.1,0,1.6-0.2,2.1c0-1.4,0-2.8,0-4.2c0.1-4.2,0.3-8.4,0.4-12.6c0.1-1,0.2-2.3,0.3-2.7
	c0.1-1.8-0.1-1.1-0.1-2.4l0.3-0.2c-0.2-1.9,0.3-2.8,0.2-4.6c-0.1-0.1-0.1-0.8-0.1-1.4c0.3,0,0-2,0.2-1.9l0,0c0-0.4,0-0.7,0-1.1
	c-0.1-0.7-0.9-7.7-1-8.4l0-0.3c0-1-0.2-1.5-0.3-0.9l0-1.3l0,0.1l0-1.3c0-0.2,0.2-0.5,0.3-0.1c-0.1-0.7-0.1-1.5-0.1-2.3
	c-0.1,1.3-0.2,2.8-0.4,4.2c0-0.8-0.1-1.6-0.1-2.5c0.1-1.1,0.2-2.5,0.3-3.7c0-0.4-0.3-0.7-0.2-1.6c0.2-0.4,0-1,0.1-1.7
	c0.1,0.9,0.1,1.7,0.1,2.5c0.3-0.1,0.2-2.1,0.2-2.8c-0.1-0.3,0-2-0.1-3c0.2,0.3,0.2-0.2,0.2-0.7c0-0.1,0-0.2,0-0.3c0,0.1,0,0.2,0,0.3
	c0-0.3,0-0.6,0.1-0.8c0-0.7-0.1-1.2-0.2-0.9c-0.1-0.1-0.1,0.1-0.1,0.2c-0.2-1.7-0.5-3.6-0.5-3.2c0,0.2-0.1,0.2-0.1,0.2
	c0-0.1,0-0.1-0.1-0.1c-0.1-0.1-0.1-0.2-0.1,0.1l0.1,0.3c0,0.5-0.1,0.8-0.1,0.9c0-0.3,0-0.6,0-0.8c0-0.5,0-1,0-1.4
	c-0.8,0-1.6,0-2.4,0c-5.9-0.2-6.4,0-11.7-0.2l0.2,0c-4.6,0-9.3-0.1-13.9-0.1c-0.4,0-0.8,0-1.2,0c-8.9-0.1-17.5-0.2-25.3-0.2
	C-544.1,288-544.2,288.1-544.3,288.1"/>
<text transform="matrix(1 0 0 1 -687.3652 352.4223)" class="st3 st5" style="font-size:20.4518px;">varhaiskasvatuskeskusta</text>
<rect x="-687.4" y="296.9" class="st4" width="110.3" height="60.9"/>
<text transform="matrix(1 0 0 1 -687.3652 311.7572)"><tspan x="0" y="0" class="st3 st5" style="font-size:20.4518px;">Perustimme </tspan><tspan x="0" y="20.5" class="st3 st5" style="font-size:20.4518px;">tai tuimme </tspan></text>
<text transform="matrix(1 0 0 1 -585.4941 332.3666)" class="st2 st5" style="font-size:51.1295px;">554</text>
<path class="st0" d="M-691.8,368.2c0.4,0,1.4,0,2.1,0c-1.5,0,2.5-0.1,6.5-0.2c1.7,0,5.2,0,4.9,0.1c0.2,0,0.4,0,0.5,0l1.2,0
	c-0.7,0-2.1,0-3.4,0.1c0.3,0,0.6,0,0.9,0c-1.1-0.1-4.6,0-6.5,0c0,0.1,0.7,0.1,0.6,0.1c-0.6,0-1.5,0-2.4,0c-0.3,0-0.6,0-0.8,0l-0.5,0
	c-0.6,0-1.3,0-1.9,0C-691.1,368.2-691.5,368.2-691.8,368.2 M-495,479.2c1.5,0-2.8,0-6.8,0.1c-1.7,0-4.8,0.1-4.5,0
	c-0.2,0-0.4,0-0.5,0l-1.2,0c0.7,0,2.1,0,3.4-0.1c-0.3,0-0.6,0-0.9,0c1.1,0.1,4.6,0,6.5,0c0-0.1-0.7-0.1-0.6-0.1c0.6,0,1.5,0,2.4,0
	c0.3,0,0.6,0,0.8,0l0.5,0c0.6,0,1.3,0,1.9,0C-493.7,479.1-494.4,479.2-495,479.2 M-696.2,397.8c-0.2,6.5-0.3,13-0.4,19.6
	c0.3,9.3,0.1,19.4,0.2,29.1c0.1,4.1,0.2,8.4,0.2,12.6c-0.1,2.9-0.1,5.9-0.1,8.8c0,3.9,0,7.7,0,11.5c7.8,0,15.4,0,22.9,0
	c6.2,0,12.3,0,18.2,0c0.2-0.1-4.6,0-5.9-0.1c3.9,0,7.9,0,11.9,0c11.9,0.1,23.8,0.2,35.8,0.2c2.9,0,6.4,0.1,7.8,0.2
	c5.1,0.1,3-0.1,6.8-0.1l0.5,0.1c5.5-0.1,8,0.2,13.2,0.1c0.3-0.1,2.2-0.1,4-0.1c0.1,0.1,5.7,0,5.4,0.1l0.1,0c1.1,0,1.9,0,3.2,0
	c2.1-0.1,21.8-0.5,23.9-0.5l1,0c2.9,0,4.2-0.1,2.5-0.1l3.6,0l-0.4,0l3.6,0c0.7,0,1.4,0.1,0.4,0.1c2-0.1,4.3-0.1,6.4-0.1
	c-3.7-0.1-7.9-0.1-12-0.2c2.3,0,4.6,0,7,0c3.2,0.1,7.2,0.1,10.6,0.2c1.1,0,1.9-0.2,4.4-0.1c1.2,0.1,2.9,0,5,0.1
	c-2.4,0.1-4.8,0-7.2,0c0.4,0.1,6,0.1,7.9,0.1c0.9,0,5.6,0,8.6,0c-0.8,0.1,0.4,0.1,1.9,0.1c0.3,0,0.6,0,0.9,0c-0.3,0-0.6,0-0.9,0
	c0.8,0,1.6-0.1,2.2,0c2,0,3.2,0,2.4-0.1c0.1,0,9.6-0.2,8.4-0.2c-0.6,0-0.7,0-0.5-0.1c0.3,0,0.4,0,0.3,0c0.3,0,0.5-0.1-0.4-0.1
	l-0.8,0c-1.5,0-2.3,0-2.6-0.1c0.8,0,1.6,0,2.4,0c1.4,0,2.7,0,4.1,0c0-0.4,0-0.9,0-1.3c0.5-3.2,0-3.4,0.5-6.3l-0.1,0.1
	c0.1-2.5,0.2-5,0.3-7.5c0-0.2,0-0.4,0-0.6c0.3-4.8,0.5-9.4,0.4-13.6c0-0.1,0-0.1,0-0.2c0.2-6.5,0.3-13,0.4-19.6
	c-0.3-9.3-0.1-19.4-0.2-29.1c-0.1-4.1-0.2-8.4-0.2-12.6c0.1-2.9,0.1-5.9,0.1-8.8c0-3.9,0-7.7,0-11.5c-7.8,0-15.4,0-22.9,0
	c-6.2,0-12.3,0-18.2,0c-0.2,0.1,4.6,0,5.9,0.1c-3.9,0-7.9,0-11.9,0c-11.9-0.1-23.8-0.2-35.8-0.2c-2.9,0-6.4-0.1-7.8-0.2
	c-5.1-0.1-3,0.1-6.8,0.1l-0.5-0.1c-5.5,0.1-8-0.2-13.2-0.1c-0.3,0.1-2.2,0.1-4,0.1c-0.1-0.1-5.7,0-5.4-0.1l-0.1,0
	c-1.1,0-1.9,0-3.2,0c-2.1,0.1-21.8,0.5-23.9,0.5l-1,0c-2.9,0-4.2,0.1-2.5,0.1l-3.6,0l0.4,0l-3.6,0c-0.7,0-1.4-0.1-0.4-0.1
	c-2,0.1-4.3,0.1-6.4,0.1c3.7,0.1,7.9,0.1,12,0.2c-2.3,0-4.6,0-7,0c-3.2-0.1-7.2-0.1-10.6-0.2c-1.1,0-1.9,0.2-4.4,0.1
	c-1.2-0.1-2.9,0-5-0.1c2.4-0.1,4.8,0,7.2,0c-0.4-0.1-6-0.1-7.9-0.1c-0.9,0-5.6,0-8.6,0c0.8-0.1-0.4-0.1-1.9-0.1c-0.3,0-0.6,0-0.9,0
	c0.3,0,0.6,0,0.9,0c-0.8,0-1.6,0-2.2,0c-2,0-3.3,0-2.5,0.1c-0.1,0,0.2,0.1,0.7,0.1c-4.7,0.1-10.2,0.3-9.1,0.3c0.6,0,0.7,0,0.5,0.1
	c-0.3,0-0.4,0-0.3,0c-0.3,0-0.5,0.1,0.4,0.1l0.8,0c1.5,0,2.3,0,2.6,0.1c-0.8,0-1.6,0-2.4,0c-1.4,0-2.7,0-4.1,0c0,0.4,0,0.9,0,1.3
	c-0.5,3.2,0,3.4-0.5,6.3l0.1-0.1c-0.1,2.5-0.2,5-0.3,7.5c0,0.2,0,0.4,0,0.6c-0.3,4.8-0.5,9.4-0.4,13.6
	C-696.2,397.7-696.2,397.8-696.2,397.8"/>
<text transform="matrix(1 0 0 1 -680.8604 429.6654)" class="st3 st5" style="font-size:22.3809px;">tyttöä </text>
<text transform="matrix(1 0 0 1 -681.5039 405.1918)" class="st1 st5" style="font-size:33.4057px;">11 100</text>
<text transform="matrix(1 0 0 1 -585.9551 429.6654)" class="st3 st5" style="font-size:22.3809px;">poikaa</text>
<text transform="matrix(1 0 0 1 -587.3828 405.1918)" class="st1 st5" style="font-size:33.4057px;">6 800 </text>
<rect x="-685.5" y="442.4" class="st4" width="202.5" height="27"/>
<text transform="matrix(1 0 0 1 -685.4988 452.5828)"><tspan x="0" y="0" class="st3 st5" style="font-size:14px;">sai meiltä koulutusta oikeuksistaan  </tspan><tspan x="0" y="15" class="st3 st5" style="font-size:14px;">ja lasten suojelusta väkivallalta.</tspan></text>
<path class="st2" d="M-488.1,487.4c0,0.1,0,0.4,0,0.6c0-0.4,0.2,0.7,0.5,1.9c-0.1,0.5-0.1,1.5-0.2,1.4c0,0.1,0,0.1,0,0.2l-0.1,0.4
	c0-0.2-0.1-0.6-0.1-1c0,0.1,0,0.2,0.1,0.3c0.1-0.3,0.1-1.3,0-1.9c-0.1,0-0.1,0.2-0.2,0.2c0-0.2-0.1-0.4-0.1-0.7c0-0.1,0-0.2,0-0.2
	l0-0.2c0-0.2,0-0.4,0-0.5C-488.2,487.6-488.2,487.5-488.1,487.4 M-696,544.7c0,0.4,0-0.8-0.2-2c0.1-0.5-0.2-1.4,0-1.3
	c0-0.1,0-0.1,0-0.2l0.1-0.4c0,0.2,0.1,0.6,0.1,1c0-0.1,0-0.2-0.1-0.3c-0.1,0.3-0.1,1.3,0,1.9c0.1,0,0.1-0.2,0.2-0.2
	c0,0.2,0.1,0.4,0.1,0.7c0,0.1,0,0.2,0,0.2l0,0.2c0,0.2,0,0.4,0,0.5C-696,545.1-696,544.9-696,544.7 M-543.7,486.1
	c-12.2,0-24.4-0.1-36.7-0.1c-17.4,0.1-36.4,0-54.5,0c-7.7,0-15.7,0-23.5,0.1c-5.4,0-11,0-16.5,0c-7.2,0-14.5,0-21.6,0
	c0,2.3,0,4.5,0,6.7c0,1.8,0,3.6,0,5.3c0.3,0.1,0-1.3,0.2-1.7c0,1.1,0,2.3,0,3.5c-0.1,3.5-0.3,6.9-0.4,10.4c-0.1,0.8-0.2,1.9-0.3,2.3
	c-0.1,1.5,0.1,0.9,0.1,2l-0.3,0.1c0.2,1.6-0.3,2.3-0.2,3.8c0.1,0.1,0.1,0.6,0.1,1.2c-0.3,0,0,1.6-0.2,1.6l0,0c0,0.3,0,0.6,0,0.9
	c0.1,0.6,0.9,6.3,1,7l0,0.3c0,0.9,0.2,1.2,0.3,0.7l0,1.1l0-0.1l0,1.1c0,0.2-0.2,0.4-0.3,0.1c0.1,0.6,0.2,1.3,0.1,1.9
	c0.1-1.1,0.3-2.3,0.4-3.5c0,0.7,0.1,1.4,0.1,2c-0.1,0.9-0.2,2.1-0.3,3.1c0,0.3,0.3,0.5,0.2,1.3c-0.2,0.4,0,0.8-0.1,1.4
	c-0.1-0.7-0.1-1.4-0.1-2.1c-0.3,0.1-0.2,1.7-0.2,2.3c0.1,0.3,0,1.6,0.1,2.5c-0.2-0.2-0.2,0.1-0.2,0.6c0,0.1,0,0.2,0,0.3
	c0-0.1,0-0.2,0-0.3c0,0.2,0.1,0.5,0.1,0.6c0,0.6,0.1,0.9,0.2,0.7c0.1,0,0.4,2.8,0.4,2.5c0-0.2,0.1-0.2,0.1-0.2c0,0.1,0,0.1,0.1,0.1
	c0.1,0.1,0.1,0.1,0.1-0.1l-0.1-0.2c0-0.4,0.1-0.7,0.1-0.7c0,0.2,0,0.5,0,0.7c0,0.4,0,0.8,0,1.2c0.8,0,1.6,0,2.5,0
	c5.9,0.1,6.4,0,11.8,0.1l-0.2,0c4.7,0,9.4,0.1,14.1,0.1c0.4,0,0.8,0,1.2,0c9,0.1,17.6,0.1,25.5,0.1c0.1,0,0.2,0,0.3,0
	c12.2,0,24.4,0.1,36.7,0.1c17.4-0.1,36.4,0,54.5,0c7.7,0,15.7,0,23.5-0.1c5.4,0,11,0,16.5,0c7.2,0,14.5,0,21.6,0c0-2.3,0-4.5,0-6.7
	c0-1.8,0-3.6,0-5.3c-0.3-0.1,0,1.3-0.2,1.7c0-1.1,0-2.3,0-3.5c0.1-3.5,0.3-6.9,0.4-10.4c0.1-0.8,0.2-1.9,0.3-2.3
	c0.1-1.5-0.1-0.9-0.1-2l0.3-0.1c-0.2-1.6,0.3-2.3,0.2-3.8c-0.1-0.1-0.1-0.6-0.1-1.2c0.3,0,0-1.6,0.2-1.6l0,0c0-0.3,0-0.6,0-0.9
	c-0.1-0.6-0.9-6.3-1-7l0-0.3c0-0.9-0.2-1.2-0.3-0.7l0-1.1l0,0.1l0-1.1c0-0.2,0.2-0.4,0.3-0.1c-0.1-0.6-0.2-1.3-0.1-1.9
	c-0.1,1.1-0.3,2.3-0.4,3.5c0-0.7-0.1-1.4-0.1-2c0.1-0.9,0.2-2.1,0.3-3.1c0-0.3-0.3-0.5-0.2-1.3c0.2-0.4,0-0.8,0.1-1.4
	c0.1,0.7,0.1,1.4,0.1,2.1c0.3-0.1,0.2-1.7,0.2-2.3c-0.1-0.3,0-1.6-0.1-2.5c0.2,0.2,0.2-0.1,0.2-0.6c0-0.1,0-0.2,0-0.3
	c0,0.1,0,0.2,0,0.3c0-0.2,0-0.5,0.1-0.6c0-0.6-0.1-1-0.2-0.7c-0.1,0-0.1,0-0.1,0.2c-0.2-1.4-0.5-3-0.5-2.6c0,0.2-0.1,0.2-0.1,0.2
	c0-0.1,0-0.1-0.1-0.1c-0.1-0.1-0.1-0.1-0.1,0.1l0.1,0.2c0,0.4-0.1,0.7-0.1,0.7c0-0.2,0-0.5,0-0.7c0-0.4,0-0.8,0-1.2
	c-0.8,0-1.6,0-2.5,0c-5.9-0.1-6.4,0-11.8-0.1l0.2,0c-4.7,0-9.4-0.1-14.1-0.1c-0.4,0-0.8,0-1.2,0c-9-0.1-17.6-0.1-25.5-0.1
	C-543.5,486.1-543.6,486.1-543.7,486.1"/>
<rect x="-687.2" y="497.1" class="st4" width="186.9" height="73.4"/>
<text transform="matrix(1 0 0 1 -687.1816 507.0248)"><tspan x="0" y="0" class="st3 st5" style="font-size:13.7595px;">Paransimme opettajien osaamista ja </tspan><tspan x="0" y="15.5" class="st3 st5" style="font-size:13.7595px;">lasten ja nuorten osallistumista </tspan><tspan x="0" y="31" class="st3 st5" style="font-size:13.7595px;">kouluhallintoon </tspan><tspan x="87.5" y="31" class="st1 st5" style="font-size:13.7595px;">170</tspan><tspan x="101.7" y="31" class="st3 st5" style="font-size:13.7595px;"> koulussa.</tspan></text>
<path class="st1" d="M-488.1,557.1c0,0.3,0,0.8,0,1.2c0-0.9,0.2,1.5,0.5,3.8c-0.1,1-0.1,3.1-0.2,2.9c0,0.1,0,0.2,0,0.3l-0.1,0.7
	c0-0.4-0.1-1.2-0.1-2c0,0.2,0,0.4,0.1,0.5c0.1-0.7,0.1-2.7,0-3.9c-0.1,0-0.1,0.4-0.2,0.4c0-0.4-0.1-0.9-0.1-1.4c0-0.2,0-0.3,0-0.5
	l0-0.3c0-0.4,0-0.8,0-1.1C-488.2,557.5-488.2,557.3-488.1,557.1 M-695.8,673.9c0,0.9,0-1.7-0.2-4c0.1-1-0.2-2.9,0-2.7
	c0-0.1,0-0.2,0-0.3l0.1-0.7c0,0.4,0.1,1.2,0.1,2c0-0.2,0-0.4-0.1-0.5c-0.1,0.7-0.1,2.7,0,3.9c0.1,0,0.1-0.4,0.2-0.4
	c0,0.4,0.1,0.9,0.1,1.4c0,0.2,0,0.3,0,0.5l0,0.3c0,0.4,0,0.8,0,1.1C-695.7,674.7-695.8,674.3-695.8,673.9 M-543.6,554.5
	c-12.2-0.1-24.4-0.2-36.6-0.2c-17.4,0.2-36.3,0-54.4,0.1c-7.7,0-15.7,0.1-23.5,0.1c-5.4,0-11-0.1-16.5-0.1c-7.2,0-14.5,0-21.6,0
	c0,4.6,0,9.1,0,13.6c0,3.7,0,7.3,0,10.8c0.3,0.1,0-2.7,0.2-3.5c0,2.3,0,4.7,0,7.1c-0.1,7.1-0.3,14.1-0.4,21.2
	c-0.1,1.7-0.2,3.8-0.3,4.6c-0.1,3,0.1,1.8,0.1,4l-0.3,0.3c0.2,3.3-0.3,4.8-0.2,7.8c0.1,0.2,0.1,1.3,0.1,2.4c-0.3,0.1,0,3.4-0.2,3.2
	l0,0c0,0.7,0,1.1,0,1.9c0.1,1.2,0.9,12.9,1,14.2l0,0.6c0,1.8,0.2,2.5,0.3,1.5l0,2.2l0-0.2l0,2.1c0,0.4-0.2,0.8-0.3,0.2
	c0.1,1.2,0.2,2.6,0.1,3.8c0.1-2.2,0.3-4.7,0.4-7.1c0,1.4,0.1,2.8,0.1,4.1c-0.1,1.9-0.2,4.3-0.3,6.3c0,0.7,0.3,1.1,0.2,2.6
	c-0.2,0.7,0,1.7-0.1,2.9c-0.1-1.4-0.1-2.8-0.1-4.3c-0.3,0.2-0.2,3.5-0.2,4.7c0.1,0.5,0,3.3,0.1,5.1c-0.2-0.5-0.2,0.3-0.2,1.1
	c0,0.2,0,0.3,0,0.5c0-0.2,0-0.4,0-0.5c0,0.5,0.1,1,0.1,1.3c0,1.2,0.1,1.9,0.2,1.4c0.1,0.1,0.4,5.7,0.4,5c0-0.4,0.1-0.4,0.1-0.3
	c0,0.2,0,0.2,0.1,0.2c0.1,0.2,0.1,0.3,0.1-0.2l-0.1-0.5c0-0.9,0.1-1.4,0.1-1.5c0,0.5,0,0.9,0,1.4c0,0.8,0,1.6,0,2.4
	c0.8,0,1.6,0,2.5,0c5.9,0.3,6.4,0,11.8,0.3l-0.2-0.1c4.7,0.1,9.4,0.1,14,0.2c0.4,0,0.8,0,1.2,0c9,0.2,17.6,0.3,25.5,0.3
	c0.1,0,0.2,0,0.3,0c12.2,0.1,24.4,0.2,36.6,0.2c17.4-0.2,36.3,0,54.4-0.1c7.7,0,15.7-0.1,23.5-0.1c5.4,0,11,0.1,16.5,0.1
	c7.2,0,14.5,0,21.6,0c0-4.6,0-9.1,0-13.6c0-3.7,0-7.3,0-10.8c-0.3-0.1,0,2.7-0.2,3.5c0-2.3,0-4.7,0-7.1c0.1-7.1,0.3-14.1,0.4-21.2
	c0.1-1.7,0.2-3.8,0.3-4.6c0.1-3-0.1-1.8-0.1-4l0.3-0.3c-0.2-3.3,0.3-4.8,0.2-7.8c-0.1-0.2-0.1-1.3-0.1-2.4c0.3-0.1,0-3.4,0.2-3.2
	l0,0c0-0.7,0-1.1,0-1.9c-0.1-1.2-0.9-12.9-1-14.2l0-0.6c0-1.7-0.2-2.5-0.3-1.5l0-2.2l0,0.2l0-2.1c0-0.4,0.2-0.8,0.3-0.2
	c-0.1-1.2-0.2-2.6-0.1-3.8c-0.1,2.2-0.3,4.7-0.4,7.1c0-1.4-0.1-2.8-0.1-4.1c0.1-1.9,0.2-4.3,0.3-6.3c0-0.7-0.3-1.1-0.2-2.6
	c0.2-0.7,0-1.7,0.1-2.9c0.1,1.4,0.1,2.8,0.1,4.3c0.3-0.2,0.2-3.5,0.2-4.7c-0.1-0.5,0-3.3-0.1-5.1c0.2,0.5,0.2-0.3,0.2-1.1
	c0-0.2,0-0.4,0-0.5c0,0.2,0,0.4,0,0.5c0-0.5,0-0.9,0.1-1.3c0-1.2-0.1-1.9-0.2-1.5c-0.1-0.1-0.1,0.1-0.1,0.4
	c-0.2-2.8-0.5-6.1-0.5-5.4c0,0.4-0.1,0.4-0.1,0.3c0-0.2,0-0.2-0.1-0.2c-0.1-0.2-0.1-0.3-0.1,0.2l0.1,0.5c0,0.9-0.1,1.4-0.1,1.5
	c0-0.5,0-0.9,0-1.4c0-0.8,0-1.6,0-2.4c-0.8,0-1.6,0-2.5,0c-5.9-0.3-6.4,0-11.8-0.3l0.2,0.1c-4.7-0.1-9.4-0.1-14-0.2
	c-0.4,0-0.8,0-1.2,0c-9-0.2-17.6-0.3-25.5-0.3C-543.4,554.5-543.5,554.5-543.6,554.5"/>
<g>
	<text transform="matrix(1 0 0 1 -688.0854 669.1659)" class="st3 st5" style="font-size:16px;">koululaiselle </text>
	<text transform="matrix(1 0 0 1 -688.828 649.5955)" class="st2 st5" style="font-size:38px;">19 000</text>
</g>
<g>
	<text transform="matrix(1 0 0 1 -583.455 650.3975)" class="st2 st5" style="font-size:38px;">12 100</text>
	<text transform="matrix(1 0 0 1 -582.2184 669.1658)" class="st3 st5" style="font-size:16px;">aikuiselle</text>
</g>
<rect x="-687.8" y="563.8" class="st4" width="208.5" height="60.6"/>
<text transform="matrix(1 0 0 1 -687.7625 575.3818)"><tspan x="0" y="0" class="st3 st5" style="font-size:16px;">Suomessa Globaalikoulumme </tspan><tspan x="0" y="18" class="st3 st5" style="font-size:16px;">tarjosi opetusta globaalin </tspan><tspan x="0" y="36" class="st3 st5" style="font-size:16px;">vastuun kysymyksistä</tspan></text>
<path class="st0" d="M207.3,156.9c0,0.2,0,0.5,0,0.8c0-0.5,0.2,0.9,0.5,2.3c-0.1,0.6-0.1,1.9-0.2,1.8c0,0.1,0,0.1,0,0.2l-0.1,0.4
	c0-0.3-0.1-0.7-0.1-1.2c0,0.1,0,0.2,0.1,0.3c0.1-0.4,0.1-1.7,0-2.4c-0.1,0-0.1,0.3-0.2,0.2c0-0.2-0.1-0.5-0.1-0.9c0-0.1,0-0.2,0-0.3
	l0-0.2c0-0.2,0-0.5,0-0.7C207.3,157.2,207.3,157,207.3,156.9 M2.4,227.9c0,0.5,0-1-0.2-2.4c0.1-0.6-0.2-1.7,0-1.6c0-0.1,0-0.1,0-0.2
	l0.1-0.4c0,0.3,0.1,0.7,0.1,1.2c0-0.1,0-0.2-0.1-0.3c-0.1,0.4-0.1,1.7,0,2.4c0.1,0,0.1-0.3,0.2-0.2c0,0.2,0.1,0.5,0.1,0.9
	c0,0.1,0,0.2,0,0.3l0,0.2c0,0.2,0,0.5,0,0.7C2.5,228.3,2.4,228.1,2.4,227.9 M152.6,155.3c-12-0.1-24-0.1-36.2-0.1
	c-17.2,0.1-35.8,0-53.7,0.1c-7.6,0-15.5,0.1-23.2,0.1c-5.4,0-10.8,0-16.3,0c-7.1,0-14.3,0-21.3,0c0,2.8,0,5.6,0,8.2
	c0,2.3,0,4.4,0,6.6c0.3,0.1,0-1.7,0.2-2.1c0,1.4,0,2.8,0,4.3c-0.1,4.3-0.3,8.6-0.4,12.9c-0.1,1-0.2,2.3-0.3,2.8
	c-0.1,1.8,0.1,1.1,0.1,2.4l-0.3,0.2c0.2,2-0.3,2.9-0.2,4.8c0.1,0.1,0.1,0.8,0.1,1.4c-0.3,0,0,2-0.2,1.9l0,0c0,0.4,0,0.7,0,1.2
	c0.1,0.8,0.9,7.9,1,8.6l0,0.4c0,1.1,0.2,1.5,0.3,0.9l0,1.3l0-0.2l0,1.3c0,0.2-0.2,0.5-0.3,0.1C2,213.2,2,214,2,214.7
	c0.1-1.3,0.2-2.8,0.4-4.3c0,0.8,0.1,1.7,0.1,2.5c-0.1,1.2-0.2,2.6-0.3,3.8c0,0.4,0.3,0.7,0.2,1.6c-0.2,0.4,0,1-0.1,1.8
	c-0.1-0.9-0.1-1.7-0.1-2.6c-0.3,0.2-0.2,2.1-0.2,2.8c0.1,0.3,0,2,0.1,3.1c-0.2-0.3-0.2,0.2-0.2,0.7c0,0.1,0,0.2,0,0.3
	c0-0.1,0-0.2,0-0.3c0,0.3,0.1,0.6,0.1,0.8c0,0.7,0.1,1.2,0.2,0.9c0.1,0.1,0.4,3.5,0.4,3c0-0.2,0.1-0.2,0.1-0.2c0,0.1,0,0.2,0.1,0.1
	c0.1,0.1,0.1,0.2,0.1-0.1l-0.1-0.3c0-0.6,0.1-0.8,0.1-0.9c0,0.3,0,0.6,0,0.9c0,0.5,0,1,0,1.5c0.8,0,1.6,0,2.4,0
	c5.9,0.2,6.4,0,11.6,0.2l-0.2,0c4.6,0,9.2,0.1,13.9,0.1c0.4,0,0.8,0,1.2,0c8.9,0.1,17.4,0.2,25.1,0.2c0.1,0,0.2,0,0.3,0
	c12,0.1,24,0.1,36.2,0.1c17.2-0.1,35.8,0,53.7-0.1c7.6,0,15.5-0.1,23.2-0.1c5.4,0,10.8,0,16.3,0c7.1,0,14.3,0,21.3,0
	c0-2.8,0-5.6,0-8.2c0-2.2,0-4.4,0-6.6c-0.3-0.1,0,1.7-0.2,2.1c0-1.4,0-2.8,0-4.3c0.1-4.3,0.3-8.6,0.4-12.9c0.1-1,0.2-2.3,0.3-2.8
	c0.1-1.8-0.1-1.1-0.1-2.4l0.3-0.2c-0.2-2,0.3-2.9,0.2-4.8c-0.1-0.1-0.1-0.8-0.1-1.4c0.3,0,0-2,0.2-1.9l0,0c0-0.4,0-0.7,0-1.2
	c-0.1-0.8-0.9-7.9-1-8.6l0-0.4c0-1.1-0.2-1.5-0.3-0.9l0-1.3l0,0.2l0-1.3c0-0.2,0.2-0.5,0.3-0.1c-0.1-0.7-0.1-1.6-0.1-2.3
	c-0.1,1.3-0.2,2.8-0.4,4.3c0-0.8-0.1-1.7-0.1-2.5c0.1-1.2,0.2-2.6,0.3-3.8c0-0.4-0.3-0.7-0.2-1.6c0.2-0.4,0-1,0.1-1.8
	c0.1,0.9,0.1,1.7,0.1,2.6c0.3-0.2,0.2-2.1,0.2-2.8c-0.1-0.3,0-2-0.1-3.1c0.2,0.3,0.2-0.2,0.2-0.7c0-0.1,0-0.2,0-0.3
	c0,0.1,0,0.2,0,0.3c0-0.3,0-0.6,0.1-0.8c0-0.7-0.1-1.2-0.2-0.9c-0.1-0.1-0.1,0.1-0.1,0.2c-0.2-1.7-0.5-3.7-0.5-3.3
	c0,0.2-0.1,0.2-0.1,0.2c0-0.1,0-0.2-0.1-0.1c-0.1-0.1-0.1-0.2-0.1,0.1l0.1,0.3c0,0.6-0.1,0.8-0.1,0.9c0-0.3,0-0.6,0-0.9
	c0-0.5,0-1,0-1.5c-0.8,0-1.6,0-2.4,0c-5.9-0.2-6.4,0-11.6-0.2l0.2,0c-4.6,0-9.2-0.1-13.9-0.1c-0.4,0-0.8,0-1.2,0
	c-8.9-0.1-17.4-0.2-25.1-0.2C152.8,155.3,152.7,155.3,152.6,155.3"/>
<rect x="11.9" y="166.4" class="st4" width="239.1" height="69.5"/>
<text transform="matrix(1 0 0 1 11.9021 179.6356)"><tspan x="0" y="0" class="st3 st5 st6">Tarjosimme </tspan><tspan x="82.5" y="0" class="st1 st5 st6">koulutusta </tspan><tspan x="0" y="20.6" class="st3 st5 st6">37 humanitaarisessa </tspan><tspan x="0" y="41.3" class="st3 st5 st6">ohjelmassa 29 maassa</tspan></text>
<path class="st0" d="M206.9,239c0,0.2,0,0.5,0,0.8c0-0.5,0.2,0.9,0.5,2.3c-0.1,0.6-0.1,1.9-0.2,1.8c0,0.1,0,0.1,0,0.2l-0.1,0.4
	c0-0.3-0.1-0.7-0.1-1.2c0,0.1,0,0.2,0.1,0.3c0.1-0.4,0.1-1.7,0-2.4c-0.1,0-0.1,0.3-0.2,0.2c0-0.2-0.1-0.5-0.1-0.9c0-0.1,0-0.2,0-0.3
	l0-0.2c0-0.2,0-0.5,0-0.7C206.8,239.2,206.9,239.1,206.9,239 M2,309.9c0,0.5,0-1-0.2-2.4c0.1-0.6-0.2-1.7,0-1.6c0-0.1,0-0.1,0-0.2
	l0.1-0.4c0,0.3,0.1,0.7,0.1,1.2c0-0.1,0-0.2-0.1-0.3c-0.1,0.4-0.1,1.7,0,2.4c0.1,0,0.1-0.3,0.2-0.2c0,0.2,0.1,0.5,0.1,0.9
	c0,0.1,0,0.2,0,0.3l0,0.2c0,0.2,0,0.5,0,0.7C2,310.4,2,310.2,2,309.9 M152.2,237.4c-12-0.1-24-0.1-36.2-0.1
	c-17.2,0.1-35.8,0-53.7,0.1c-7.6,0-15.5,0.1-23.2,0.1c-5.4,0-10.8,0-16.3,0c-7.1,0-14.3,0-21.3,0c0,2.8,0,5.6,0,8.2
	c0,2.3,0,4.4,0,6.6c0.3,0.1,0-1.7,0.2-2.1c0,1.4,0,2.8,0,4.3c-0.1,4.3-0.3,8.6-0.4,12.9c-0.1,1-0.2,2.3-0.3,2.8
	c-0.1,1.8,0.1,1.1,0.1,2.4l-0.3,0.2c0.2,2-0.3,2.9-0.2,4.8c0.1,0.1,0.1,0.8,0.1,1.4c-0.3,0,0,2-0.2,1.9l0,0c0,0.4,0,0.7,0,1.2
	c0.1,0.8,0.9,7.9,1,8.6l0,0.4c0,1.1,0.2,1.5,0.3,0.9l0,1.3l0-0.2l0,1.3c0,0.2-0.2,0.5-0.3,0.1c0.1,0.7,0.1,1.6,0.1,2.3
	c0.1-1.3,0.2-2.8,0.4-4.3c0,0.8,0.1,1.7,0.1,2.5c-0.1,1.2-0.2,2.6-0.3,3.8c0,0.4,0.3,0.7,0.2,1.6c-0.2,0.4,0,1-0.1,1.8
	c-0.1-0.9-0.1-1.7-0.1-2.6c-0.3,0.2-0.2,2.1-0.2,2.8c0.1,0.3,0,2,0.1,3.1c-0.2-0.3-0.2,0.2-0.2,0.7c0,0.1,0,0.2,0,0.3
	c0-0.1,0-0.2,0-0.3c0,0.3,0.1,0.6,0.1,0.8c0,0.7,0.1,1.2,0.2,0.9c0.1,0.1,0.4,3.5,0.4,3c0-0.2,0.1-0.2,0.1-0.2c0,0.1,0,0.2,0.1,0.1
	c0.1,0.1,0.1,0.2,0.1-0.1l-0.1-0.3c0-0.6,0.1-0.8,0.1-0.9c0,0.3,0,0.6,0,0.9c0,0.5,0,1,0,1.5c0.8,0,1.6,0,2.4,0
	c5.9,0.2,6.4,0,11.6,0.2l-0.2,0c4.6,0,9.2,0.1,13.9,0.1c0.4,0,0.8,0,1.2,0c8.9,0.1,17.4,0.2,25.1,0.2c0.1,0,0.2,0,0.3,0
	c12,0.1,24,0.1,36.2,0.1c17.2-0.1,35.8,0,53.7-0.1c7.6,0,15.5-0.1,23.2-0.1c5.4,0,10.8,0,16.3,0c7.1,0,14.3,0,21.3,0
	c0-2.8,0-5.6,0-8.2c0-2.2,0-4.4,0-6.6c-0.3-0.1,0,1.7-0.2,2.1c0-1.4,0-2.8,0-4.3c0.1-4.3,0.3-8.6,0.4-12.9c0.1-1,0.2-2.3,0.3-2.8
	c0.1-1.8-0.1-1.1-0.1-2.4l0.3-0.2c-0.2-2,0.3-2.9,0.2-4.8c-0.1-0.1-0.1-0.8-0.1-1.4c0.3,0,0-2,0.2-1.9l0,0c0-0.4,0-0.7,0-1.2
	c-0.1-0.8-0.9-7.9-1-8.6l0-0.4c0-1.1-0.2-1.5-0.3-0.9l0-1.3l0,0.2l0-1.3c0-0.2,0.2-0.5,0.3-0.1c-0.1-0.7-0.1-1.6-0.1-2.3
	c-0.1,1.3-0.2,2.8-0.4,4.3c0-0.8-0.1-1.7-0.1-2.5c0.1-1.2,0.2-2.6,0.3-3.8c0-0.4-0.3-0.7-0.2-1.6c0.2-0.4,0-1,0.1-1.8
	c0.1,0.9,0.1,1.7,0.1,2.6c0.3-0.2,0.2-2.1,0.2-2.8c-0.1-0.3,0-2-0.1-3.1c0.2,0.3,0.2-0.2,0.2-0.7c0-0.1,0-0.2,0-0.3
	c0,0.1,0,0.2,0,0.3c0-0.3,0-0.6,0.1-0.8c0-0.7-0.1-1.2-0.2-0.9c-0.1-0.1-0.1,0.1-0.1,0.2c-0.2-1.7-0.5-3.7-0.5-3.3
	c0,0.2-0.1,0.2-0.1,0.2c0-0.1,0-0.2-0.1-0.1c-0.1-0.1-0.1-0.2-0.1,0.1l0.1,0.3c0,0.6-0.1,0.8-0.1,0.9c0-0.3,0-0.6,0-0.9
	c0-0.5,0-1,0-1.5c-0.8,0-1.6,0-2.4,0c-5.9-0.2-6.4,0-11.6-0.2l0.2,0c-4.6,0-9.2-0.1-13.9-0.1c-0.4,0-0.8,0-1.2,0
	c-8.9-0.1-17.4-0.2-25.1-0.2C152.3,237.4,152.2,237.4,152.2,237.4"/>
<rect x="11.4" y="248.4" class="st4" width="239.1" height="69.5"/>
<text transform="matrix(1 0 0 1 11.441 261.7022)"><tspan x="0" y="0" class="st3 st5 st6">Paransimme </tspan><tspan x="84.3" y="0" class="st1 st5 st6">lastensuojelua  </tspan><tspan x="0" y="20.6" class="st3 st5 st6">41 humanitaarisessa  </tspan><tspan x="0" y="41.3" class="st3 st5 st6">ohjelmassa 29 maassa</tspan></text>
</svg>
