<svg id="Layer_1" class="big-screen" data-name="Layer 1" xmlns="http://www.w3.org/2000/svg" viewBox="0 0 900 900"><defs><style>.cls-2{fill:#0079c1}.cls-20{fill:#74cee2}.cls-33,.cls-34,.cls-5,.cls-6{fill:#fff}.cls-5,.cls-6{font-size:23px}.cls-10,.cls-6{letter-spacing:-.04em}.cls-12{letter-spacing:-.05em}.cls-20{font-size:27px}.cls-34{letter-spacing:-.04em}.cls-36{letter-spacing:.01em}.cls-37{letter-spacing:-.01em}</style></defs><path d="M6.17.93h2.75c-2 0 3.26-.14 8.46-.26 2.21 0 6.77 0 6.37.12H26c-1 0-2.7 0-4.48.06h1.18c-1.45-.06-6 0-8.56 0a6.84 6.84 0 0 0 .86.03c-.82 0-2 0-3.11.06h-1.73L7.71 1C7.13 1 6.6 1 6.17.93m258 121.62c2 0-3.7 0-8.9.11-2.21 0-6.34.1-5.93 0h-2.3c1 0 2.7-.05 4.48-.06h-1.18 8.56c0-.06-.92-.06-.85-.09.82 0 2 0 3.11-.06H264.17M.49 33.42Q.16 44.1 0 54.88c.45 10.2.08 21.27.22 31.88.1 4.51.21 9.17.31 13.76-.08 3.18-.11 6.42-.13 9.67v12.66h53.8c.31-.15-6.05 0-7.79-.12H62c15.58.07 31.24.19 46.9.21 3.8 0 8.44.14 10.17.19 6.73.06 4-.08 8.9-.06l.66.16c7.2-.13 10.52.17 17.3.1.36-.06 2.83-.07 5.24-.06.12.16 7.41 0 7.06.14h4.33c2.76-.05 28.6-.5 31.4-.57h1.3c3.87 0 5.52-.12 3.26-.15h9c.87 0 1.86.09.52.16 2.68-.06 5.7-.09 8.38-.06-4.79-.06-10.32-.14-15.74-.24h9.17l13.85.17c1.46 0 2.47-.19 5.78-.11 1.62.13 3.74 0 6.5.09-3.17.06-6.26 0-9.47 0 .55.15 7.81.1 10.34.14h11.28c-1.12.09.58.1 2.52.12h1.19-1.15c1 0 2.1-.07 2.89 0 2.62 0 4.2-.05 3.13-.1.19 0 12.58-.25 11.07-.26-.83 0-.89 0-.71-.06h.45c.38 0 .64-.07-.52-.08h-1.08c-2 0-3 0-3.36-.08h8.52v-1.44c.63-3.48.06-3.77.64-6.9l-.18.09q.23-4.11.4-8.22v-.71c.35-5.25.63-10.31.57-14.92v-.17q.33-10.68.5-21.46c-.45-10.2-.08-21.27-.22-31.88-.1-4.51-.21-9.17-.31-13.76.08-3.18.12-6.42.13-9.67V.69h-53.75c-.31.15 6 0 7.79.13H211C195.42.74 179.76.62 164.1.6c-3.77-.11-8.41-.2-10.1-.25-6.73-.06-4 .08-8.89.06l-.71-.15c-7.2.12-10.52-.18-17.3-.11-.36.06-2.83.07-5.24.06-.12-.16-7.41 0-7.06-.13h-4.33c-2.76.06-28.6.5-31.4.57h-1.3c-3.87 0-5.52.12-3.26.15h-9c-.87 0-1.86-.09-.52-.16-2.68.06-5.7.09-8.38.06C61.44.7 67 .79 72.39.88l-9.17.05L49.37.76c-1.46 0-2.46.19-5.78.11-1.59-.12-3.74.01-6.5-.08 3.17-.07 6.26 0 9.47 0C46 .61 38.75.66 36.22.61 35 .66 28.84.61 25 .65c1.11-.09-.58-.1-2.53-.12h-1.19 1.15c-1 0-2.1 0-2.88-.05-2.63 0-4.31 0-3.24.09-.18 0 .21.06.91.08C11 .78 3.78.92 5.29.93c.83.01.89.07.71.07h-.45c-.38 0-.64.07.52.08h1.08c2 0 3 0 3.36.08H2v1.45c-.63 3.47-.06 3.77-.64 6.9l.18-.1q-.21 4.11-.4 8.22c0 .24 0 .47-.05.71C.7 23.58.41 28.65.47 33.25v.17" fill="#ec008c"/><path class="cls-2" d="M290.73.93h2.75c-2 0 3.26-.14 8.46-.26 2.22 0 6.78 0 6.37.12h2.29c-1 0-2.69 0-4.48.06h1.19c-1.45-.06-6 0-8.56 0a6.84 6.84 0 0 0 .85.09c-.82 0-2 0-3.12.06h-5.75m258 121.62c2 0-3.69 0-8.9.11-2.21 0-6.33.1-5.93 0h-2.29c1 0 2.69-.05 4.48-.06h-1.19 8.57c0-.06-.93-.06-.86-.09.82 0 2 0 3.12-.06h3m-263.67-89.1q-.33 10.68-.5 21.46c.45 10.2.08 21.27.21 31.88.11 4.51.21 9.17.32 13.76-.08 3.18-.12 6.42-.13 9.67v12.66h53.8c.31-.15-6.06 0-7.8-.12h15.64c15.58.07 31.23.19 46.9.21 3.79 0 8.44.14 10.17.19 6.72.06 4-.08 8.89-.06l.67.16c7.19-.13 10.52.17 17.3.1.35-.06 2.83-.07 5.23-.06.13.16 7.42 0 7.07.14h4.33c2.75-.05 28.6-.5 31.39-.57h1.31c3.86 0 5.52-.12 3.26-.15h9c.87 0 1.86.09.51.16 2.69-.06 5.7-.09 8.39-.06-4.79-.06-10.33-.14-15.74-.24h9.16l13.85.17c1.47 0 2.47-.19 5.79-.11 1.61.13 3.74 0 6.49.09-3.16.06-6.26 0-9.47 0 .55.15 7.81.1 10.35.14h11.27c-1.11.09.58.1 2.53.12h1.19-1.15c1 0 2.1-.07 2.88 0 2.63 0 4.2-.05 3.13-.1.19 0 12.59-.25 11.07-.26-.83 0-.89 0-.71-.06h.46c.38 0 .64-.07-.53-.08h-1.08c-2 0-3 0-3.36-.08h8.52v-1.44c.64-3.48.07-3.77.64-6.9l-.17.09q.21-4.11.39-8.22c0-.24 0-.47.05-.71.35-5.25.64-10.31.58-14.92v-.17q.33-10.68.5-21.46c-.44-10.2-.08-21.27-.21-31.88-.11-4.51-.21-9.17-.32-13.76.08-3.18.12-6.42.13-9.67V.69h-53.8c-.31.15 6.06 0 7.8.13h-15.67C480 .68 464.36.56 448.7.54c-3.8-.05-8.44-.14-10.18-.19-6.72-.06-4 .08-8.89.06L429 .26c-7.2.12-10.53-.18-17.3-.11-.36.06-2.84.07-5.24.06-.12-.16-7.42 0-7.07-.13h-4.33c-2.75.06-28.6.5-31.39.57h-1.31c-3.86 0-5.52.12-3.26.15h-8.95c-.88 0-1.87-.09-.52-.16-2.68.06-5.7.09-8.39.06 4.76 0 10.3.09 15.76.18l-9.16.05-13.9-.17c-1.46 0-2.47.19-5.78.11-1.62-.12-3.75 0-6.5-.08 3.16-.07 6.26 0 9.47 0-.55-.15-7.81-.1-10.35-.15-1.19.05-7.38 0-11.27 0 1.11-.09-.58-.1-2.53-.12h-1.19 1.16c-1 0-2.1 0-2.89-.05-2.62 0-4.3 0-3.23.09-.19 0 .21.06.9.08-6.21.13-13.39.27-11.87.28.83 0 .89 0 .71.06h-.45c-.39 0-.64.07.52.08h1.08c2 0 3 0 3.36.08h-8.52v1.45c-.64 3.47-.06 3.77-.64 6.9l.17-.1q-.21 4.11-.39 8.22c0 .24 0 .47-.05.71-.35 5.25-.64 10.32-.58 14.92v.17"/><path d="M577.15.93h3.28c-2.35 0 3.9-.14 10.12-.26 2.64 0 8.09 0 7.61.12h2.74c-1.16 0-3.23 0-5.36.06h1.42c-1.74-.06-7.19 0-10.23 0a9.67 9.67 0 0 0 1 .09c-1 0-2.35 0-3.72.06H577.15m308.27 121.55c2.36 0-4.41 0-10.63.11-2.64 0-7.57.1-7.09 0h-2.74c1.16 0 3.23-.05 5.36-.06h-1.42 10.23c0-.06-1.1-.06-1-.09 1 0 2.35 0 3.72-.06H885.43m-315-89.13q-.39 10.68-.6 21.46c.54 10.2.1 21.27.26 31.88.12 4.51.25 9.17.37 13.76-.09 3.18-.13 6.42-.15 9.67v12.66h64.28c.37-.15-7.23 0-9.31-.12h18.67c18.62.07 37.32.19 56 .21 4.54 0 10.08.14 12.15.19 8 .06 4.75-.08 10.63-.06l.8.16c8.6-.13 12.57.17 20.67.1.43-.06 3.38-.07 6.26-.06.14.16 8.86 0 8.44.14h5.17c3.3-.05 34.18-.5 37.52-.57h1.56c4.62 0 6.59-.12 3.9-.15h10.7c1 0 2.22.09.61.16 3.21-.06 6.82-.09 10-.06-5.73-.06-12.34-.14-18.81-.24h10.95l16.55.17c1.75 0 2.95-.19 6.91-.11 1.93.13 4.47 0 7.76.09-3.78.06-7.48 0-11.31 0 .65.15 9.33.1 12.36.14h13.47c-1.33.09.69.1 3 .12h1.42-1.38c1.22 0 2.52-.07 3.46 0 3.13 0 5-.05 3.74-.1.22 0 15-.25 13.22-.26-1 0-1.06 0-.85-.06h.55c.45 0 .76-.07-.63-.08h-1.29c-2.4 0-3.59 0-4-.08h10.22v-1.44c.76-3.48.08-3.77.77-6.9l-.21.09q.26-4.11.47-8.22l.06-.71c.42-5.25.76-10.31.69-14.92v-.17q.39-10.68.6-21.46c-.54-10.2-.1-21.27-.26-31.88-.12-4.51-.25-9.17-.38-13.76.1-3.18.14-6.42.16-9.67V.59h-64.29c-.37.15 7.23 0 9.31.13H822c-18.62-.08-37.32-.2-56-.22-4.63-.01-10.17-.1-12.24-.15-8-.06-4.75.08-10.63.06l-.8-.15c-8.6.12-12.57-.18-20.67-.11-.43.06-3.38.07-6.26.06-.14-.16-8.86 0-8.44-.13h-5.17c-3.3.06-34.18.5-37.52.57h-1.56c-4.62 0-6.59.12-3.9.15h-10.7c-1 0-2.22-.09-.62-.16-3.2.06-6.81.09-10 .06 5.73.06 12.34.15 18.81.24L645.33.93 628.78.76c-1.75 0-2.95.19-6.91.11-1.93-.12-4.47 0-7.76-.08 3.78-.07 7.48 0 11.31 0-.65-.15-9.33-.1-12.36-.15-1.42.05-8.82 0-13.47 0 1.33-.09-.69-.1-3-.12h-1.42 1.37c-1.21 0-2.5 0-3.44-.05-3.14 0-5.14 0-3.87.09-.22 0 .25.06 1.08.08-7.42.13-16 .27-14.18.28 1 0 1.06 0 .85.06h-.55c-.45 0-.76.07.63.08h1.29c2.39 0 3.59 0 4 .08h-10.19v1.45c-.76 3.47-.08 3.77-.77 6.9l.21-.1q-.25 4.11-.47 8.22l-.06.71c-.42 5.25-.76 10.32-.69 14.92v.17" fill="#74cee2"/><text transform="translate(16.53 43.59)" font-family="veneerregular" font-size="40" fill="#74cee2">236<tspan class="cls-5" x="47.68" y="0"> </tspan><tspan class="cls-6" x="52.28" y="0">t</tspan><tspan class="cls-5" x="60.35" y="0">a</tspan><tspan class="cls-6" x="70.08" y="0">p</tspan><tspan class="cls-5" x="79.26" y="0">ahtum</tspan><tspan x="132.75" y="0" letter-spacing="0" font-size="23" fill="#fff">a</tspan><tspan class="cls-5" x="142.6" y="0">a </tspan><tspan x="156.93" y="0" letter-spacing="-.01em" font-size="23" fill="#fff">j</tspan><tspan class="cls-5" x="166.31" y="0">a </tspan><tspan font-size="23" fill="#fff"><tspan x="0" y="27.6">tem</tspan><tspan class="cls-10" x="31.56" y="27.6">p</tspan><tspan x="40.73" y="27.6" letter-spacing="-.01em">a</tspan><tspan x="50.12" y="27.6">us</tspan><tspan class="cls-10" x="70.13" y="27.6">t</tspan><tspan x="78.2" y="27.6">a, jotka </tspan><tspan class="cls-10" x="149.47" y="27.6">t</tspan><tspan class="cls-12" x="157.55" y="27.6">a</tspan><tspan x="166.24" y="27.6">voi</tspan><tspan x="190.64" y="27.6" letter-spacing=".02em">t</tspan><tspan x="200.1" y="27.6">ti</tspan><tspan class="cls-10" x="214.13" y="27.6">v</tspan><tspan class="cls-12" x="222.87" y="27.6">a</tspan><tspan x="231.56" y="27.6">t </tspan></tspan><tspan font-size="30"><tspan x="0" y="59.6">yli 15 000 suoma</tspan><tspan x="174.39" y="59.6" letter-spacing=".01em">l</tspan><tspan x="185.79" y="59.6">ais</tspan><tspan x="217.41" y="59.6" letter-spacing="-.04em">t</tspan><tspan x="227.94" y="59.6">a</tspan></tspan></text><text transform="translate(301.72 67.18)" font-size="56" fill="#fff" font-family="veneerregular">30<tspan x="44.69" y="0" font-size="30" fill="#74cee2"> </tspan><tspan x="50.69" y="0" letter-spacing="-.04em" font-size="27" fill="#74cee2">v</tspan><tspan class="cls-20" x="60.95" y="0">aloku</tspan><tspan x="117.84" y="0" letter-spacing="-.04em" font-size="27" fill="#74cee2">v</tspan><tspan class="cls-20" x="128.1" y="0">an</tspan><tspan x="152.13" y="0" letter-spacing="-.06em" font-size="27" fill="#74cee2">ä</tspan><tspan x="161.79" y="0" letter-spacing=".01em" font-size="27" fill="#74cee2">y</tspan><tspan x="173.46" y="0" letter-spacing=".02em" font-size="27" fill="#74cee2">t</tspan><tspan class="cls-20" x="184.55" y="0">te</tspan><tspan x="205.69" y="0" letter-spacing="-.08em" font-size="27" fill="#74cee2">l</tspan><tspan x="213.52" y="0" letter-spacing="-.06em" font-size="27" fill="#74cee2">y</tspan><tspan class="cls-20" x="223.3" y="0">ä</tspan><tspan x="234.72" y="0" font-size="32" fill="#74cee2"> </tspan><tspan font-size="34"><tspan x="0" y="36" letter-spacing=".01em">ty</tspan><tspan x="28.32" y="36" letter-spacing=".02em">t</tspan><tspan x="42.29" y="36">töjen asemas</tspan><tspan x="210.29" y="36" letter-spacing="-.04em">t</tspan><tspan x="222.22" y="36">a</tspan></tspan></text><text transform="translate(591.16 45.87)" font-size="24" font-family="veneerregular" fill="#0079c1">Yli 1 000 <tspan class="cls-33" x="74.73" y="0">toimisto</tspan><tspan class="cls-34" x="148.29" y="0">v</tspan><tspan class="cls-33" x="157.41" y="0">a</tspan><tspan class="cls-34" x="167.57" y="0">p</tspan><tspan x="177.14" y="0" letter-spacing=".01em" fill="#fff">a</tspan><tspan class="cls-33" x="187.41" y="0">aehtoisten </tspan><tspan class="cls-33"><tspan class="cls-36" x="0" y="28">t</tspan><tspan class="cls-37" x="9.62" y="28">y</tspan><tspan x="19.39" y="28">ötuntia </tspan><tspan x="90.69" y="28" letter-spacing="-.01em">j</tspan><tspan class="cls-2" x="100.49" y="28">a yli 1 000 </tspan><tspan x="0" y="56">k</tspan><tspan x="10.42" y="56" letter-spacing="0">ä</tspan><tspan x="20.69" y="56">änne</tspan><tspan x="62.66" y="56" letter-spacing=".02em">t</tspan><tspan class="cls-36" x="72.53" y="56">t</tspan><tspan x="82.15" y="56" letter-spacing="-.06em">y</tspan><tspan x="90.84" y="56">ä kummiki</tspan><tspan class="cls-37" x="176.4" y="56">r</tspan><tspan x="186.6" y="56">je</tspan><tspan x="206.04" y="56" letter-spacing=".02em">t</tspan><tspan x="215.9" y="56" letter-spacing="-.04em">t</tspan><tspan x="224.32" y="56" letter-spacing="0">ä</tspan></tspan></text></svg>